%TF.GenerationSoftware,KiCad,Pcbnew,10.0.4*%
%TF.CreationDate,2026-06-29T22:51:09+03:00*%
%TF.ProjectId,macropad,6d616372-6f70-4616-942e-6b696361645f,rev?*%
%TF.SameCoordinates,Original*%
%TF.FileFunction,Legend,Bot*%
%TF.FilePolarity,Positive*%
%FSLAX46Y46*%
G04 Gerber Fmt 4.6, Leading zero omitted, Abs format (unit mm)*
G04 Created by KiCad (PCBNEW 10.0.4) date 2026-06-29 22:51:09*
%MOMM*%
%LPD*%
G01*
G04 APERTURE LIST*
%ADD10C,0.150000*%
%ADD11C,0.125000*%
%ADD12C,0.200000*%
%ADD13C,0.120000*%
%ADD14C,0.300000*%
%ADD15C,0.127000*%
%ADD16C,0.100000*%
G04 APERTURE END LIST*
D10*
X120646857Y-131964580D02*
X120694476Y-132012200D01*
X120694476Y-132012200D02*
X120837333Y-132059819D01*
X120837333Y-132059819D02*
X120932571Y-132059819D01*
X120932571Y-132059819D02*
X121075428Y-132012200D01*
X121075428Y-132012200D02*
X121170666Y-131916961D01*
X121170666Y-131916961D02*
X121218285Y-131821723D01*
X121218285Y-131821723D02*
X121265904Y-131631247D01*
X121265904Y-131631247D02*
X121265904Y-131488390D01*
X121265904Y-131488390D02*
X121218285Y-131297914D01*
X121218285Y-131297914D02*
X121170666Y-131202676D01*
X121170666Y-131202676D02*
X121075428Y-131107438D01*
X121075428Y-131107438D02*
X120932571Y-131059819D01*
X120932571Y-131059819D02*
X120837333Y-131059819D01*
X120837333Y-131059819D02*
X120694476Y-131107438D01*
X120694476Y-131107438D02*
X120646857Y-131155057D01*
X119789714Y-131393152D02*
X119789714Y-132059819D01*
X120027809Y-131012200D02*
X120265904Y-131726485D01*
X120265904Y-131726485D02*
X119646857Y-131726485D01*
X118789714Y-131059819D02*
X119265904Y-131059819D01*
X119265904Y-131059819D02*
X119313523Y-131536009D01*
X119313523Y-131536009D02*
X119265904Y-131488390D01*
X119265904Y-131488390D02*
X119170666Y-131440771D01*
X119170666Y-131440771D02*
X118932571Y-131440771D01*
X118932571Y-131440771D02*
X118837333Y-131488390D01*
X118837333Y-131488390D02*
X118789714Y-131536009D01*
X118789714Y-131536009D02*
X118742095Y-131631247D01*
X118742095Y-131631247D02*
X118742095Y-131869342D01*
X118742095Y-131869342D02*
X118789714Y-131964580D01*
X118789714Y-131964580D02*
X118837333Y-132012200D01*
X118837333Y-132012200D02*
X118932571Y-132059819D01*
X118932571Y-132059819D02*
X119170666Y-132059819D01*
X119170666Y-132059819D02*
X119265904Y-132012200D01*
X119265904Y-132012200D02*
X119313523Y-131964580D01*
X79532104Y-99898714D02*
X79570200Y-99860618D01*
X79570200Y-99860618D02*
X79608295Y-99746333D01*
X79608295Y-99746333D02*
X79608295Y-99670142D01*
X79608295Y-99670142D02*
X79570200Y-99555856D01*
X79570200Y-99555856D02*
X79494009Y-99479666D01*
X79494009Y-99479666D02*
X79417819Y-99441571D01*
X79417819Y-99441571D02*
X79265438Y-99403475D01*
X79265438Y-99403475D02*
X79151152Y-99403475D01*
X79151152Y-99403475D02*
X78998771Y-99441571D01*
X78998771Y-99441571D02*
X78922580Y-99479666D01*
X78922580Y-99479666D02*
X78846390Y-99555856D01*
X78846390Y-99555856D02*
X78808295Y-99670142D01*
X78808295Y-99670142D02*
X78808295Y-99746333D01*
X78808295Y-99746333D02*
X78846390Y-99860618D01*
X78846390Y-99860618D02*
X78884485Y-99898714D01*
X78884485Y-100203475D02*
X78846390Y-100241571D01*
X78846390Y-100241571D02*
X78808295Y-100317761D01*
X78808295Y-100317761D02*
X78808295Y-100508237D01*
X78808295Y-100508237D02*
X78846390Y-100584428D01*
X78846390Y-100584428D02*
X78884485Y-100622523D01*
X78884485Y-100622523D02*
X78960676Y-100660618D01*
X78960676Y-100660618D02*
X79036866Y-100660618D01*
X79036866Y-100660618D02*
X79151152Y-100622523D01*
X79151152Y-100622523D02*
X79608295Y-100165380D01*
X79608295Y-100165380D02*
X79608295Y-100660618D01*
X78808295Y-101155857D02*
X78808295Y-101232047D01*
X78808295Y-101232047D02*
X78846390Y-101308238D01*
X78846390Y-101308238D02*
X78884485Y-101346333D01*
X78884485Y-101346333D02*
X78960676Y-101384428D01*
X78960676Y-101384428D02*
X79113057Y-101422523D01*
X79113057Y-101422523D02*
X79303533Y-101422523D01*
X79303533Y-101422523D02*
X79455914Y-101384428D01*
X79455914Y-101384428D02*
X79532104Y-101346333D01*
X79532104Y-101346333D02*
X79570200Y-101308238D01*
X79570200Y-101308238D02*
X79608295Y-101232047D01*
X79608295Y-101232047D02*
X79608295Y-101155857D01*
X79608295Y-101155857D02*
X79570200Y-101079666D01*
X79570200Y-101079666D02*
X79532104Y-101041571D01*
X79532104Y-101041571D02*
X79455914Y-101003476D01*
X79455914Y-101003476D02*
X79303533Y-100965380D01*
X79303533Y-100965380D02*
X79113057Y-100965380D01*
X79113057Y-100965380D02*
X78960676Y-101003476D01*
X78960676Y-101003476D02*
X78884485Y-101041571D01*
X78884485Y-101041571D02*
X78846390Y-101079666D01*
X78846390Y-101079666D02*
X78808295Y-101155857D01*
X79303580Y-119766142D02*
X79351200Y-119718523D01*
X79351200Y-119718523D02*
X79398819Y-119575666D01*
X79398819Y-119575666D02*
X79398819Y-119480428D01*
X79398819Y-119480428D02*
X79351200Y-119337571D01*
X79351200Y-119337571D02*
X79255961Y-119242333D01*
X79255961Y-119242333D02*
X79160723Y-119194714D01*
X79160723Y-119194714D02*
X78970247Y-119147095D01*
X78970247Y-119147095D02*
X78827390Y-119147095D01*
X78827390Y-119147095D02*
X78636914Y-119194714D01*
X78636914Y-119194714D02*
X78541676Y-119242333D01*
X78541676Y-119242333D02*
X78446438Y-119337571D01*
X78446438Y-119337571D02*
X78398819Y-119480428D01*
X78398819Y-119480428D02*
X78398819Y-119575666D01*
X78398819Y-119575666D02*
X78446438Y-119718523D01*
X78446438Y-119718523D02*
X78494057Y-119766142D01*
X78494057Y-120147095D02*
X78446438Y-120194714D01*
X78446438Y-120194714D02*
X78398819Y-120289952D01*
X78398819Y-120289952D02*
X78398819Y-120528047D01*
X78398819Y-120528047D02*
X78446438Y-120623285D01*
X78446438Y-120623285D02*
X78494057Y-120670904D01*
X78494057Y-120670904D02*
X78589295Y-120718523D01*
X78589295Y-120718523D02*
X78684533Y-120718523D01*
X78684533Y-120718523D02*
X78827390Y-120670904D01*
X78827390Y-120670904D02*
X79398819Y-120099476D01*
X79398819Y-120099476D02*
X79398819Y-120718523D01*
X78398819Y-121051857D02*
X78398819Y-121670904D01*
X78398819Y-121670904D02*
X78779771Y-121337571D01*
X78779771Y-121337571D02*
X78779771Y-121480428D01*
X78779771Y-121480428D02*
X78827390Y-121575666D01*
X78827390Y-121575666D02*
X78875009Y-121623285D01*
X78875009Y-121623285D02*
X78970247Y-121670904D01*
X78970247Y-121670904D02*
X79208342Y-121670904D01*
X79208342Y-121670904D02*
X79303580Y-121623285D01*
X79303580Y-121623285D02*
X79351200Y-121575666D01*
X79351200Y-121575666D02*
X79398819Y-121480428D01*
X79398819Y-121480428D02*
X79398819Y-121194714D01*
X79398819Y-121194714D02*
X79351200Y-121099476D01*
X79351200Y-121099476D02*
X79303580Y-121051857D01*
D11*
X83790809Y-95750428D02*
X83767000Y-95774237D01*
X83767000Y-95774237D02*
X83743190Y-95845666D01*
X83743190Y-95845666D02*
X83743190Y-95893285D01*
X83743190Y-95893285D02*
X83767000Y-95964713D01*
X83767000Y-95964713D02*
X83814619Y-96012332D01*
X83814619Y-96012332D02*
X83862238Y-96036142D01*
X83862238Y-96036142D02*
X83957476Y-96059951D01*
X83957476Y-96059951D02*
X84028904Y-96059951D01*
X84028904Y-96059951D02*
X84124142Y-96036142D01*
X84124142Y-96036142D02*
X84171761Y-96012332D01*
X84171761Y-96012332D02*
X84219380Y-95964713D01*
X84219380Y-95964713D02*
X84243190Y-95893285D01*
X84243190Y-95893285D02*
X84243190Y-95845666D01*
X84243190Y-95845666D02*
X84219380Y-95774237D01*
X84219380Y-95774237D02*
X84195571Y-95750428D01*
X84243190Y-95583761D02*
X84243190Y-95274237D01*
X84243190Y-95274237D02*
X84052714Y-95440904D01*
X84052714Y-95440904D02*
X84052714Y-95369475D01*
X84052714Y-95369475D02*
X84028904Y-95321856D01*
X84028904Y-95321856D02*
X84005095Y-95298047D01*
X84005095Y-95298047D02*
X83957476Y-95274237D01*
X83957476Y-95274237D02*
X83838428Y-95274237D01*
X83838428Y-95274237D02*
X83790809Y-95298047D01*
X83790809Y-95298047D02*
X83767000Y-95321856D01*
X83767000Y-95321856D02*
X83743190Y-95369475D01*
X83743190Y-95369475D02*
X83743190Y-95512332D01*
X83743190Y-95512332D02*
X83767000Y-95559951D01*
X83767000Y-95559951D02*
X83790809Y-95583761D01*
X84243190Y-95107571D02*
X84243190Y-94774238D01*
X84243190Y-94774238D02*
X83743190Y-94988523D01*
D10*
X101476857Y-112707580D02*
X101524476Y-112755200D01*
X101524476Y-112755200D02*
X101667333Y-112802819D01*
X101667333Y-112802819D02*
X101762571Y-112802819D01*
X101762571Y-112802819D02*
X101905428Y-112755200D01*
X101905428Y-112755200D02*
X102000666Y-112659961D01*
X102000666Y-112659961D02*
X102048285Y-112564723D01*
X102048285Y-112564723D02*
X102095904Y-112374247D01*
X102095904Y-112374247D02*
X102095904Y-112231390D01*
X102095904Y-112231390D02*
X102048285Y-112040914D01*
X102048285Y-112040914D02*
X102000666Y-111945676D01*
X102000666Y-111945676D02*
X101905428Y-111850438D01*
X101905428Y-111850438D02*
X101762571Y-111802819D01*
X101762571Y-111802819D02*
X101667333Y-111802819D01*
X101667333Y-111802819D02*
X101524476Y-111850438D01*
X101524476Y-111850438D02*
X101476857Y-111898057D01*
X100619714Y-112136152D02*
X100619714Y-112802819D01*
X100857809Y-111755200D02*
X101095904Y-112469485D01*
X101095904Y-112469485D02*
X100476857Y-112469485D01*
X99572095Y-112802819D02*
X100143523Y-112802819D01*
X99857809Y-112802819D02*
X99857809Y-111802819D01*
X99857809Y-111802819D02*
X99953047Y-111945676D01*
X99953047Y-111945676D02*
X100048285Y-112040914D01*
X100048285Y-112040914D02*
X100143523Y-112088533D01*
X79657580Y-157518142D02*
X79705200Y-157470523D01*
X79705200Y-157470523D02*
X79752819Y-157327666D01*
X79752819Y-157327666D02*
X79752819Y-157232428D01*
X79752819Y-157232428D02*
X79705200Y-157089571D01*
X79705200Y-157089571D02*
X79609961Y-156994333D01*
X79609961Y-156994333D02*
X79514723Y-156946714D01*
X79514723Y-156946714D02*
X79324247Y-156899095D01*
X79324247Y-156899095D02*
X79181390Y-156899095D01*
X79181390Y-156899095D02*
X78990914Y-156946714D01*
X78990914Y-156946714D02*
X78895676Y-156994333D01*
X78895676Y-156994333D02*
X78800438Y-157089571D01*
X78800438Y-157089571D02*
X78752819Y-157232428D01*
X78752819Y-157232428D02*
X78752819Y-157327666D01*
X78752819Y-157327666D02*
X78800438Y-157470523D01*
X78800438Y-157470523D02*
X78848057Y-157518142D01*
X78848057Y-157899095D02*
X78800438Y-157946714D01*
X78800438Y-157946714D02*
X78752819Y-158041952D01*
X78752819Y-158041952D02*
X78752819Y-158280047D01*
X78752819Y-158280047D02*
X78800438Y-158375285D01*
X78800438Y-158375285D02*
X78848057Y-158422904D01*
X78848057Y-158422904D02*
X78943295Y-158470523D01*
X78943295Y-158470523D02*
X79038533Y-158470523D01*
X79038533Y-158470523D02*
X79181390Y-158422904D01*
X79181390Y-158422904D02*
X79752819Y-157851476D01*
X79752819Y-157851476D02*
X79752819Y-158470523D01*
X79752819Y-158946714D02*
X79752819Y-159137190D01*
X79752819Y-159137190D02*
X79705200Y-159232428D01*
X79705200Y-159232428D02*
X79657580Y-159280047D01*
X79657580Y-159280047D02*
X79514723Y-159375285D01*
X79514723Y-159375285D02*
X79324247Y-159422904D01*
X79324247Y-159422904D02*
X78943295Y-159422904D01*
X78943295Y-159422904D02*
X78848057Y-159375285D01*
X78848057Y-159375285D02*
X78800438Y-159327666D01*
X78800438Y-159327666D02*
X78752819Y-159232428D01*
X78752819Y-159232428D02*
X78752819Y-159041952D01*
X78752819Y-159041952D02*
X78800438Y-158946714D01*
X78800438Y-158946714D02*
X78848057Y-158899095D01*
X78848057Y-158899095D02*
X78943295Y-158851476D01*
X78943295Y-158851476D02*
X79181390Y-158851476D01*
X79181390Y-158851476D02*
X79276628Y-158899095D01*
X79276628Y-158899095D02*
X79324247Y-158946714D01*
X79324247Y-158946714D02*
X79371866Y-159041952D01*
X79371866Y-159041952D02*
X79371866Y-159232428D01*
X79371866Y-159232428D02*
X79324247Y-159327666D01*
X79324247Y-159327666D02*
X79276628Y-159375285D01*
X79276628Y-159375285D02*
X79181390Y-159422904D01*
X129216666Y-123916033D02*
X129449999Y-123582700D01*
X129616666Y-123916033D02*
X129616666Y-123216033D01*
X129616666Y-123216033D02*
X129349999Y-123216033D01*
X129349999Y-123216033D02*
X129283333Y-123249366D01*
X129283333Y-123249366D02*
X129249999Y-123282700D01*
X129249999Y-123282700D02*
X129216666Y-123349366D01*
X129216666Y-123349366D02*
X129216666Y-123449366D01*
X129216666Y-123449366D02*
X129249999Y-123516033D01*
X129249999Y-123516033D02*
X129283333Y-123549366D01*
X129283333Y-123549366D02*
X129349999Y-123582700D01*
X129349999Y-123582700D02*
X129616666Y-123582700D01*
X128616666Y-123449366D02*
X128616666Y-123916033D01*
X128783333Y-123182700D02*
X128949999Y-123682700D01*
X128949999Y-123682700D02*
X128516666Y-123682700D01*
X100634857Y-151067580D02*
X100682476Y-151115200D01*
X100682476Y-151115200D02*
X100825333Y-151162819D01*
X100825333Y-151162819D02*
X100920571Y-151162819D01*
X100920571Y-151162819D02*
X101063428Y-151115200D01*
X101063428Y-151115200D02*
X101158666Y-151019961D01*
X101158666Y-151019961D02*
X101206285Y-150924723D01*
X101206285Y-150924723D02*
X101253904Y-150734247D01*
X101253904Y-150734247D02*
X101253904Y-150591390D01*
X101253904Y-150591390D02*
X101206285Y-150400914D01*
X101206285Y-150400914D02*
X101158666Y-150305676D01*
X101158666Y-150305676D02*
X101063428Y-150210438D01*
X101063428Y-150210438D02*
X100920571Y-150162819D01*
X100920571Y-150162819D02*
X100825333Y-150162819D01*
X100825333Y-150162819D02*
X100682476Y-150210438D01*
X100682476Y-150210438D02*
X100634857Y-150258057D01*
X99777714Y-150496152D02*
X99777714Y-151162819D01*
X100015809Y-150115200D02*
X100253904Y-150829485D01*
X100253904Y-150829485D02*
X99634857Y-150829485D01*
X99349142Y-150162819D02*
X98682476Y-150162819D01*
X98682476Y-150162819D02*
X99111047Y-151162819D01*
X133116033Y-149849999D02*
X132782700Y-149616666D01*
X133116033Y-149449999D02*
X132416033Y-149449999D01*
X132416033Y-149449999D02*
X132416033Y-149716666D01*
X132416033Y-149716666D02*
X132449366Y-149783333D01*
X132449366Y-149783333D02*
X132482700Y-149816666D01*
X132482700Y-149816666D02*
X132549366Y-149849999D01*
X132549366Y-149849999D02*
X132649366Y-149849999D01*
X132649366Y-149849999D02*
X132716033Y-149816666D01*
X132716033Y-149816666D02*
X132749366Y-149783333D01*
X132749366Y-149783333D02*
X132782700Y-149716666D01*
X132782700Y-149716666D02*
X132782700Y-149449999D01*
X132482700Y-150116666D02*
X132449366Y-150149999D01*
X132449366Y-150149999D02*
X132416033Y-150216666D01*
X132416033Y-150216666D02*
X132416033Y-150383333D01*
X132416033Y-150383333D02*
X132449366Y-150449999D01*
X132449366Y-150449999D02*
X132482700Y-150483333D01*
X132482700Y-150483333D02*
X132549366Y-150516666D01*
X132549366Y-150516666D02*
X132616033Y-150516666D01*
X132616033Y-150516666D02*
X132716033Y-150483333D01*
X132716033Y-150483333D02*
X133116033Y-150083333D01*
X133116033Y-150083333D02*
X133116033Y-150516666D01*
X132416033Y-150750000D02*
X132416033Y-151216666D01*
X132416033Y-151216666D02*
X133116033Y-150916666D01*
X109754819Y-84561905D02*
X110564342Y-84561905D01*
X110564342Y-84561905D02*
X110659580Y-84609524D01*
X110659580Y-84609524D02*
X110707200Y-84657143D01*
X110707200Y-84657143D02*
X110754819Y-84752381D01*
X110754819Y-84752381D02*
X110754819Y-84942857D01*
X110754819Y-84942857D02*
X110707200Y-85038095D01*
X110707200Y-85038095D02*
X110659580Y-85085714D01*
X110659580Y-85085714D02*
X110564342Y-85133333D01*
X110564342Y-85133333D02*
X109754819Y-85133333D01*
X109754819Y-85514286D02*
X109754819Y-86133333D01*
X109754819Y-86133333D02*
X110135771Y-85800000D01*
X110135771Y-85800000D02*
X110135771Y-85942857D01*
X110135771Y-85942857D02*
X110183390Y-86038095D01*
X110183390Y-86038095D02*
X110231009Y-86085714D01*
X110231009Y-86085714D02*
X110326247Y-86133333D01*
X110326247Y-86133333D02*
X110564342Y-86133333D01*
X110564342Y-86133333D02*
X110659580Y-86085714D01*
X110659580Y-86085714D02*
X110707200Y-86038095D01*
X110707200Y-86038095D02*
X110754819Y-85942857D01*
X110754819Y-85942857D02*
X110754819Y-85657143D01*
X110754819Y-85657143D02*
X110707200Y-85561905D01*
X110707200Y-85561905D02*
X110659580Y-85514286D01*
X109754819Y-87038095D02*
X109754819Y-86561905D01*
X109754819Y-86561905D02*
X110231009Y-86514286D01*
X110231009Y-86514286D02*
X110183390Y-86561905D01*
X110183390Y-86561905D02*
X110135771Y-86657143D01*
X110135771Y-86657143D02*
X110135771Y-86895238D01*
X110135771Y-86895238D02*
X110183390Y-86990476D01*
X110183390Y-86990476D02*
X110231009Y-87038095D01*
X110231009Y-87038095D02*
X110326247Y-87085714D01*
X110326247Y-87085714D02*
X110564342Y-87085714D01*
X110564342Y-87085714D02*
X110659580Y-87038095D01*
X110659580Y-87038095D02*
X110707200Y-86990476D01*
X110707200Y-86990476D02*
X110754819Y-86895238D01*
X110754819Y-86895238D02*
X110754819Y-86657143D01*
X110754819Y-86657143D02*
X110707200Y-86561905D01*
X110707200Y-86561905D02*
X110659580Y-86514286D01*
X104950000Y-76716033D02*
X105183333Y-76382700D01*
X105350000Y-76716033D02*
X105350000Y-76016033D01*
X105350000Y-76016033D02*
X105083333Y-76016033D01*
X105083333Y-76016033D02*
X105016667Y-76049366D01*
X105016667Y-76049366D02*
X104983333Y-76082700D01*
X104983333Y-76082700D02*
X104950000Y-76149366D01*
X104950000Y-76149366D02*
X104950000Y-76249366D01*
X104950000Y-76249366D02*
X104983333Y-76316033D01*
X104983333Y-76316033D02*
X105016667Y-76349366D01*
X105016667Y-76349366D02*
X105083333Y-76382700D01*
X105083333Y-76382700D02*
X105350000Y-76382700D01*
X104716667Y-76016033D02*
X104283333Y-76016033D01*
X104283333Y-76016033D02*
X104516667Y-76282700D01*
X104516667Y-76282700D02*
X104416667Y-76282700D01*
X104416667Y-76282700D02*
X104350000Y-76316033D01*
X104350000Y-76316033D02*
X104316667Y-76349366D01*
X104316667Y-76349366D02*
X104283333Y-76416033D01*
X104283333Y-76416033D02*
X104283333Y-76582700D01*
X104283333Y-76582700D02*
X104316667Y-76649366D01*
X104316667Y-76649366D02*
X104350000Y-76682700D01*
X104350000Y-76682700D02*
X104416667Y-76716033D01*
X104416667Y-76716033D02*
X104616667Y-76716033D01*
X104616667Y-76716033D02*
X104683333Y-76682700D01*
X104683333Y-76682700D02*
X104716667Y-76649366D01*
X104050000Y-76016033D02*
X103616666Y-76016033D01*
X103616666Y-76016033D02*
X103850000Y-76282700D01*
X103850000Y-76282700D02*
X103750000Y-76282700D01*
X103750000Y-76282700D02*
X103683333Y-76316033D01*
X103683333Y-76316033D02*
X103650000Y-76349366D01*
X103650000Y-76349366D02*
X103616666Y-76416033D01*
X103616666Y-76416033D02*
X103616666Y-76582700D01*
X103616666Y-76582700D02*
X103650000Y-76649366D01*
X103650000Y-76649366D02*
X103683333Y-76682700D01*
X103683333Y-76682700D02*
X103750000Y-76716033D01*
X103750000Y-76716033D02*
X103950000Y-76716033D01*
X103950000Y-76716033D02*
X104016666Y-76682700D01*
X104016666Y-76682700D02*
X104050000Y-76649366D01*
X99316033Y-80049999D02*
X98982700Y-79816666D01*
X99316033Y-79649999D02*
X98616033Y-79649999D01*
X98616033Y-79649999D02*
X98616033Y-79916666D01*
X98616033Y-79916666D02*
X98649366Y-79983333D01*
X98649366Y-79983333D02*
X98682700Y-80016666D01*
X98682700Y-80016666D02*
X98749366Y-80049999D01*
X98749366Y-80049999D02*
X98849366Y-80049999D01*
X98849366Y-80049999D02*
X98916033Y-80016666D01*
X98916033Y-80016666D02*
X98949366Y-79983333D01*
X98949366Y-79983333D02*
X98982700Y-79916666D01*
X98982700Y-79916666D02*
X98982700Y-79649999D01*
X98616033Y-80283333D02*
X98616033Y-80716666D01*
X98616033Y-80716666D02*
X98882700Y-80483333D01*
X98882700Y-80483333D02*
X98882700Y-80583333D01*
X98882700Y-80583333D02*
X98916033Y-80649999D01*
X98916033Y-80649999D02*
X98949366Y-80683333D01*
X98949366Y-80683333D02*
X99016033Y-80716666D01*
X99016033Y-80716666D02*
X99182700Y-80716666D01*
X99182700Y-80716666D02*
X99249366Y-80683333D01*
X99249366Y-80683333D02*
X99282700Y-80649999D01*
X99282700Y-80649999D02*
X99316033Y-80583333D01*
X99316033Y-80583333D02*
X99316033Y-80383333D01*
X99316033Y-80383333D02*
X99282700Y-80316666D01*
X99282700Y-80316666D02*
X99249366Y-80283333D01*
X99316033Y-81383333D02*
X99316033Y-80983333D01*
X99316033Y-81183333D02*
X98616033Y-81183333D01*
X98616033Y-81183333D02*
X98716033Y-81116666D01*
X98716033Y-81116666D02*
X98782700Y-81050000D01*
X98782700Y-81050000D02*
X98816033Y-80983333D01*
X128850000Y-152249366D02*
X128883333Y-152282700D01*
X128883333Y-152282700D02*
X128983333Y-152316033D01*
X128983333Y-152316033D02*
X129050000Y-152316033D01*
X129050000Y-152316033D02*
X129150000Y-152282700D01*
X129150000Y-152282700D02*
X129216667Y-152216033D01*
X129216667Y-152216033D02*
X129250000Y-152149366D01*
X129250000Y-152149366D02*
X129283333Y-152016033D01*
X129283333Y-152016033D02*
X129283333Y-151916033D01*
X129283333Y-151916033D02*
X129250000Y-151782700D01*
X129250000Y-151782700D02*
X129216667Y-151716033D01*
X129216667Y-151716033D02*
X129150000Y-151649366D01*
X129150000Y-151649366D02*
X129050000Y-151616033D01*
X129050000Y-151616033D02*
X128983333Y-151616033D01*
X128983333Y-151616033D02*
X128883333Y-151649366D01*
X128883333Y-151649366D02*
X128850000Y-151682700D01*
X128183333Y-152316033D02*
X128583333Y-152316033D01*
X128383333Y-152316033D02*
X128383333Y-151616033D01*
X128383333Y-151616033D02*
X128450000Y-151716033D01*
X128450000Y-151716033D02*
X128516667Y-151782700D01*
X128516667Y-151782700D02*
X128583333Y-151816033D01*
X127516666Y-152316033D02*
X127916666Y-152316033D01*
X127716666Y-152316033D02*
X127716666Y-151616033D01*
X127716666Y-151616033D02*
X127783333Y-151716033D01*
X127783333Y-151716033D02*
X127850000Y-151782700D01*
X127850000Y-151782700D02*
X127916666Y-151816033D01*
X100432819Y-109325142D02*
X99956628Y-108991809D01*
X100432819Y-108753714D02*
X99432819Y-108753714D01*
X99432819Y-108753714D02*
X99432819Y-109134666D01*
X99432819Y-109134666D02*
X99480438Y-109229904D01*
X99480438Y-109229904D02*
X99528057Y-109277523D01*
X99528057Y-109277523D02*
X99623295Y-109325142D01*
X99623295Y-109325142D02*
X99766152Y-109325142D01*
X99766152Y-109325142D02*
X99861390Y-109277523D01*
X99861390Y-109277523D02*
X99909009Y-109229904D01*
X99909009Y-109229904D02*
X99956628Y-109134666D01*
X99956628Y-109134666D02*
X99956628Y-108753714D01*
X100432819Y-110277523D02*
X100432819Y-109706095D01*
X100432819Y-109991809D02*
X99432819Y-109991809D01*
X99432819Y-109991809D02*
X99575676Y-109896571D01*
X99575676Y-109896571D02*
X99670914Y-109801333D01*
X99670914Y-109801333D02*
X99718533Y-109706095D01*
X100432819Y-111229904D02*
X100432819Y-110658476D01*
X100432819Y-110944190D02*
X99432819Y-110944190D01*
X99432819Y-110944190D02*
X99575676Y-110848952D01*
X99575676Y-110848952D02*
X99670914Y-110753714D01*
X99670914Y-110753714D02*
X99718533Y-110658476D01*
X79811580Y-138642142D02*
X79859200Y-138594523D01*
X79859200Y-138594523D02*
X79906819Y-138451666D01*
X79906819Y-138451666D02*
X79906819Y-138356428D01*
X79906819Y-138356428D02*
X79859200Y-138213571D01*
X79859200Y-138213571D02*
X79763961Y-138118333D01*
X79763961Y-138118333D02*
X79668723Y-138070714D01*
X79668723Y-138070714D02*
X79478247Y-138023095D01*
X79478247Y-138023095D02*
X79335390Y-138023095D01*
X79335390Y-138023095D02*
X79144914Y-138070714D01*
X79144914Y-138070714D02*
X79049676Y-138118333D01*
X79049676Y-138118333D02*
X78954438Y-138213571D01*
X78954438Y-138213571D02*
X78906819Y-138356428D01*
X78906819Y-138356428D02*
X78906819Y-138451666D01*
X78906819Y-138451666D02*
X78954438Y-138594523D01*
X78954438Y-138594523D02*
X79002057Y-138642142D01*
X79002057Y-139023095D02*
X78954438Y-139070714D01*
X78954438Y-139070714D02*
X78906819Y-139165952D01*
X78906819Y-139165952D02*
X78906819Y-139404047D01*
X78906819Y-139404047D02*
X78954438Y-139499285D01*
X78954438Y-139499285D02*
X79002057Y-139546904D01*
X79002057Y-139546904D02*
X79097295Y-139594523D01*
X79097295Y-139594523D02*
X79192533Y-139594523D01*
X79192533Y-139594523D02*
X79335390Y-139546904D01*
X79335390Y-139546904D02*
X79906819Y-138975476D01*
X79906819Y-138975476D02*
X79906819Y-139594523D01*
X78906819Y-140451666D02*
X78906819Y-140261190D01*
X78906819Y-140261190D02*
X78954438Y-140165952D01*
X78954438Y-140165952D02*
X79002057Y-140118333D01*
X79002057Y-140118333D02*
X79144914Y-140023095D01*
X79144914Y-140023095D02*
X79335390Y-139975476D01*
X79335390Y-139975476D02*
X79716342Y-139975476D01*
X79716342Y-139975476D02*
X79811580Y-140023095D01*
X79811580Y-140023095D02*
X79859200Y-140070714D01*
X79859200Y-140070714D02*
X79906819Y-140165952D01*
X79906819Y-140165952D02*
X79906819Y-140356428D01*
X79906819Y-140356428D02*
X79859200Y-140451666D01*
X79859200Y-140451666D02*
X79811580Y-140499285D01*
X79811580Y-140499285D02*
X79716342Y-140546904D01*
X79716342Y-140546904D02*
X79478247Y-140546904D01*
X79478247Y-140546904D02*
X79383009Y-140499285D01*
X79383009Y-140499285D02*
X79335390Y-140451666D01*
X79335390Y-140451666D02*
X79287771Y-140356428D01*
X79287771Y-140356428D02*
X79287771Y-140165952D01*
X79287771Y-140165952D02*
X79335390Y-140070714D01*
X79335390Y-140070714D02*
X79383009Y-140023095D01*
X79383009Y-140023095D02*
X79478247Y-139975476D01*
X125342857Y-77224819D02*
X125676190Y-76748628D01*
X125914285Y-77224819D02*
X125914285Y-76224819D01*
X125914285Y-76224819D02*
X125533333Y-76224819D01*
X125533333Y-76224819D02*
X125438095Y-76272438D01*
X125438095Y-76272438D02*
X125390476Y-76320057D01*
X125390476Y-76320057D02*
X125342857Y-76415295D01*
X125342857Y-76415295D02*
X125342857Y-76558152D01*
X125342857Y-76558152D02*
X125390476Y-76653390D01*
X125390476Y-76653390D02*
X125438095Y-76701009D01*
X125438095Y-76701009D02*
X125533333Y-76748628D01*
X125533333Y-76748628D02*
X125914285Y-76748628D01*
X124961904Y-76320057D02*
X124914285Y-76272438D01*
X124914285Y-76272438D02*
X124819047Y-76224819D01*
X124819047Y-76224819D02*
X124580952Y-76224819D01*
X124580952Y-76224819D02*
X124485714Y-76272438D01*
X124485714Y-76272438D02*
X124438095Y-76320057D01*
X124438095Y-76320057D02*
X124390476Y-76415295D01*
X124390476Y-76415295D02*
X124390476Y-76510533D01*
X124390476Y-76510533D02*
X124438095Y-76653390D01*
X124438095Y-76653390D02*
X125009523Y-77224819D01*
X125009523Y-77224819D02*
X124390476Y-77224819D01*
X123771428Y-76224819D02*
X123676190Y-76224819D01*
X123676190Y-76224819D02*
X123580952Y-76272438D01*
X123580952Y-76272438D02*
X123533333Y-76320057D01*
X123533333Y-76320057D02*
X123485714Y-76415295D01*
X123485714Y-76415295D02*
X123438095Y-76605771D01*
X123438095Y-76605771D02*
X123438095Y-76843866D01*
X123438095Y-76843866D02*
X123485714Y-77034342D01*
X123485714Y-77034342D02*
X123533333Y-77129580D01*
X123533333Y-77129580D02*
X123580952Y-77177200D01*
X123580952Y-77177200D02*
X123676190Y-77224819D01*
X123676190Y-77224819D02*
X123771428Y-77224819D01*
X123771428Y-77224819D02*
X123866666Y-77177200D01*
X123866666Y-77177200D02*
X123914285Y-77129580D01*
X123914285Y-77129580D02*
X123961904Y-77034342D01*
X123961904Y-77034342D02*
X124009523Y-76843866D01*
X124009523Y-76843866D02*
X124009523Y-76605771D01*
X124009523Y-76605771D02*
X123961904Y-76415295D01*
X123961904Y-76415295D02*
X123914285Y-76320057D01*
X123914285Y-76320057D02*
X123866666Y-76272438D01*
X123866666Y-76272438D02*
X123771428Y-76224819D01*
X125230357Y-83154819D02*
X125563690Y-82678628D01*
X125801785Y-83154819D02*
X125801785Y-82154819D01*
X125801785Y-82154819D02*
X125420833Y-82154819D01*
X125420833Y-82154819D02*
X125325595Y-82202438D01*
X125325595Y-82202438D02*
X125277976Y-82250057D01*
X125277976Y-82250057D02*
X125230357Y-82345295D01*
X125230357Y-82345295D02*
X125230357Y-82488152D01*
X125230357Y-82488152D02*
X125277976Y-82583390D01*
X125277976Y-82583390D02*
X125325595Y-82631009D01*
X125325595Y-82631009D02*
X125420833Y-82678628D01*
X125420833Y-82678628D02*
X125801785Y-82678628D01*
X124277976Y-83154819D02*
X124849404Y-83154819D01*
X124563690Y-83154819D02*
X124563690Y-82154819D01*
X124563690Y-82154819D02*
X124658928Y-82297676D01*
X124658928Y-82297676D02*
X124754166Y-82392914D01*
X124754166Y-82392914D02*
X124849404Y-82440533D01*
X123801785Y-83154819D02*
X123611309Y-83154819D01*
X123611309Y-83154819D02*
X123516071Y-83107200D01*
X123516071Y-83107200D02*
X123468452Y-83059580D01*
X123468452Y-83059580D02*
X123373214Y-82916723D01*
X123373214Y-82916723D02*
X123325595Y-82726247D01*
X123325595Y-82726247D02*
X123325595Y-82345295D01*
X123325595Y-82345295D02*
X123373214Y-82250057D01*
X123373214Y-82250057D02*
X123420833Y-82202438D01*
X123420833Y-82202438D02*
X123516071Y-82154819D01*
X123516071Y-82154819D02*
X123706547Y-82154819D01*
X123706547Y-82154819D02*
X123801785Y-82202438D01*
X123801785Y-82202438D02*
X123849404Y-82250057D01*
X123849404Y-82250057D02*
X123897023Y-82345295D01*
X123897023Y-82345295D02*
X123897023Y-82583390D01*
X123897023Y-82583390D02*
X123849404Y-82678628D01*
X123849404Y-82678628D02*
X123801785Y-82726247D01*
X123801785Y-82726247D02*
X123706547Y-82773866D01*
X123706547Y-82773866D02*
X123516071Y-82773866D01*
X123516071Y-82773866D02*
X123420833Y-82726247D01*
X123420833Y-82726247D02*
X123373214Y-82678628D01*
X123373214Y-82678628D02*
X123325595Y-82583390D01*
X120450000Y-96349366D02*
X120483333Y-96382700D01*
X120483333Y-96382700D02*
X120583333Y-96416033D01*
X120583333Y-96416033D02*
X120650000Y-96416033D01*
X120650000Y-96416033D02*
X120750000Y-96382700D01*
X120750000Y-96382700D02*
X120816667Y-96316033D01*
X120816667Y-96316033D02*
X120850000Y-96249366D01*
X120850000Y-96249366D02*
X120883333Y-96116033D01*
X120883333Y-96116033D02*
X120883333Y-96016033D01*
X120883333Y-96016033D02*
X120850000Y-95882700D01*
X120850000Y-95882700D02*
X120816667Y-95816033D01*
X120816667Y-95816033D02*
X120750000Y-95749366D01*
X120750000Y-95749366D02*
X120650000Y-95716033D01*
X120650000Y-95716033D02*
X120583333Y-95716033D01*
X120583333Y-95716033D02*
X120483333Y-95749366D01*
X120483333Y-95749366D02*
X120450000Y-95782700D01*
X120216667Y-95716033D02*
X119783333Y-95716033D01*
X119783333Y-95716033D02*
X120016667Y-95982700D01*
X120016667Y-95982700D02*
X119916667Y-95982700D01*
X119916667Y-95982700D02*
X119850000Y-96016033D01*
X119850000Y-96016033D02*
X119816667Y-96049366D01*
X119816667Y-96049366D02*
X119783333Y-96116033D01*
X119783333Y-96116033D02*
X119783333Y-96282700D01*
X119783333Y-96282700D02*
X119816667Y-96349366D01*
X119816667Y-96349366D02*
X119850000Y-96382700D01*
X119850000Y-96382700D02*
X119916667Y-96416033D01*
X119916667Y-96416033D02*
X120116667Y-96416033D01*
X120116667Y-96416033D02*
X120183333Y-96382700D01*
X120183333Y-96382700D02*
X120216667Y-96349366D01*
X119450000Y-96416033D02*
X119316666Y-96416033D01*
X119316666Y-96416033D02*
X119250000Y-96382700D01*
X119250000Y-96382700D02*
X119216666Y-96349366D01*
X119216666Y-96349366D02*
X119150000Y-96249366D01*
X119150000Y-96249366D02*
X119116666Y-96116033D01*
X119116666Y-96116033D02*
X119116666Y-95849366D01*
X119116666Y-95849366D02*
X119150000Y-95782700D01*
X119150000Y-95782700D02*
X119183333Y-95749366D01*
X119183333Y-95749366D02*
X119250000Y-95716033D01*
X119250000Y-95716033D02*
X119383333Y-95716033D01*
X119383333Y-95716033D02*
X119450000Y-95749366D01*
X119450000Y-95749366D02*
X119483333Y-95782700D01*
X119483333Y-95782700D02*
X119516666Y-95849366D01*
X119516666Y-95849366D02*
X119516666Y-96016033D01*
X119516666Y-96016033D02*
X119483333Y-96082700D01*
X119483333Y-96082700D02*
X119450000Y-96116033D01*
X119450000Y-96116033D02*
X119383333Y-96149366D01*
X119383333Y-96149366D02*
X119250000Y-96149366D01*
X119250000Y-96149366D02*
X119183333Y-96116033D01*
X119183333Y-96116033D02*
X119150000Y-96082700D01*
X119150000Y-96082700D02*
X119116666Y-96016033D01*
X120474033Y-91360333D02*
X120140700Y-91127000D01*
X120474033Y-90960333D02*
X119774033Y-90960333D01*
X119774033Y-90960333D02*
X119774033Y-91227000D01*
X119774033Y-91227000D02*
X119807366Y-91293667D01*
X119807366Y-91293667D02*
X119840700Y-91327000D01*
X119840700Y-91327000D02*
X119907366Y-91360333D01*
X119907366Y-91360333D02*
X120007366Y-91360333D01*
X120007366Y-91360333D02*
X120074033Y-91327000D01*
X120074033Y-91327000D02*
X120107366Y-91293667D01*
X120107366Y-91293667D02*
X120140700Y-91227000D01*
X120140700Y-91227000D02*
X120140700Y-90960333D01*
X120474033Y-91693667D02*
X120474033Y-91827000D01*
X120474033Y-91827000D02*
X120440700Y-91893667D01*
X120440700Y-91893667D02*
X120407366Y-91927000D01*
X120407366Y-91927000D02*
X120307366Y-91993667D01*
X120307366Y-91993667D02*
X120174033Y-92027000D01*
X120174033Y-92027000D02*
X119907366Y-92027000D01*
X119907366Y-92027000D02*
X119840700Y-91993667D01*
X119840700Y-91993667D02*
X119807366Y-91960333D01*
X119807366Y-91960333D02*
X119774033Y-91893667D01*
X119774033Y-91893667D02*
X119774033Y-91760333D01*
X119774033Y-91760333D02*
X119807366Y-91693667D01*
X119807366Y-91693667D02*
X119840700Y-91660333D01*
X119840700Y-91660333D02*
X119907366Y-91627000D01*
X119907366Y-91627000D02*
X120074033Y-91627000D01*
X120074033Y-91627000D02*
X120140700Y-91660333D01*
X120140700Y-91660333D02*
X120174033Y-91693667D01*
X120174033Y-91693667D02*
X120207366Y-91760333D01*
X120207366Y-91760333D02*
X120207366Y-91893667D01*
X120207366Y-91893667D02*
X120174033Y-91960333D01*
X120174033Y-91960333D02*
X120140700Y-91993667D01*
X120140700Y-91993667D02*
X120074033Y-92027000D01*
X99116033Y-74549999D02*
X98782700Y-74316666D01*
X99116033Y-74149999D02*
X98416033Y-74149999D01*
X98416033Y-74149999D02*
X98416033Y-74416666D01*
X98416033Y-74416666D02*
X98449366Y-74483333D01*
X98449366Y-74483333D02*
X98482700Y-74516666D01*
X98482700Y-74516666D02*
X98549366Y-74549999D01*
X98549366Y-74549999D02*
X98649366Y-74549999D01*
X98649366Y-74549999D02*
X98716033Y-74516666D01*
X98716033Y-74516666D02*
X98749366Y-74483333D01*
X98749366Y-74483333D02*
X98782700Y-74416666D01*
X98782700Y-74416666D02*
X98782700Y-74149999D01*
X98416033Y-74783333D02*
X98416033Y-75216666D01*
X98416033Y-75216666D02*
X98682700Y-74983333D01*
X98682700Y-74983333D02*
X98682700Y-75083333D01*
X98682700Y-75083333D02*
X98716033Y-75149999D01*
X98716033Y-75149999D02*
X98749366Y-75183333D01*
X98749366Y-75183333D02*
X98816033Y-75216666D01*
X98816033Y-75216666D02*
X98982700Y-75216666D01*
X98982700Y-75216666D02*
X99049366Y-75183333D01*
X99049366Y-75183333D02*
X99082700Y-75149999D01*
X99082700Y-75149999D02*
X99116033Y-75083333D01*
X99116033Y-75083333D02*
X99116033Y-74883333D01*
X99116033Y-74883333D02*
X99082700Y-74816666D01*
X99082700Y-74816666D02*
X99049366Y-74783333D01*
X98482700Y-75483333D02*
X98449366Y-75516666D01*
X98449366Y-75516666D02*
X98416033Y-75583333D01*
X98416033Y-75583333D02*
X98416033Y-75750000D01*
X98416033Y-75750000D02*
X98449366Y-75816666D01*
X98449366Y-75816666D02*
X98482700Y-75850000D01*
X98482700Y-75850000D02*
X98549366Y-75883333D01*
X98549366Y-75883333D02*
X98616033Y-75883333D01*
X98616033Y-75883333D02*
X98716033Y-75850000D01*
X98716033Y-75850000D02*
X99116033Y-75450000D01*
X99116033Y-75450000D02*
X99116033Y-75883333D01*
X126084666Y-126475366D02*
X126117999Y-126508700D01*
X126117999Y-126508700D02*
X126217999Y-126542033D01*
X126217999Y-126542033D02*
X126284666Y-126542033D01*
X126284666Y-126542033D02*
X126384666Y-126508700D01*
X126384666Y-126508700D02*
X126451333Y-126442033D01*
X126451333Y-126442033D02*
X126484666Y-126375366D01*
X126484666Y-126375366D02*
X126517999Y-126242033D01*
X126517999Y-126242033D02*
X126517999Y-126142033D01*
X126517999Y-126142033D02*
X126484666Y-126008700D01*
X126484666Y-126008700D02*
X126451333Y-125942033D01*
X126451333Y-125942033D02*
X126384666Y-125875366D01*
X126384666Y-125875366D02*
X126284666Y-125842033D01*
X126284666Y-125842033D02*
X126217999Y-125842033D01*
X126217999Y-125842033D02*
X126117999Y-125875366D01*
X126117999Y-125875366D02*
X126084666Y-125908700D01*
X125817999Y-125908700D02*
X125784666Y-125875366D01*
X125784666Y-125875366D02*
X125717999Y-125842033D01*
X125717999Y-125842033D02*
X125551333Y-125842033D01*
X125551333Y-125842033D02*
X125484666Y-125875366D01*
X125484666Y-125875366D02*
X125451333Y-125908700D01*
X125451333Y-125908700D02*
X125417999Y-125975366D01*
X125417999Y-125975366D02*
X125417999Y-126042033D01*
X125417999Y-126042033D02*
X125451333Y-126142033D01*
X125451333Y-126142033D02*
X125851333Y-126542033D01*
X125851333Y-126542033D02*
X125417999Y-126542033D01*
X127050000Y-99416033D02*
X127283333Y-99082700D01*
X127450000Y-99416033D02*
X127450000Y-98716033D01*
X127450000Y-98716033D02*
X127183333Y-98716033D01*
X127183333Y-98716033D02*
X127116667Y-98749366D01*
X127116667Y-98749366D02*
X127083333Y-98782700D01*
X127083333Y-98782700D02*
X127050000Y-98849366D01*
X127050000Y-98849366D02*
X127050000Y-98949366D01*
X127050000Y-98949366D02*
X127083333Y-99016033D01*
X127083333Y-99016033D02*
X127116667Y-99049366D01*
X127116667Y-99049366D02*
X127183333Y-99082700D01*
X127183333Y-99082700D02*
X127450000Y-99082700D01*
X126783333Y-98782700D02*
X126750000Y-98749366D01*
X126750000Y-98749366D02*
X126683333Y-98716033D01*
X126683333Y-98716033D02*
X126516667Y-98716033D01*
X126516667Y-98716033D02*
X126450000Y-98749366D01*
X126450000Y-98749366D02*
X126416667Y-98782700D01*
X126416667Y-98782700D02*
X126383333Y-98849366D01*
X126383333Y-98849366D02*
X126383333Y-98916033D01*
X126383333Y-98916033D02*
X126416667Y-99016033D01*
X126416667Y-99016033D02*
X126816667Y-99416033D01*
X126816667Y-99416033D02*
X126383333Y-99416033D01*
X125750000Y-98716033D02*
X126083333Y-98716033D01*
X126083333Y-98716033D02*
X126116666Y-99049366D01*
X126116666Y-99049366D02*
X126083333Y-99016033D01*
X126083333Y-99016033D02*
X126016666Y-98982700D01*
X126016666Y-98982700D02*
X125850000Y-98982700D01*
X125850000Y-98982700D02*
X125783333Y-99016033D01*
X125783333Y-99016033D02*
X125750000Y-99049366D01*
X125750000Y-99049366D02*
X125716666Y-99116033D01*
X125716666Y-99116033D02*
X125716666Y-99282700D01*
X125716666Y-99282700D02*
X125750000Y-99349366D01*
X125750000Y-99349366D02*
X125783333Y-99382700D01*
X125783333Y-99382700D02*
X125850000Y-99416033D01*
X125850000Y-99416033D02*
X126016666Y-99416033D01*
X126016666Y-99416033D02*
X126083333Y-99382700D01*
X126083333Y-99382700D02*
X126116666Y-99349366D01*
X120110819Y-147458142D02*
X119634628Y-147124809D01*
X120110819Y-146886714D02*
X119110819Y-146886714D01*
X119110819Y-146886714D02*
X119110819Y-147267666D01*
X119110819Y-147267666D02*
X119158438Y-147362904D01*
X119158438Y-147362904D02*
X119206057Y-147410523D01*
X119206057Y-147410523D02*
X119301295Y-147458142D01*
X119301295Y-147458142D02*
X119444152Y-147458142D01*
X119444152Y-147458142D02*
X119539390Y-147410523D01*
X119539390Y-147410523D02*
X119587009Y-147362904D01*
X119587009Y-147362904D02*
X119634628Y-147267666D01*
X119634628Y-147267666D02*
X119634628Y-146886714D01*
X120110819Y-148410523D02*
X120110819Y-147839095D01*
X120110819Y-148124809D02*
X119110819Y-148124809D01*
X119110819Y-148124809D02*
X119253676Y-148029571D01*
X119253676Y-148029571D02*
X119348914Y-147934333D01*
X119348914Y-147934333D02*
X119396533Y-147839095D01*
X119539390Y-148981952D02*
X119491771Y-148886714D01*
X119491771Y-148886714D02*
X119444152Y-148839095D01*
X119444152Y-148839095D02*
X119348914Y-148791476D01*
X119348914Y-148791476D02*
X119301295Y-148791476D01*
X119301295Y-148791476D02*
X119206057Y-148839095D01*
X119206057Y-148839095D02*
X119158438Y-148886714D01*
X119158438Y-148886714D02*
X119110819Y-148981952D01*
X119110819Y-148981952D02*
X119110819Y-149172428D01*
X119110819Y-149172428D02*
X119158438Y-149267666D01*
X119158438Y-149267666D02*
X119206057Y-149315285D01*
X119206057Y-149315285D02*
X119301295Y-149362904D01*
X119301295Y-149362904D02*
X119348914Y-149362904D01*
X119348914Y-149362904D02*
X119444152Y-149315285D01*
X119444152Y-149315285D02*
X119491771Y-149267666D01*
X119491771Y-149267666D02*
X119539390Y-149172428D01*
X119539390Y-149172428D02*
X119539390Y-148981952D01*
X119539390Y-148981952D02*
X119587009Y-148886714D01*
X119587009Y-148886714D02*
X119634628Y-148839095D01*
X119634628Y-148839095D02*
X119729866Y-148791476D01*
X119729866Y-148791476D02*
X119920342Y-148791476D01*
X119920342Y-148791476D02*
X120015580Y-148839095D01*
X120015580Y-148839095D02*
X120063200Y-148886714D01*
X120063200Y-148886714D02*
X120110819Y-148981952D01*
X120110819Y-148981952D02*
X120110819Y-149172428D01*
X120110819Y-149172428D02*
X120063200Y-149267666D01*
X120063200Y-149267666D02*
X120015580Y-149315285D01*
X120015580Y-149315285D02*
X119920342Y-149362904D01*
X119920342Y-149362904D02*
X119729866Y-149362904D01*
X119729866Y-149362904D02*
X119634628Y-149315285D01*
X119634628Y-149315285D02*
X119587009Y-149267666D01*
X119587009Y-149267666D02*
X119539390Y-149172428D01*
X81932357Y-112734580D02*
X81979976Y-112782200D01*
X81979976Y-112782200D02*
X82122833Y-112829819D01*
X82122833Y-112829819D02*
X82218071Y-112829819D01*
X82218071Y-112829819D02*
X82360928Y-112782200D01*
X82360928Y-112782200D02*
X82456166Y-112686961D01*
X82456166Y-112686961D02*
X82503785Y-112591723D01*
X82503785Y-112591723D02*
X82551404Y-112401247D01*
X82551404Y-112401247D02*
X82551404Y-112258390D01*
X82551404Y-112258390D02*
X82503785Y-112067914D01*
X82503785Y-112067914D02*
X82456166Y-111972676D01*
X82456166Y-111972676D02*
X82360928Y-111877438D01*
X82360928Y-111877438D02*
X82218071Y-111829819D01*
X82218071Y-111829819D02*
X82122833Y-111829819D01*
X82122833Y-111829819D02*
X81979976Y-111877438D01*
X81979976Y-111877438D02*
X81932357Y-111925057D01*
X81075214Y-112163152D02*
X81075214Y-112829819D01*
X81313309Y-111782200D02*
X81551404Y-112496485D01*
X81551404Y-112496485D02*
X80932357Y-112496485D01*
X80360928Y-111829819D02*
X80265690Y-111829819D01*
X80265690Y-111829819D02*
X80170452Y-111877438D01*
X80170452Y-111877438D02*
X80122833Y-111925057D01*
X80122833Y-111925057D02*
X80075214Y-112020295D01*
X80075214Y-112020295D02*
X80027595Y-112210771D01*
X80027595Y-112210771D02*
X80027595Y-112448866D01*
X80027595Y-112448866D02*
X80075214Y-112639342D01*
X80075214Y-112639342D02*
X80122833Y-112734580D01*
X80122833Y-112734580D02*
X80170452Y-112782200D01*
X80170452Y-112782200D02*
X80265690Y-112829819D01*
X80265690Y-112829819D02*
X80360928Y-112829819D01*
X80360928Y-112829819D02*
X80456166Y-112782200D01*
X80456166Y-112782200D02*
X80503785Y-112734580D01*
X80503785Y-112734580D02*
X80551404Y-112639342D01*
X80551404Y-112639342D02*
X80599023Y-112448866D01*
X80599023Y-112448866D02*
X80599023Y-112210771D01*
X80599023Y-112210771D02*
X80551404Y-112020295D01*
X80551404Y-112020295D02*
X80503785Y-111925057D01*
X80503785Y-111925057D02*
X80456166Y-111877438D01*
X80456166Y-111877438D02*
X80360928Y-111829819D01*
X129954819Y-155666666D02*
X130669104Y-155666666D01*
X130669104Y-155666666D02*
X130811961Y-155619047D01*
X130811961Y-155619047D02*
X130907200Y-155523809D01*
X130907200Y-155523809D02*
X130954819Y-155380952D01*
X130954819Y-155380952D02*
X130954819Y-155285714D01*
X130954819Y-156666666D02*
X130954819Y-156095238D01*
X130954819Y-156380952D02*
X129954819Y-156380952D01*
X129954819Y-156380952D02*
X130097676Y-156285714D01*
X130097676Y-156285714D02*
X130192914Y-156190476D01*
X130192914Y-156190476D02*
X130240533Y-156095238D01*
X125951166Y-120114033D02*
X126184499Y-119780700D01*
X126351166Y-120114033D02*
X126351166Y-119414033D01*
X126351166Y-119414033D02*
X126084499Y-119414033D01*
X126084499Y-119414033D02*
X126017833Y-119447366D01*
X126017833Y-119447366D02*
X125984499Y-119480700D01*
X125984499Y-119480700D02*
X125951166Y-119547366D01*
X125951166Y-119547366D02*
X125951166Y-119647366D01*
X125951166Y-119647366D02*
X125984499Y-119714033D01*
X125984499Y-119714033D02*
X126017833Y-119747366D01*
X126017833Y-119747366D02*
X126084499Y-119780700D01*
X126084499Y-119780700D02*
X126351166Y-119780700D01*
X125717833Y-119414033D02*
X125284499Y-119414033D01*
X125284499Y-119414033D02*
X125517833Y-119680700D01*
X125517833Y-119680700D02*
X125417833Y-119680700D01*
X125417833Y-119680700D02*
X125351166Y-119714033D01*
X125351166Y-119714033D02*
X125317833Y-119747366D01*
X125317833Y-119747366D02*
X125284499Y-119814033D01*
X125284499Y-119814033D02*
X125284499Y-119980700D01*
X125284499Y-119980700D02*
X125317833Y-120047366D01*
X125317833Y-120047366D02*
X125351166Y-120080700D01*
X125351166Y-120080700D02*
X125417833Y-120114033D01*
X125417833Y-120114033D02*
X125617833Y-120114033D01*
X125617833Y-120114033D02*
X125684499Y-120080700D01*
X125684499Y-120080700D02*
X125717833Y-120047366D01*
X120138857Y-151094580D02*
X120186476Y-151142200D01*
X120186476Y-151142200D02*
X120329333Y-151189819D01*
X120329333Y-151189819D02*
X120424571Y-151189819D01*
X120424571Y-151189819D02*
X120567428Y-151142200D01*
X120567428Y-151142200D02*
X120662666Y-151046961D01*
X120662666Y-151046961D02*
X120710285Y-150951723D01*
X120710285Y-150951723D02*
X120757904Y-150761247D01*
X120757904Y-150761247D02*
X120757904Y-150618390D01*
X120757904Y-150618390D02*
X120710285Y-150427914D01*
X120710285Y-150427914D02*
X120662666Y-150332676D01*
X120662666Y-150332676D02*
X120567428Y-150237438D01*
X120567428Y-150237438D02*
X120424571Y-150189819D01*
X120424571Y-150189819D02*
X120329333Y-150189819D01*
X120329333Y-150189819D02*
X120186476Y-150237438D01*
X120186476Y-150237438D02*
X120138857Y-150285057D01*
X119281714Y-150523152D02*
X119281714Y-151189819D01*
X119519809Y-150142200D02*
X119757904Y-150856485D01*
X119757904Y-150856485D02*
X119138857Y-150856485D01*
X118615047Y-150618390D02*
X118710285Y-150570771D01*
X118710285Y-150570771D02*
X118757904Y-150523152D01*
X118757904Y-150523152D02*
X118805523Y-150427914D01*
X118805523Y-150427914D02*
X118805523Y-150380295D01*
X118805523Y-150380295D02*
X118757904Y-150285057D01*
X118757904Y-150285057D02*
X118710285Y-150237438D01*
X118710285Y-150237438D02*
X118615047Y-150189819D01*
X118615047Y-150189819D02*
X118424571Y-150189819D01*
X118424571Y-150189819D02*
X118329333Y-150237438D01*
X118329333Y-150237438D02*
X118281714Y-150285057D01*
X118281714Y-150285057D02*
X118234095Y-150380295D01*
X118234095Y-150380295D02*
X118234095Y-150427914D01*
X118234095Y-150427914D02*
X118281714Y-150523152D01*
X118281714Y-150523152D02*
X118329333Y-150570771D01*
X118329333Y-150570771D02*
X118424571Y-150618390D01*
X118424571Y-150618390D02*
X118615047Y-150618390D01*
X118615047Y-150618390D02*
X118710285Y-150666009D01*
X118710285Y-150666009D02*
X118757904Y-150713628D01*
X118757904Y-150713628D02*
X118805523Y-150808866D01*
X118805523Y-150808866D02*
X118805523Y-150999342D01*
X118805523Y-150999342D02*
X118757904Y-151094580D01*
X118757904Y-151094580D02*
X118710285Y-151142200D01*
X118710285Y-151142200D02*
X118615047Y-151189819D01*
X118615047Y-151189819D02*
X118424571Y-151189819D01*
X118424571Y-151189819D02*
X118329333Y-151142200D01*
X118329333Y-151142200D02*
X118281714Y-151094580D01*
X118281714Y-151094580D02*
X118234095Y-150999342D01*
X118234095Y-150999342D02*
X118234095Y-150808866D01*
X118234095Y-150808866D02*
X118281714Y-150713628D01*
X118281714Y-150713628D02*
X118329333Y-150666009D01*
X118329333Y-150666009D02*
X118424571Y-150618390D01*
X116716033Y-109549999D02*
X116382700Y-109316666D01*
X116716033Y-109149999D02*
X116016033Y-109149999D01*
X116016033Y-109149999D02*
X116016033Y-109416666D01*
X116016033Y-109416666D02*
X116049366Y-109483333D01*
X116049366Y-109483333D02*
X116082700Y-109516666D01*
X116082700Y-109516666D02*
X116149366Y-109549999D01*
X116149366Y-109549999D02*
X116249366Y-109549999D01*
X116249366Y-109549999D02*
X116316033Y-109516666D01*
X116316033Y-109516666D02*
X116349366Y-109483333D01*
X116349366Y-109483333D02*
X116382700Y-109416666D01*
X116382700Y-109416666D02*
X116382700Y-109149999D01*
X116716033Y-110216666D02*
X116716033Y-109816666D01*
X116716033Y-110016666D02*
X116016033Y-110016666D01*
X116016033Y-110016666D02*
X116116033Y-109949999D01*
X116116033Y-109949999D02*
X116182700Y-109883333D01*
X116182700Y-109883333D02*
X116216033Y-109816666D01*
X116082700Y-110483333D02*
X116049366Y-110516666D01*
X116049366Y-110516666D02*
X116016033Y-110583333D01*
X116016033Y-110583333D02*
X116016033Y-110750000D01*
X116016033Y-110750000D02*
X116049366Y-110816666D01*
X116049366Y-110816666D02*
X116082700Y-110850000D01*
X116082700Y-110850000D02*
X116149366Y-110883333D01*
X116149366Y-110883333D02*
X116216033Y-110883333D01*
X116216033Y-110883333D02*
X116316033Y-110850000D01*
X116316033Y-110850000D02*
X116716033Y-110450000D01*
X116716033Y-110450000D02*
X116716033Y-110883333D01*
X120872819Y-128328142D02*
X120396628Y-127994809D01*
X120872819Y-127756714D02*
X119872819Y-127756714D01*
X119872819Y-127756714D02*
X119872819Y-128137666D01*
X119872819Y-128137666D02*
X119920438Y-128232904D01*
X119920438Y-128232904D02*
X119968057Y-128280523D01*
X119968057Y-128280523D02*
X120063295Y-128328142D01*
X120063295Y-128328142D02*
X120206152Y-128328142D01*
X120206152Y-128328142D02*
X120301390Y-128280523D01*
X120301390Y-128280523D02*
X120349009Y-128232904D01*
X120349009Y-128232904D02*
X120396628Y-128137666D01*
X120396628Y-128137666D02*
X120396628Y-127756714D01*
X120872819Y-129280523D02*
X120872819Y-128709095D01*
X120872819Y-128994809D02*
X119872819Y-128994809D01*
X119872819Y-128994809D02*
X120015676Y-128899571D01*
X120015676Y-128899571D02*
X120110914Y-128804333D01*
X120110914Y-128804333D02*
X120158533Y-128709095D01*
X119872819Y-130185285D02*
X119872819Y-129709095D01*
X119872819Y-129709095D02*
X120349009Y-129661476D01*
X120349009Y-129661476D02*
X120301390Y-129709095D01*
X120301390Y-129709095D02*
X120253771Y-129804333D01*
X120253771Y-129804333D02*
X120253771Y-130042428D01*
X120253771Y-130042428D02*
X120301390Y-130137666D01*
X120301390Y-130137666D02*
X120349009Y-130185285D01*
X120349009Y-130185285D02*
X120444247Y-130232904D01*
X120444247Y-130232904D02*
X120682342Y-130232904D01*
X120682342Y-130232904D02*
X120777580Y-130185285D01*
X120777580Y-130185285D02*
X120825200Y-130137666D01*
X120825200Y-130137666D02*
X120872819Y-130042428D01*
X120872819Y-130042428D02*
X120872819Y-129804333D01*
X120872819Y-129804333D02*
X120825200Y-129709095D01*
X120825200Y-129709095D02*
X120777580Y-129661476D01*
D11*
X102217333Y-71949999D02*
X101884000Y-71716666D01*
X102217333Y-71549999D02*
X101517333Y-71549999D01*
X101517333Y-71549999D02*
X101517333Y-71816666D01*
X101517333Y-71816666D02*
X101550666Y-71883333D01*
X101550666Y-71883333D02*
X101584000Y-71916666D01*
X101584000Y-71916666D02*
X101650666Y-71949999D01*
X101650666Y-71949999D02*
X101750666Y-71949999D01*
X101750666Y-71949999D02*
X101817333Y-71916666D01*
X101817333Y-71916666D02*
X101850666Y-71883333D01*
X101850666Y-71883333D02*
X101884000Y-71816666D01*
X101884000Y-71816666D02*
X101884000Y-71549999D01*
X101584000Y-72216666D02*
X101550666Y-72249999D01*
X101550666Y-72249999D02*
X101517333Y-72316666D01*
X101517333Y-72316666D02*
X101517333Y-72483333D01*
X101517333Y-72483333D02*
X101550666Y-72549999D01*
X101550666Y-72549999D02*
X101584000Y-72583333D01*
X101584000Y-72583333D02*
X101650666Y-72616666D01*
X101650666Y-72616666D02*
X101717333Y-72616666D01*
X101717333Y-72616666D02*
X101817333Y-72583333D01*
X101817333Y-72583333D02*
X102217333Y-72183333D01*
X102217333Y-72183333D02*
X102217333Y-72616666D01*
X101584000Y-72883333D02*
X101550666Y-72916666D01*
X101550666Y-72916666D02*
X101517333Y-72983333D01*
X101517333Y-72983333D02*
X101517333Y-73150000D01*
X101517333Y-73150000D02*
X101550666Y-73216666D01*
X101550666Y-73216666D02*
X101584000Y-73250000D01*
X101584000Y-73250000D02*
X101650666Y-73283333D01*
X101650666Y-73283333D02*
X101717333Y-73283333D01*
X101717333Y-73283333D02*
X101817333Y-73250000D01*
X101817333Y-73250000D02*
X102217333Y-72850000D01*
X102217333Y-72850000D02*
X102217333Y-73283333D01*
D10*
X81270857Y-132372580D02*
X81318476Y-132420200D01*
X81318476Y-132420200D02*
X81461333Y-132467819D01*
X81461333Y-132467819D02*
X81556571Y-132467819D01*
X81556571Y-132467819D02*
X81699428Y-132420200D01*
X81699428Y-132420200D02*
X81794666Y-132324961D01*
X81794666Y-132324961D02*
X81842285Y-132229723D01*
X81842285Y-132229723D02*
X81889904Y-132039247D01*
X81889904Y-132039247D02*
X81889904Y-131896390D01*
X81889904Y-131896390D02*
X81842285Y-131705914D01*
X81842285Y-131705914D02*
X81794666Y-131610676D01*
X81794666Y-131610676D02*
X81699428Y-131515438D01*
X81699428Y-131515438D02*
X81556571Y-131467819D01*
X81556571Y-131467819D02*
X81461333Y-131467819D01*
X81461333Y-131467819D02*
X81318476Y-131515438D01*
X81318476Y-131515438D02*
X81270857Y-131563057D01*
X80413714Y-131801152D02*
X80413714Y-132467819D01*
X80651809Y-131420200D02*
X80889904Y-132134485D01*
X80889904Y-132134485D02*
X80270857Y-132134485D01*
X79985142Y-131467819D02*
X79366095Y-131467819D01*
X79366095Y-131467819D02*
X79699428Y-131848771D01*
X79699428Y-131848771D02*
X79556571Y-131848771D01*
X79556571Y-131848771D02*
X79461333Y-131896390D01*
X79461333Y-131896390D02*
X79413714Y-131944009D01*
X79413714Y-131944009D02*
X79366095Y-132039247D01*
X79366095Y-132039247D02*
X79366095Y-132277342D01*
X79366095Y-132277342D02*
X79413714Y-132372580D01*
X79413714Y-132372580D02*
X79461333Y-132420200D01*
X79461333Y-132420200D02*
X79556571Y-132467819D01*
X79556571Y-132467819D02*
X79842285Y-132467819D01*
X79842285Y-132467819D02*
X79937523Y-132420200D01*
X79937523Y-132420200D02*
X79985142Y-132372580D01*
X113899283Y-67783333D02*
X113565950Y-67550000D01*
X113899283Y-67383333D02*
X113199283Y-67383333D01*
X113199283Y-67383333D02*
X113199283Y-67650000D01*
X113199283Y-67650000D02*
X113232616Y-67716667D01*
X113232616Y-67716667D02*
X113265950Y-67750000D01*
X113265950Y-67750000D02*
X113332616Y-67783333D01*
X113332616Y-67783333D02*
X113432616Y-67783333D01*
X113432616Y-67783333D02*
X113499283Y-67750000D01*
X113499283Y-67750000D02*
X113532616Y-67716667D01*
X113532616Y-67716667D02*
X113565950Y-67650000D01*
X113565950Y-67650000D02*
X113565950Y-67383333D01*
X113199283Y-68383333D02*
X113199283Y-68250000D01*
X113199283Y-68250000D02*
X113232616Y-68183333D01*
X113232616Y-68183333D02*
X113265950Y-68150000D01*
X113265950Y-68150000D02*
X113365950Y-68083333D01*
X113365950Y-68083333D02*
X113499283Y-68050000D01*
X113499283Y-68050000D02*
X113765950Y-68050000D01*
X113765950Y-68050000D02*
X113832616Y-68083333D01*
X113832616Y-68083333D02*
X113865950Y-68116667D01*
X113865950Y-68116667D02*
X113899283Y-68183333D01*
X113899283Y-68183333D02*
X113899283Y-68316667D01*
X113899283Y-68316667D02*
X113865950Y-68383333D01*
X113865950Y-68383333D02*
X113832616Y-68416667D01*
X113832616Y-68416667D02*
X113765950Y-68450000D01*
X113765950Y-68450000D02*
X113599283Y-68450000D01*
X113599283Y-68450000D02*
X113532616Y-68416667D01*
X113532616Y-68416667D02*
X113499283Y-68383333D01*
X113499283Y-68383333D02*
X113465950Y-68316667D01*
X113465950Y-68316667D02*
X113465950Y-68183333D01*
X113465950Y-68183333D02*
X113499283Y-68116667D01*
X113499283Y-68116667D02*
X113532616Y-68083333D01*
X113532616Y-68083333D02*
X113599283Y-68050000D01*
X126649366Y-129349999D02*
X126682700Y-129316666D01*
X126682700Y-129316666D02*
X126716033Y-129216666D01*
X126716033Y-129216666D02*
X126716033Y-129149999D01*
X126716033Y-129149999D02*
X126682700Y-129049999D01*
X126682700Y-129049999D02*
X126616033Y-128983333D01*
X126616033Y-128983333D02*
X126549366Y-128949999D01*
X126549366Y-128949999D02*
X126416033Y-128916666D01*
X126416033Y-128916666D02*
X126316033Y-128916666D01*
X126316033Y-128916666D02*
X126182700Y-128949999D01*
X126182700Y-128949999D02*
X126116033Y-128983333D01*
X126116033Y-128983333D02*
X126049366Y-129049999D01*
X126049366Y-129049999D02*
X126016033Y-129149999D01*
X126016033Y-129149999D02*
X126016033Y-129216666D01*
X126016033Y-129216666D02*
X126049366Y-129316666D01*
X126049366Y-129316666D02*
X126082700Y-129349999D01*
X126716033Y-130016666D02*
X126716033Y-129616666D01*
X126716033Y-129816666D02*
X126016033Y-129816666D01*
X126016033Y-129816666D02*
X126116033Y-129749999D01*
X126116033Y-129749999D02*
X126182700Y-129683333D01*
X126182700Y-129683333D02*
X126216033Y-129616666D01*
X126716033Y-130350000D02*
X126716033Y-130483333D01*
X126716033Y-130483333D02*
X126682700Y-130550000D01*
X126682700Y-130550000D02*
X126649366Y-130583333D01*
X126649366Y-130583333D02*
X126549366Y-130650000D01*
X126549366Y-130650000D02*
X126416033Y-130683333D01*
X126416033Y-130683333D02*
X126149366Y-130683333D01*
X126149366Y-130683333D02*
X126082700Y-130650000D01*
X126082700Y-130650000D02*
X126049366Y-130616666D01*
X126049366Y-130616666D02*
X126016033Y-130550000D01*
X126016033Y-130550000D02*
X126016033Y-130416666D01*
X126016033Y-130416666D02*
X126049366Y-130350000D01*
X126049366Y-130350000D02*
X126082700Y-130316666D01*
X126082700Y-130316666D02*
X126149366Y-130283333D01*
X126149366Y-130283333D02*
X126316033Y-130283333D01*
X126316033Y-130283333D02*
X126382700Y-130316666D01*
X126382700Y-130316666D02*
X126416033Y-130350000D01*
X126416033Y-130350000D02*
X126449366Y-130416666D01*
X126449366Y-130416666D02*
X126449366Y-130550000D01*
X126449366Y-130550000D02*
X126416033Y-130616666D01*
X126416033Y-130616666D02*
X126382700Y-130650000D01*
X126382700Y-130650000D02*
X126316033Y-130683333D01*
X124450000Y-90649366D02*
X124483333Y-90682700D01*
X124483333Y-90682700D02*
X124583333Y-90716033D01*
X124583333Y-90716033D02*
X124650000Y-90716033D01*
X124650000Y-90716033D02*
X124750000Y-90682700D01*
X124750000Y-90682700D02*
X124816667Y-90616033D01*
X124816667Y-90616033D02*
X124850000Y-90549366D01*
X124850000Y-90549366D02*
X124883333Y-90416033D01*
X124883333Y-90416033D02*
X124883333Y-90316033D01*
X124883333Y-90316033D02*
X124850000Y-90182700D01*
X124850000Y-90182700D02*
X124816667Y-90116033D01*
X124816667Y-90116033D02*
X124750000Y-90049366D01*
X124750000Y-90049366D02*
X124650000Y-90016033D01*
X124650000Y-90016033D02*
X124583333Y-90016033D01*
X124583333Y-90016033D02*
X124483333Y-90049366D01*
X124483333Y-90049366D02*
X124450000Y-90082700D01*
X123783333Y-90716033D02*
X124183333Y-90716033D01*
X123983333Y-90716033D02*
X123983333Y-90016033D01*
X123983333Y-90016033D02*
X124050000Y-90116033D01*
X124050000Y-90116033D02*
X124116667Y-90182700D01*
X124116667Y-90182700D02*
X124183333Y-90216033D01*
X123350000Y-90016033D02*
X123283333Y-90016033D01*
X123283333Y-90016033D02*
X123216666Y-90049366D01*
X123216666Y-90049366D02*
X123183333Y-90082700D01*
X123183333Y-90082700D02*
X123150000Y-90149366D01*
X123150000Y-90149366D02*
X123116666Y-90282700D01*
X123116666Y-90282700D02*
X123116666Y-90449366D01*
X123116666Y-90449366D02*
X123150000Y-90582700D01*
X123150000Y-90582700D02*
X123183333Y-90649366D01*
X123183333Y-90649366D02*
X123216666Y-90682700D01*
X123216666Y-90682700D02*
X123283333Y-90716033D01*
X123283333Y-90716033D02*
X123350000Y-90716033D01*
X123350000Y-90716033D02*
X123416666Y-90682700D01*
X123416666Y-90682700D02*
X123450000Y-90649366D01*
X123450000Y-90649366D02*
X123483333Y-90582700D01*
X123483333Y-90582700D02*
X123516666Y-90449366D01*
X123516666Y-90449366D02*
X123516666Y-90282700D01*
X123516666Y-90282700D02*
X123483333Y-90149366D01*
X123483333Y-90149366D02*
X123450000Y-90082700D01*
X123450000Y-90082700D02*
X123416666Y-90049366D01*
X123416666Y-90049366D02*
X123350000Y-90016033D01*
X107679166Y-72279366D02*
X107712499Y-72312700D01*
X107712499Y-72312700D02*
X107812499Y-72346033D01*
X107812499Y-72346033D02*
X107879166Y-72346033D01*
X107879166Y-72346033D02*
X107979166Y-72312700D01*
X107979166Y-72312700D02*
X108045833Y-72246033D01*
X108045833Y-72246033D02*
X108079166Y-72179366D01*
X108079166Y-72179366D02*
X108112499Y-72046033D01*
X108112499Y-72046033D02*
X108112499Y-71946033D01*
X108112499Y-71946033D02*
X108079166Y-71812700D01*
X108079166Y-71812700D02*
X108045833Y-71746033D01*
X108045833Y-71746033D02*
X107979166Y-71679366D01*
X107979166Y-71679366D02*
X107879166Y-71646033D01*
X107879166Y-71646033D02*
X107812499Y-71646033D01*
X107812499Y-71646033D02*
X107712499Y-71679366D01*
X107712499Y-71679366D02*
X107679166Y-71712700D01*
X107045833Y-71646033D02*
X107379166Y-71646033D01*
X107379166Y-71646033D02*
X107412499Y-71979366D01*
X107412499Y-71979366D02*
X107379166Y-71946033D01*
X107379166Y-71946033D02*
X107312499Y-71912700D01*
X107312499Y-71912700D02*
X107145833Y-71912700D01*
X107145833Y-71912700D02*
X107079166Y-71946033D01*
X107079166Y-71946033D02*
X107045833Y-71979366D01*
X107045833Y-71979366D02*
X107012499Y-72046033D01*
X107012499Y-72046033D02*
X107012499Y-72212700D01*
X107012499Y-72212700D02*
X107045833Y-72279366D01*
X107045833Y-72279366D02*
X107079166Y-72312700D01*
X107079166Y-72312700D02*
X107145833Y-72346033D01*
X107145833Y-72346033D02*
X107312499Y-72346033D01*
X107312499Y-72346033D02*
X107379166Y-72312700D01*
X107379166Y-72312700D02*
X107412499Y-72279366D01*
X132416033Y-132749999D02*
X132082700Y-132516666D01*
X132416033Y-132349999D02*
X131716033Y-132349999D01*
X131716033Y-132349999D02*
X131716033Y-132616666D01*
X131716033Y-132616666D02*
X131749366Y-132683333D01*
X131749366Y-132683333D02*
X131782700Y-132716666D01*
X131782700Y-132716666D02*
X131849366Y-132749999D01*
X131849366Y-132749999D02*
X131949366Y-132749999D01*
X131949366Y-132749999D02*
X132016033Y-132716666D01*
X132016033Y-132716666D02*
X132049366Y-132683333D01*
X132049366Y-132683333D02*
X132082700Y-132616666D01*
X132082700Y-132616666D02*
X132082700Y-132349999D01*
X131716033Y-132983333D02*
X131716033Y-133416666D01*
X131716033Y-133416666D02*
X131982700Y-133183333D01*
X131982700Y-133183333D02*
X131982700Y-133283333D01*
X131982700Y-133283333D02*
X132016033Y-133349999D01*
X132016033Y-133349999D02*
X132049366Y-133383333D01*
X132049366Y-133383333D02*
X132116033Y-133416666D01*
X132116033Y-133416666D02*
X132282700Y-133416666D01*
X132282700Y-133416666D02*
X132349366Y-133383333D01*
X132349366Y-133383333D02*
X132382700Y-133349999D01*
X132382700Y-133349999D02*
X132416033Y-133283333D01*
X132416033Y-133283333D02*
X132416033Y-133083333D01*
X132416033Y-133083333D02*
X132382700Y-133016666D01*
X132382700Y-133016666D02*
X132349366Y-132983333D01*
X131716033Y-133850000D02*
X131716033Y-133916666D01*
X131716033Y-133916666D02*
X131749366Y-133983333D01*
X131749366Y-133983333D02*
X131782700Y-134016666D01*
X131782700Y-134016666D02*
X131849366Y-134050000D01*
X131849366Y-134050000D02*
X131982700Y-134083333D01*
X131982700Y-134083333D02*
X132149366Y-134083333D01*
X132149366Y-134083333D02*
X132282700Y-134050000D01*
X132282700Y-134050000D02*
X132349366Y-134016666D01*
X132349366Y-134016666D02*
X132382700Y-133983333D01*
X132382700Y-133983333D02*
X132416033Y-133916666D01*
X132416033Y-133916666D02*
X132416033Y-133850000D01*
X132416033Y-133850000D02*
X132382700Y-133783333D01*
X132382700Y-133783333D02*
X132349366Y-133750000D01*
X132349366Y-133750000D02*
X132282700Y-133716666D01*
X132282700Y-133716666D02*
X132149366Y-133683333D01*
X132149366Y-133683333D02*
X131982700Y-133683333D01*
X131982700Y-133683333D02*
X131849366Y-133716666D01*
X131849366Y-133716666D02*
X131782700Y-133750000D01*
X131782700Y-133750000D02*
X131749366Y-133783333D01*
X131749366Y-133783333D02*
X131716033Y-133850000D01*
X124616033Y-121783333D02*
X124282700Y-121550000D01*
X124616033Y-121383333D02*
X123916033Y-121383333D01*
X123916033Y-121383333D02*
X123916033Y-121650000D01*
X123916033Y-121650000D02*
X123949366Y-121716667D01*
X123949366Y-121716667D02*
X123982700Y-121750000D01*
X123982700Y-121750000D02*
X124049366Y-121783333D01*
X124049366Y-121783333D02*
X124149366Y-121783333D01*
X124149366Y-121783333D02*
X124216033Y-121750000D01*
X124216033Y-121750000D02*
X124249366Y-121716667D01*
X124249366Y-121716667D02*
X124282700Y-121650000D01*
X124282700Y-121650000D02*
X124282700Y-121383333D01*
X123982700Y-122050000D02*
X123949366Y-122083333D01*
X123949366Y-122083333D02*
X123916033Y-122150000D01*
X123916033Y-122150000D02*
X123916033Y-122316667D01*
X123916033Y-122316667D02*
X123949366Y-122383333D01*
X123949366Y-122383333D02*
X123982700Y-122416667D01*
X123982700Y-122416667D02*
X124049366Y-122450000D01*
X124049366Y-122450000D02*
X124116033Y-122450000D01*
X124116033Y-122450000D02*
X124216033Y-122416667D01*
X124216033Y-122416667D02*
X124616033Y-122016667D01*
X124616033Y-122016667D02*
X124616033Y-122450000D01*
X121816033Y-92751999D02*
X121482700Y-92518666D01*
X121816033Y-92351999D02*
X121116033Y-92351999D01*
X121116033Y-92351999D02*
X121116033Y-92618666D01*
X121116033Y-92618666D02*
X121149366Y-92685333D01*
X121149366Y-92685333D02*
X121182700Y-92718666D01*
X121182700Y-92718666D02*
X121249366Y-92751999D01*
X121249366Y-92751999D02*
X121349366Y-92751999D01*
X121349366Y-92751999D02*
X121416033Y-92718666D01*
X121416033Y-92718666D02*
X121449366Y-92685333D01*
X121449366Y-92685333D02*
X121482700Y-92618666D01*
X121482700Y-92618666D02*
X121482700Y-92351999D01*
X121182700Y-93018666D02*
X121149366Y-93051999D01*
X121149366Y-93051999D02*
X121116033Y-93118666D01*
X121116033Y-93118666D02*
X121116033Y-93285333D01*
X121116033Y-93285333D02*
X121149366Y-93351999D01*
X121149366Y-93351999D02*
X121182700Y-93385333D01*
X121182700Y-93385333D02*
X121249366Y-93418666D01*
X121249366Y-93418666D02*
X121316033Y-93418666D01*
X121316033Y-93418666D02*
X121416033Y-93385333D01*
X121416033Y-93385333D02*
X121816033Y-92985333D01*
X121816033Y-92985333D02*
X121816033Y-93418666D01*
X121349366Y-94018666D02*
X121816033Y-94018666D01*
X121082700Y-93852000D02*
X121582700Y-93685333D01*
X121582700Y-93685333D02*
X121582700Y-94118666D01*
X82132857Y-150994580D02*
X82180476Y-151042200D01*
X82180476Y-151042200D02*
X82323333Y-151089819D01*
X82323333Y-151089819D02*
X82418571Y-151089819D01*
X82418571Y-151089819D02*
X82561428Y-151042200D01*
X82561428Y-151042200D02*
X82656666Y-150946961D01*
X82656666Y-150946961D02*
X82704285Y-150851723D01*
X82704285Y-150851723D02*
X82751904Y-150661247D01*
X82751904Y-150661247D02*
X82751904Y-150518390D01*
X82751904Y-150518390D02*
X82704285Y-150327914D01*
X82704285Y-150327914D02*
X82656666Y-150232676D01*
X82656666Y-150232676D02*
X82561428Y-150137438D01*
X82561428Y-150137438D02*
X82418571Y-150089819D01*
X82418571Y-150089819D02*
X82323333Y-150089819D01*
X82323333Y-150089819D02*
X82180476Y-150137438D01*
X82180476Y-150137438D02*
X82132857Y-150185057D01*
X81275714Y-150423152D02*
X81275714Y-151089819D01*
X81513809Y-150042200D02*
X81751904Y-150756485D01*
X81751904Y-150756485D02*
X81132857Y-150756485D01*
X80323333Y-150089819D02*
X80513809Y-150089819D01*
X80513809Y-150089819D02*
X80609047Y-150137438D01*
X80609047Y-150137438D02*
X80656666Y-150185057D01*
X80656666Y-150185057D02*
X80751904Y-150327914D01*
X80751904Y-150327914D02*
X80799523Y-150518390D01*
X80799523Y-150518390D02*
X80799523Y-150899342D01*
X80799523Y-150899342D02*
X80751904Y-150994580D01*
X80751904Y-150994580D02*
X80704285Y-151042200D01*
X80704285Y-151042200D02*
X80609047Y-151089819D01*
X80609047Y-151089819D02*
X80418571Y-151089819D01*
X80418571Y-151089819D02*
X80323333Y-151042200D01*
X80323333Y-151042200D02*
X80275714Y-150994580D01*
X80275714Y-150994580D02*
X80228095Y-150899342D01*
X80228095Y-150899342D02*
X80228095Y-150661247D01*
X80228095Y-150661247D02*
X80275714Y-150566009D01*
X80275714Y-150566009D02*
X80323333Y-150518390D01*
X80323333Y-150518390D02*
X80418571Y-150470771D01*
X80418571Y-150470771D02*
X80609047Y-150470771D01*
X80609047Y-150470771D02*
X80704285Y-150518390D01*
X80704285Y-150518390D02*
X80751904Y-150566009D01*
X80751904Y-150566009D02*
X80799523Y-150661247D01*
X100888857Y-131677580D02*
X100936476Y-131725200D01*
X100936476Y-131725200D02*
X101079333Y-131772819D01*
X101079333Y-131772819D02*
X101174571Y-131772819D01*
X101174571Y-131772819D02*
X101317428Y-131725200D01*
X101317428Y-131725200D02*
X101412666Y-131629961D01*
X101412666Y-131629961D02*
X101460285Y-131534723D01*
X101460285Y-131534723D02*
X101507904Y-131344247D01*
X101507904Y-131344247D02*
X101507904Y-131201390D01*
X101507904Y-131201390D02*
X101460285Y-131010914D01*
X101460285Y-131010914D02*
X101412666Y-130915676D01*
X101412666Y-130915676D02*
X101317428Y-130820438D01*
X101317428Y-130820438D02*
X101174571Y-130772819D01*
X101174571Y-130772819D02*
X101079333Y-130772819D01*
X101079333Y-130772819D02*
X100936476Y-130820438D01*
X100936476Y-130820438D02*
X100888857Y-130868057D01*
X100031714Y-131106152D02*
X100031714Y-131772819D01*
X100269809Y-130725200D02*
X100507904Y-131439485D01*
X100507904Y-131439485D02*
X99888857Y-131439485D01*
X99079333Y-131106152D02*
X99079333Y-131772819D01*
X99317428Y-130725200D02*
X99555523Y-131439485D01*
X99555523Y-131439485D02*
X98936476Y-131439485D01*
D11*
X78092809Y-91245666D02*
X77854714Y-91079000D01*
X78092809Y-90959952D02*
X77592809Y-90959952D01*
X77592809Y-90959952D02*
X77592809Y-91150428D01*
X77592809Y-91150428D02*
X77616619Y-91198047D01*
X77616619Y-91198047D02*
X77640428Y-91221857D01*
X77640428Y-91221857D02*
X77688047Y-91245666D01*
X77688047Y-91245666D02*
X77759476Y-91245666D01*
X77759476Y-91245666D02*
X77807095Y-91221857D01*
X77807095Y-91221857D02*
X77830904Y-91198047D01*
X77830904Y-91198047D02*
X77854714Y-91150428D01*
X77854714Y-91150428D02*
X77854714Y-90959952D01*
X77592809Y-91412333D02*
X77592809Y-91745666D01*
X77592809Y-91745666D02*
X78092809Y-91531381D01*
D10*
X111138094Y-105054819D02*
X111138094Y-105864342D01*
X111138094Y-105864342D02*
X111090475Y-105959580D01*
X111090475Y-105959580D02*
X111042856Y-106007200D01*
X111042856Y-106007200D02*
X110947618Y-106054819D01*
X110947618Y-106054819D02*
X110757142Y-106054819D01*
X110757142Y-106054819D02*
X110661904Y-106007200D01*
X110661904Y-106007200D02*
X110614285Y-105959580D01*
X110614285Y-105959580D02*
X110566666Y-105864342D01*
X110566666Y-105864342D02*
X110566666Y-105054819D01*
X110138094Y-105150057D02*
X110090475Y-105102438D01*
X110090475Y-105102438D02*
X109995237Y-105054819D01*
X109995237Y-105054819D02*
X109757142Y-105054819D01*
X109757142Y-105054819D02*
X109661904Y-105102438D01*
X109661904Y-105102438D02*
X109614285Y-105150057D01*
X109614285Y-105150057D02*
X109566666Y-105245295D01*
X109566666Y-105245295D02*
X109566666Y-105340533D01*
X109566666Y-105340533D02*
X109614285Y-105483390D01*
X109614285Y-105483390D02*
X110185713Y-106054819D01*
X110185713Y-106054819D02*
X109566666Y-106054819D01*
X108995237Y-105483390D02*
X109090475Y-105435771D01*
X109090475Y-105435771D02*
X109138094Y-105388152D01*
X109138094Y-105388152D02*
X109185713Y-105292914D01*
X109185713Y-105292914D02*
X109185713Y-105245295D01*
X109185713Y-105245295D02*
X109138094Y-105150057D01*
X109138094Y-105150057D02*
X109090475Y-105102438D01*
X109090475Y-105102438D02*
X108995237Y-105054819D01*
X108995237Y-105054819D02*
X108804761Y-105054819D01*
X108804761Y-105054819D02*
X108709523Y-105102438D01*
X108709523Y-105102438D02*
X108661904Y-105150057D01*
X108661904Y-105150057D02*
X108614285Y-105245295D01*
X108614285Y-105245295D02*
X108614285Y-105292914D01*
X108614285Y-105292914D02*
X108661904Y-105388152D01*
X108661904Y-105388152D02*
X108709523Y-105435771D01*
X108709523Y-105435771D02*
X108804761Y-105483390D01*
X108804761Y-105483390D02*
X108995237Y-105483390D01*
X108995237Y-105483390D02*
X109090475Y-105531009D01*
X109090475Y-105531009D02*
X109138094Y-105578628D01*
X109138094Y-105578628D02*
X109185713Y-105673866D01*
X109185713Y-105673866D02*
X109185713Y-105864342D01*
X109185713Y-105864342D02*
X109138094Y-105959580D01*
X109138094Y-105959580D02*
X109090475Y-106007200D01*
X109090475Y-106007200D02*
X108995237Y-106054819D01*
X108995237Y-106054819D02*
X108804761Y-106054819D01*
X108804761Y-106054819D02*
X108709523Y-106007200D01*
X108709523Y-106007200D02*
X108661904Y-105959580D01*
X108661904Y-105959580D02*
X108614285Y-105864342D01*
X108614285Y-105864342D02*
X108614285Y-105673866D01*
X108614285Y-105673866D02*
X108661904Y-105578628D01*
X108661904Y-105578628D02*
X108709523Y-105531009D01*
X108709523Y-105531009D02*
X108804761Y-105483390D01*
X118359580Y-157657142D02*
X118407200Y-157609523D01*
X118407200Y-157609523D02*
X118454819Y-157466666D01*
X118454819Y-157466666D02*
X118454819Y-157371428D01*
X118454819Y-157371428D02*
X118407200Y-157228571D01*
X118407200Y-157228571D02*
X118311961Y-157133333D01*
X118311961Y-157133333D02*
X118216723Y-157085714D01*
X118216723Y-157085714D02*
X118026247Y-157038095D01*
X118026247Y-157038095D02*
X117883390Y-157038095D01*
X117883390Y-157038095D02*
X117692914Y-157085714D01*
X117692914Y-157085714D02*
X117597676Y-157133333D01*
X117597676Y-157133333D02*
X117502438Y-157228571D01*
X117502438Y-157228571D02*
X117454819Y-157371428D01*
X117454819Y-157371428D02*
X117454819Y-157466666D01*
X117454819Y-157466666D02*
X117502438Y-157609523D01*
X117502438Y-157609523D02*
X117550057Y-157657142D01*
X117454819Y-157990476D02*
X117454819Y-158609523D01*
X117454819Y-158609523D02*
X117835771Y-158276190D01*
X117835771Y-158276190D02*
X117835771Y-158419047D01*
X117835771Y-158419047D02*
X117883390Y-158514285D01*
X117883390Y-158514285D02*
X117931009Y-158561904D01*
X117931009Y-158561904D02*
X118026247Y-158609523D01*
X118026247Y-158609523D02*
X118264342Y-158609523D01*
X118264342Y-158609523D02*
X118359580Y-158561904D01*
X118359580Y-158561904D02*
X118407200Y-158514285D01*
X118407200Y-158514285D02*
X118454819Y-158419047D01*
X118454819Y-158419047D02*
X118454819Y-158133333D01*
X118454819Y-158133333D02*
X118407200Y-158038095D01*
X118407200Y-158038095D02*
X118359580Y-157990476D01*
X118454819Y-159561904D02*
X118454819Y-158990476D01*
X118454819Y-159276190D02*
X117454819Y-159276190D01*
X117454819Y-159276190D02*
X117597676Y-159180952D01*
X117597676Y-159180952D02*
X117692914Y-159085714D01*
X117692914Y-159085714D02*
X117740533Y-158990476D01*
X100860819Y-128295142D02*
X100384628Y-127961809D01*
X100860819Y-127723714D02*
X99860819Y-127723714D01*
X99860819Y-127723714D02*
X99860819Y-128104666D01*
X99860819Y-128104666D02*
X99908438Y-128199904D01*
X99908438Y-128199904D02*
X99956057Y-128247523D01*
X99956057Y-128247523D02*
X100051295Y-128295142D01*
X100051295Y-128295142D02*
X100194152Y-128295142D01*
X100194152Y-128295142D02*
X100289390Y-128247523D01*
X100289390Y-128247523D02*
X100337009Y-128199904D01*
X100337009Y-128199904D02*
X100384628Y-128104666D01*
X100384628Y-128104666D02*
X100384628Y-127723714D01*
X100860819Y-129247523D02*
X100860819Y-128676095D01*
X100860819Y-128961809D02*
X99860819Y-128961809D01*
X99860819Y-128961809D02*
X100003676Y-128866571D01*
X100003676Y-128866571D02*
X100098914Y-128771333D01*
X100098914Y-128771333D02*
X100146533Y-128676095D01*
X100194152Y-130104666D02*
X100860819Y-130104666D01*
X99813200Y-129866571D02*
X100527485Y-129628476D01*
X100527485Y-129628476D02*
X100527485Y-130247523D01*
X98667580Y-157591142D02*
X98715200Y-157543523D01*
X98715200Y-157543523D02*
X98762819Y-157400666D01*
X98762819Y-157400666D02*
X98762819Y-157305428D01*
X98762819Y-157305428D02*
X98715200Y-157162571D01*
X98715200Y-157162571D02*
X98619961Y-157067333D01*
X98619961Y-157067333D02*
X98524723Y-157019714D01*
X98524723Y-157019714D02*
X98334247Y-156972095D01*
X98334247Y-156972095D02*
X98191390Y-156972095D01*
X98191390Y-156972095D02*
X98000914Y-157019714D01*
X98000914Y-157019714D02*
X97905676Y-157067333D01*
X97905676Y-157067333D02*
X97810438Y-157162571D01*
X97810438Y-157162571D02*
X97762819Y-157305428D01*
X97762819Y-157305428D02*
X97762819Y-157400666D01*
X97762819Y-157400666D02*
X97810438Y-157543523D01*
X97810438Y-157543523D02*
X97858057Y-157591142D01*
X97762819Y-157924476D02*
X97762819Y-158543523D01*
X97762819Y-158543523D02*
X98143771Y-158210190D01*
X98143771Y-158210190D02*
X98143771Y-158353047D01*
X98143771Y-158353047D02*
X98191390Y-158448285D01*
X98191390Y-158448285D02*
X98239009Y-158495904D01*
X98239009Y-158495904D02*
X98334247Y-158543523D01*
X98334247Y-158543523D02*
X98572342Y-158543523D01*
X98572342Y-158543523D02*
X98667580Y-158495904D01*
X98667580Y-158495904D02*
X98715200Y-158448285D01*
X98715200Y-158448285D02*
X98762819Y-158353047D01*
X98762819Y-158353047D02*
X98762819Y-158067333D01*
X98762819Y-158067333D02*
X98715200Y-157972095D01*
X98715200Y-157972095D02*
X98667580Y-157924476D01*
X97762819Y-159162571D02*
X97762819Y-159257809D01*
X97762819Y-159257809D02*
X97810438Y-159353047D01*
X97810438Y-159353047D02*
X97858057Y-159400666D01*
X97858057Y-159400666D02*
X97953295Y-159448285D01*
X97953295Y-159448285D02*
X98143771Y-159495904D01*
X98143771Y-159495904D02*
X98381866Y-159495904D01*
X98381866Y-159495904D02*
X98572342Y-159448285D01*
X98572342Y-159448285D02*
X98667580Y-159400666D01*
X98667580Y-159400666D02*
X98715200Y-159353047D01*
X98715200Y-159353047D02*
X98762819Y-159257809D01*
X98762819Y-159257809D02*
X98762819Y-159162571D01*
X98762819Y-159162571D02*
X98715200Y-159067333D01*
X98715200Y-159067333D02*
X98667580Y-159019714D01*
X98667580Y-159019714D02*
X98572342Y-158972095D01*
X98572342Y-158972095D02*
X98381866Y-158924476D01*
X98381866Y-158924476D02*
X98143771Y-158924476D01*
X98143771Y-158924476D02*
X97953295Y-158972095D01*
X97953295Y-158972095D02*
X97858057Y-159019714D01*
X97858057Y-159019714D02*
X97810438Y-159067333D01*
X97810438Y-159067333D02*
X97762819Y-159162571D01*
X122469771Y-88714285D02*
X122184057Y-88514285D01*
X122469771Y-88371428D02*
X121869771Y-88371428D01*
X121869771Y-88371428D02*
X121869771Y-88599999D01*
X121869771Y-88599999D02*
X121898342Y-88657142D01*
X121898342Y-88657142D02*
X121926914Y-88685713D01*
X121926914Y-88685713D02*
X121984057Y-88714285D01*
X121984057Y-88714285D02*
X122069771Y-88714285D01*
X122069771Y-88714285D02*
X122126914Y-88685713D01*
X122126914Y-88685713D02*
X122155485Y-88657142D01*
X122155485Y-88657142D02*
X122184057Y-88599999D01*
X122184057Y-88599999D02*
X122184057Y-88371428D01*
X121926914Y-88942856D02*
X121898342Y-88971428D01*
X121898342Y-88971428D02*
X121869771Y-89028571D01*
X121869771Y-89028571D02*
X121869771Y-89171428D01*
X121869771Y-89171428D02*
X121898342Y-89228571D01*
X121898342Y-89228571D02*
X121926914Y-89257142D01*
X121926914Y-89257142D02*
X121984057Y-89285713D01*
X121984057Y-89285713D02*
X122041200Y-89285713D01*
X122041200Y-89285713D02*
X122126914Y-89257142D01*
X122126914Y-89257142D02*
X122469771Y-88914285D01*
X122469771Y-88914285D02*
X122469771Y-89285713D01*
X121869771Y-89485714D02*
X121869771Y-89857142D01*
X121869771Y-89857142D02*
X122098342Y-89657142D01*
X122098342Y-89657142D02*
X122098342Y-89742857D01*
X122098342Y-89742857D02*
X122126914Y-89800000D01*
X122126914Y-89800000D02*
X122155485Y-89828571D01*
X122155485Y-89828571D02*
X122212628Y-89857142D01*
X122212628Y-89857142D02*
X122355485Y-89857142D01*
X122355485Y-89857142D02*
X122412628Y-89828571D01*
X122412628Y-89828571D02*
X122441200Y-89800000D01*
X122441200Y-89800000D02*
X122469771Y-89742857D01*
X122469771Y-89742857D02*
X122469771Y-89571428D01*
X122469771Y-89571428D02*
X122441200Y-89514285D01*
X122441200Y-89514285D02*
X122412628Y-89485714D01*
X108095238Y-65650057D02*
X108190476Y-65602438D01*
X108190476Y-65602438D02*
X108285714Y-65507200D01*
X108285714Y-65507200D02*
X108428571Y-65364342D01*
X108428571Y-65364342D02*
X108523809Y-65316723D01*
X108523809Y-65316723D02*
X108619047Y-65316723D01*
X108571428Y-65554819D02*
X108666666Y-65507200D01*
X108666666Y-65507200D02*
X108761904Y-65411961D01*
X108761904Y-65411961D02*
X108809523Y-65221485D01*
X108809523Y-65221485D02*
X108809523Y-64888152D01*
X108809523Y-64888152D02*
X108761904Y-64697676D01*
X108761904Y-64697676D02*
X108666666Y-64602438D01*
X108666666Y-64602438D02*
X108571428Y-64554819D01*
X108571428Y-64554819D02*
X108380952Y-64554819D01*
X108380952Y-64554819D02*
X108285714Y-64602438D01*
X108285714Y-64602438D02*
X108190476Y-64697676D01*
X108190476Y-64697676D02*
X108142857Y-64888152D01*
X108142857Y-64888152D02*
X108142857Y-65221485D01*
X108142857Y-65221485D02*
X108190476Y-65411961D01*
X108190476Y-65411961D02*
X108285714Y-65507200D01*
X108285714Y-65507200D02*
X108380952Y-65554819D01*
X108380952Y-65554819D02*
X108571428Y-65554819D01*
X107190476Y-65554819D02*
X107761904Y-65554819D01*
X107476190Y-65554819D02*
X107476190Y-64554819D01*
X107476190Y-64554819D02*
X107571428Y-64697676D01*
X107571428Y-64697676D02*
X107666666Y-64792914D01*
X107666666Y-64792914D02*
X107761904Y-64840533D01*
X102650000Y-78016033D02*
X102883333Y-77682700D01*
X103050000Y-78016033D02*
X103050000Y-77316033D01*
X103050000Y-77316033D02*
X102783333Y-77316033D01*
X102783333Y-77316033D02*
X102716667Y-77349366D01*
X102716667Y-77349366D02*
X102683333Y-77382700D01*
X102683333Y-77382700D02*
X102650000Y-77449366D01*
X102650000Y-77449366D02*
X102650000Y-77549366D01*
X102650000Y-77549366D02*
X102683333Y-77616033D01*
X102683333Y-77616033D02*
X102716667Y-77649366D01*
X102716667Y-77649366D02*
X102783333Y-77682700D01*
X102783333Y-77682700D02*
X103050000Y-77682700D01*
X102383333Y-77382700D02*
X102350000Y-77349366D01*
X102350000Y-77349366D02*
X102283333Y-77316033D01*
X102283333Y-77316033D02*
X102116667Y-77316033D01*
X102116667Y-77316033D02*
X102050000Y-77349366D01*
X102050000Y-77349366D02*
X102016667Y-77382700D01*
X102016667Y-77382700D02*
X101983333Y-77449366D01*
X101983333Y-77449366D02*
X101983333Y-77516033D01*
X101983333Y-77516033D02*
X102016667Y-77616033D01*
X102016667Y-77616033D02*
X102416667Y-78016033D01*
X102416667Y-78016033D02*
X101983333Y-78016033D01*
X101650000Y-78016033D02*
X101516666Y-78016033D01*
X101516666Y-78016033D02*
X101450000Y-77982700D01*
X101450000Y-77982700D02*
X101416666Y-77949366D01*
X101416666Y-77949366D02*
X101350000Y-77849366D01*
X101350000Y-77849366D02*
X101316666Y-77716033D01*
X101316666Y-77716033D02*
X101316666Y-77449366D01*
X101316666Y-77449366D02*
X101350000Y-77382700D01*
X101350000Y-77382700D02*
X101383333Y-77349366D01*
X101383333Y-77349366D02*
X101450000Y-77316033D01*
X101450000Y-77316033D02*
X101583333Y-77316033D01*
X101583333Y-77316033D02*
X101650000Y-77349366D01*
X101650000Y-77349366D02*
X101683333Y-77382700D01*
X101683333Y-77382700D02*
X101716666Y-77449366D01*
X101716666Y-77449366D02*
X101716666Y-77616033D01*
X101716666Y-77616033D02*
X101683333Y-77682700D01*
X101683333Y-77682700D02*
X101650000Y-77716033D01*
X101650000Y-77716033D02*
X101583333Y-77749366D01*
X101583333Y-77749366D02*
X101450000Y-77749366D01*
X101450000Y-77749366D02*
X101383333Y-77716033D01*
X101383333Y-77716033D02*
X101350000Y-77682700D01*
X101350000Y-77682700D02*
X101316666Y-77616033D01*
X99255580Y-119485142D02*
X99303200Y-119437523D01*
X99303200Y-119437523D02*
X99350819Y-119294666D01*
X99350819Y-119294666D02*
X99350819Y-119199428D01*
X99350819Y-119199428D02*
X99303200Y-119056571D01*
X99303200Y-119056571D02*
X99207961Y-118961333D01*
X99207961Y-118961333D02*
X99112723Y-118913714D01*
X99112723Y-118913714D02*
X98922247Y-118866095D01*
X98922247Y-118866095D02*
X98779390Y-118866095D01*
X98779390Y-118866095D02*
X98588914Y-118913714D01*
X98588914Y-118913714D02*
X98493676Y-118961333D01*
X98493676Y-118961333D02*
X98398438Y-119056571D01*
X98398438Y-119056571D02*
X98350819Y-119199428D01*
X98350819Y-119199428D02*
X98350819Y-119294666D01*
X98350819Y-119294666D02*
X98398438Y-119437523D01*
X98398438Y-119437523D02*
X98446057Y-119485142D01*
X98446057Y-119866095D02*
X98398438Y-119913714D01*
X98398438Y-119913714D02*
X98350819Y-120008952D01*
X98350819Y-120008952D02*
X98350819Y-120247047D01*
X98350819Y-120247047D02*
X98398438Y-120342285D01*
X98398438Y-120342285D02*
X98446057Y-120389904D01*
X98446057Y-120389904D02*
X98541295Y-120437523D01*
X98541295Y-120437523D02*
X98636533Y-120437523D01*
X98636533Y-120437523D02*
X98779390Y-120389904D01*
X98779390Y-120389904D02*
X99350819Y-119818476D01*
X99350819Y-119818476D02*
X99350819Y-120437523D01*
X98684152Y-121294666D02*
X99350819Y-121294666D01*
X98303200Y-121056571D02*
X99017485Y-120818476D01*
X99017485Y-120818476D02*
X99017485Y-121437523D01*
X99844819Y-147685142D02*
X99368628Y-147351809D01*
X99844819Y-147113714D02*
X98844819Y-147113714D01*
X98844819Y-147113714D02*
X98844819Y-147494666D01*
X98844819Y-147494666D02*
X98892438Y-147589904D01*
X98892438Y-147589904D02*
X98940057Y-147637523D01*
X98940057Y-147637523D02*
X99035295Y-147685142D01*
X99035295Y-147685142D02*
X99178152Y-147685142D01*
X99178152Y-147685142D02*
X99273390Y-147637523D01*
X99273390Y-147637523D02*
X99321009Y-147589904D01*
X99321009Y-147589904D02*
X99368628Y-147494666D01*
X99368628Y-147494666D02*
X99368628Y-147113714D01*
X99844819Y-148637523D02*
X99844819Y-148066095D01*
X99844819Y-148351809D02*
X98844819Y-148351809D01*
X98844819Y-148351809D02*
X98987676Y-148256571D01*
X98987676Y-148256571D02*
X99082914Y-148161333D01*
X99082914Y-148161333D02*
X99130533Y-148066095D01*
X98844819Y-148970857D02*
X98844819Y-149637523D01*
X98844819Y-149637523D02*
X99844819Y-149208952D01*
X128142857Y-71924819D02*
X128476190Y-71448628D01*
X128714285Y-71924819D02*
X128714285Y-70924819D01*
X128714285Y-70924819D02*
X128333333Y-70924819D01*
X128333333Y-70924819D02*
X128238095Y-70972438D01*
X128238095Y-70972438D02*
X128190476Y-71020057D01*
X128190476Y-71020057D02*
X128142857Y-71115295D01*
X128142857Y-71115295D02*
X128142857Y-71258152D01*
X128142857Y-71258152D02*
X128190476Y-71353390D01*
X128190476Y-71353390D02*
X128238095Y-71401009D01*
X128238095Y-71401009D02*
X128333333Y-71448628D01*
X128333333Y-71448628D02*
X128714285Y-71448628D01*
X127809523Y-70924819D02*
X127190476Y-70924819D01*
X127190476Y-70924819D02*
X127523809Y-71305771D01*
X127523809Y-71305771D02*
X127380952Y-71305771D01*
X127380952Y-71305771D02*
X127285714Y-71353390D01*
X127285714Y-71353390D02*
X127238095Y-71401009D01*
X127238095Y-71401009D02*
X127190476Y-71496247D01*
X127190476Y-71496247D02*
X127190476Y-71734342D01*
X127190476Y-71734342D02*
X127238095Y-71829580D01*
X127238095Y-71829580D02*
X127285714Y-71877200D01*
X127285714Y-71877200D02*
X127380952Y-71924819D01*
X127380952Y-71924819D02*
X127666666Y-71924819D01*
X127666666Y-71924819D02*
X127761904Y-71877200D01*
X127761904Y-71877200D02*
X127809523Y-71829580D01*
X126714285Y-71924819D02*
X126523809Y-71924819D01*
X126523809Y-71924819D02*
X126428571Y-71877200D01*
X126428571Y-71877200D02*
X126380952Y-71829580D01*
X126380952Y-71829580D02*
X126285714Y-71686723D01*
X126285714Y-71686723D02*
X126238095Y-71496247D01*
X126238095Y-71496247D02*
X126238095Y-71115295D01*
X126238095Y-71115295D02*
X126285714Y-71020057D01*
X126285714Y-71020057D02*
X126333333Y-70972438D01*
X126333333Y-70972438D02*
X126428571Y-70924819D01*
X126428571Y-70924819D02*
X126619047Y-70924819D01*
X126619047Y-70924819D02*
X126714285Y-70972438D01*
X126714285Y-70972438D02*
X126761904Y-71020057D01*
X126761904Y-71020057D02*
X126809523Y-71115295D01*
X126809523Y-71115295D02*
X126809523Y-71353390D01*
X126809523Y-71353390D02*
X126761904Y-71448628D01*
X126761904Y-71448628D02*
X126714285Y-71496247D01*
X126714285Y-71496247D02*
X126619047Y-71543866D01*
X126619047Y-71543866D02*
X126428571Y-71543866D01*
X126428571Y-71543866D02*
X126333333Y-71496247D01*
X126333333Y-71496247D02*
X126285714Y-71448628D01*
X126285714Y-71448628D02*
X126238095Y-71353390D01*
X131849366Y-126349999D02*
X131882700Y-126316666D01*
X131882700Y-126316666D02*
X131916033Y-126216666D01*
X131916033Y-126216666D02*
X131916033Y-126149999D01*
X131916033Y-126149999D02*
X131882700Y-126049999D01*
X131882700Y-126049999D02*
X131816033Y-125983333D01*
X131816033Y-125983333D02*
X131749366Y-125949999D01*
X131749366Y-125949999D02*
X131616033Y-125916666D01*
X131616033Y-125916666D02*
X131516033Y-125916666D01*
X131516033Y-125916666D02*
X131382700Y-125949999D01*
X131382700Y-125949999D02*
X131316033Y-125983333D01*
X131316033Y-125983333D02*
X131249366Y-126049999D01*
X131249366Y-126049999D02*
X131216033Y-126149999D01*
X131216033Y-126149999D02*
X131216033Y-126216666D01*
X131216033Y-126216666D02*
X131249366Y-126316666D01*
X131249366Y-126316666D02*
X131282700Y-126349999D01*
X131916033Y-127016666D02*
X131916033Y-126616666D01*
X131916033Y-126816666D02*
X131216033Y-126816666D01*
X131216033Y-126816666D02*
X131316033Y-126749999D01*
X131316033Y-126749999D02*
X131382700Y-126683333D01*
X131382700Y-126683333D02*
X131416033Y-126616666D01*
X131216033Y-127250000D02*
X131216033Y-127716666D01*
X131216033Y-127716666D02*
X131916033Y-127416666D01*
X100516033Y-81849999D02*
X100182700Y-81616666D01*
X100516033Y-81449999D02*
X99816033Y-81449999D01*
X99816033Y-81449999D02*
X99816033Y-81716666D01*
X99816033Y-81716666D02*
X99849366Y-81783333D01*
X99849366Y-81783333D02*
X99882700Y-81816666D01*
X99882700Y-81816666D02*
X99949366Y-81849999D01*
X99949366Y-81849999D02*
X100049366Y-81849999D01*
X100049366Y-81849999D02*
X100116033Y-81816666D01*
X100116033Y-81816666D02*
X100149366Y-81783333D01*
X100149366Y-81783333D02*
X100182700Y-81716666D01*
X100182700Y-81716666D02*
X100182700Y-81449999D01*
X99816033Y-82083333D02*
X99816033Y-82516666D01*
X99816033Y-82516666D02*
X100082700Y-82283333D01*
X100082700Y-82283333D02*
X100082700Y-82383333D01*
X100082700Y-82383333D02*
X100116033Y-82449999D01*
X100116033Y-82449999D02*
X100149366Y-82483333D01*
X100149366Y-82483333D02*
X100216033Y-82516666D01*
X100216033Y-82516666D02*
X100382700Y-82516666D01*
X100382700Y-82516666D02*
X100449366Y-82483333D01*
X100449366Y-82483333D02*
X100482700Y-82449999D01*
X100482700Y-82449999D02*
X100516033Y-82383333D01*
X100516033Y-82383333D02*
X100516033Y-82183333D01*
X100516033Y-82183333D02*
X100482700Y-82116666D01*
X100482700Y-82116666D02*
X100449366Y-82083333D01*
X100049366Y-83116666D02*
X100516033Y-83116666D01*
X99782700Y-82950000D02*
X100282700Y-82783333D01*
X100282700Y-82783333D02*
X100282700Y-83216666D01*
X81596819Y-147358142D02*
X81120628Y-147024809D01*
X81596819Y-146786714D02*
X80596819Y-146786714D01*
X80596819Y-146786714D02*
X80596819Y-147167666D01*
X80596819Y-147167666D02*
X80644438Y-147262904D01*
X80644438Y-147262904D02*
X80692057Y-147310523D01*
X80692057Y-147310523D02*
X80787295Y-147358142D01*
X80787295Y-147358142D02*
X80930152Y-147358142D01*
X80930152Y-147358142D02*
X81025390Y-147310523D01*
X81025390Y-147310523D02*
X81073009Y-147262904D01*
X81073009Y-147262904D02*
X81120628Y-147167666D01*
X81120628Y-147167666D02*
X81120628Y-146786714D01*
X81596819Y-148310523D02*
X81596819Y-147739095D01*
X81596819Y-148024809D02*
X80596819Y-148024809D01*
X80596819Y-148024809D02*
X80739676Y-147929571D01*
X80739676Y-147929571D02*
X80834914Y-147834333D01*
X80834914Y-147834333D02*
X80882533Y-147739095D01*
X80596819Y-149167666D02*
X80596819Y-148977190D01*
X80596819Y-148977190D02*
X80644438Y-148881952D01*
X80644438Y-148881952D02*
X80692057Y-148834333D01*
X80692057Y-148834333D02*
X80834914Y-148739095D01*
X80834914Y-148739095D02*
X81025390Y-148691476D01*
X81025390Y-148691476D02*
X81406342Y-148691476D01*
X81406342Y-148691476D02*
X81501580Y-148739095D01*
X81501580Y-148739095D02*
X81549200Y-148786714D01*
X81549200Y-148786714D02*
X81596819Y-148881952D01*
X81596819Y-148881952D02*
X81596819Y-149072428D01*
X81596819Y-149072428D02*
X81549200Y-149167666D01*
X81549200Y-149167666D02*
X81501580Y-149215285D01*
X81501580Y-149215285D02*
X81406342Y-149262904D01*
X81406342Y-149262904D02*
X81168247Y-149262904D01*
X81168247Y-149262904D02*
X81073009Y-149215285D01*
X81073009Y-149215285D02*
X81025390Y-149167666D01*
X81025390Y-149167666D02*
X80977771Y-149072428D01*
X80977771Y-149072428D02*
X80977771Y-148881952D01*
X80977771Y-148881952D02*
X81025390Y-148786714D01*
X81025390Y-148786714D02*
X81073009Y-148739095D01*
X81073009Y-148739095D02*
X81168247Y-148691476D01*
X127849366Y-126149999D02*
X127882700Y-126116666D01*
X127882700Y-126116666D02*
X127916033Y-126016666D01*
X127916033Y-126016666D02*
X127916033Y-125949999D01*
X127916033Y-125949999D02*
X127882700Y-125849999D01*
X127882700Y-125849999D02*
X127816033Y-125783333D01*
X127816033Y-125783333D02*
X127749366Y-125749999D01*
X127749366Y-125749999D02*
X127616033Y-125716666D01*
X127616033Y-125716666D02*
X127516033Y-125716666D01*
X127516033Y-125716666D02*
X127382700Y-125749999D01*
X127382700Y-125749999D02*
X127316033Y-125783333D01*
X127316033Y-125783333D02*
X127249366Y-125849999D01*
X127249366Y-125849999D02*
X127216033Y-125949999D01*
X127216033Y-125949999D02*
X127216033Y-126016666D01*
X127216033Y-126016666D02*
X127249366Y-126116666D01*
X127249366Y-126116666D02*
X127282700Y-126149999D01*
X127916033Y-126816666D02*
X127916033Y-126416666D01*
X127916033Y-126616666D02*
X127216033Y-126616666D01*
X127216033Y-126616666D02*
X127316033Y-126549999D01*
X127316033Y-126549999D02*
X127382700Y-126483333D01*
X127382700Y-126483333D02*
X127416033Y-126416666D01*
X127516033Y-127216666D02*
X127482700Y-127150000D01*
X127482700Y-127150000D02*
X127449366Y-127116666D01*
X127449366Y-127116666D02*
X127382700Y-127083333D01*
X127382700Y-127083333D02*
X127349366Y-127083333D01*
X127349366Y-127083333D02*
X127282700Y-127116666D01*
X127282700Y-127116666D02*
X127249366Y-127150000D01*
X127249366Y-127150000D02*
X127216033Y-127216666D01*
X127216033Y-127216666D02*
X127216033Y-127350000D01*
X127216033Y-127350000D02*
X127249366Y-127416666D01*
X127249366Y-127416666D02*
X127282700Y-127450000D01*
X127282700Y-127450000D02*
X127349366Y-127483333D01*
X127349366Y-127483333D02*
X127382700Y-127483333D01*
X127382700Y-127483333D02*
X127449366Y-127450000D01*
X127449366Y-127450000D02*
X127482700Y-127416666D01*
X127482700Y-127416666D02*
X127516033Y-127350000D01*
X127516033Y-127350000D02*
X127516033Y-127216666D01*
X127516033Y-127216666D02*
X127549366Y-127150000D01*
X127549366Y-127150000D02*
X127582700Y-127116666D01*
X127582700Y-127116666D02*
X127649366Y-127083333D01*
X127649366Y-127083333D02*
X127782700Y-127083333D01*
X127782700Y-127083333D02*
X127849366Y-127116666D01*
X127849366Y-127116666D02*
X127882700Y-127150000D01*
X127882700Y-127150000D02*
X127916033Y-127216666D01*
X127916033Y-127216666D02*
X127916033Y-127350000D01*
X127916033Y-127350000D02*
X127882700Y-127416666D01*
X127882700Y-127416666D02*
X127849366Y-127450000D01*
X127849366Y-127450000D02*
X127782700Y-127483333D01*
X127782700Y-127483333D02*
X127649366Y-127483333D01*
X127649366Y-127483333D02*
X127582700Y-127450000D01*
X127582700Y-127450000D02*
X127549366Y-127416666D01*
X127549366Y-127416666D02*
X127516033Y-127350000D01*
X118679580Y-138742142D02*
X118727200Y-138694523D01*
X118727200Y-138694523D02*
X118774819Y-138551666D01*
X118774819Y-138551666D02*
X118774819Y-138456428D01*
X118774819Y-138456428D02*
X118727200Y-138313571D01*
X118727200Y-138313571D02*
X118631961Y-138218333D01*
X118631961Y-138218333D02*
X118536723Y-138170714D01*
X118536723Y-138170714D02*
X118346247Y-138123095D01*
X118346247Y-138123095D02*
X118203390Y-138123095D01*
X118203390Y-138123095D02*
X118012914Y-138170714D01*
X118012914Y-138170714D02*
X117917676Y-138218333D01*
X117917676Y-138218333D02*
X117822438Y-138313571D01*
X117822438Y-138313571D02*
X117774819Y-138456428D01*
X117774819Y-138456428D02*
X117774819Y-138551666D01*
X117774819Y-138551666D02*
X117822438Y-138694523D01*
X117822438Y-138694523D02*
X117870057Y-138742142D01*
X117870057Y-139123095D02*
X117822438Y-139170714D01*
X117822438Y-139170714D02*
X117774819Y-139265952D01*
X117774819Y-139265952D02*
X117774819Y-139504047D01*
X117774819Y-139504047D02*
X117822438Y-139599285D01*
X117822438Y-139599285D02*
X117870057Y-139646904D01*
X117870057Y-139646904D02*
X117965295Y-139694523D01*
X117965295Y-139694523D02*
X118060533Y-139694523D01*
X118060533Y-139694523D02*
X118203390Y-139646904D01*
X118203390Y-139646904D02*
X118774819Y-139075476D01*
X118774819Y-139075476D02*
X118774819Y-139694523D01*
X118203390Y-140265952D02*
X118155771Y-140170714D01*
X118155771Y-140170714D02*
X118108152Y-140123095D01*
X118108152Y-140123095D02*
X118012914Y-140075476D01*
X118012914Y-140075476D02*
X117965295Y-140075476D01*
X117965295Y-140075476D02*
X117870057Y-140123095D01*
X117870057Y-140123095D02*
X117822438Y-140170714D01*
X117822438Y-140170714D02*
X117774819Y-140265952D01*
X117774819Y-140265952D02*
X117774819Y-140456428D01*
X117774819Y-140456428D02*
X117822438Y-140551666D01*
X117822438Y-140551666D02*
X117870057Y-140599285D01*
X117870057Y-140599285D02*
X117965295Y-140646904D01*
X117965295Y-140646904D02*
X118012914Y-140646904D01*
X118012914Y-140646904D02*
X118108152Y-140599285D01*
X118108152Y-140599285D02*
X118155771Y-140551666D01*
X118155771Y-140551666D02*
X118203390Y-140456428D01*
X118203390Y-140456428D02*
X118203390Y-140265952D01*
X118203390Y-140265952D02*
X118251009Y-140170714D01*
X118251009Y-140170714D02*
X118298628Y-140123095D01*
X118298628Y-140123095D02*
X118393866Y-140075476D01*
X118393866Y-140075476D02*
X118584342Y-140075476D01*
X118584342Y-140075476D02*
X118679580Y-140123095D01*
X118679580Y-140123095D02*
X118727200Y-140170714D01*
X118727200Y-140170714D02*
X118774819Y-140265952D01*
X118774819Y-140265952D02*
X118774819Y-140456428D01*
X118774819Y-140456428D02*
X118727200Y-140551666D01*
X118727200Y-140551666D02*
X118679580Y-140599285D01*
X118679580Y-140599285D02*
X118584342Y-140646904D01*
X118584342Y-140646904D02*
X118393866Y-140646904D01*
X118393866Y-140646904D02*
X118298628Y-140599285D01*
X118298628Y-140599285D02*
X118251009Y-140551666D01*
X118251009Y-140551666D02*
X118203390Y-140456428D01*
X98667580Y-138455142D02*
X98715200Y-138407523D01*
X98715200Y-138407523D02*
X98762819Y-138264666D01*
X98762819Y-138264666D02*
X98762819Y-138169428D01*
X98762819Y-138169428D02*
X98715200Y-138026571D01*
X98715200Y-138026571D02*
X98619961Y-137931333D01*
X98619961Y-137931333D02*
X98524723Y-137883714D01*
X98524723Y-137883714D02*
X98334247Y-137836095D01*
X98334247Y-137836095D02*
X98191390Y-137836095D01*
X98191390Y-137836095D02*
X98000914Y-137883714D01*
X98000914Y-137883714D02*
X97905676Y-137931333D01*
X97905676Y-137931333D02*
X97810438Y-138026571D01*
X97810438Y-138026571D02*
X97762819Y-138169428D01*
X97762819Y-138169428D02*
X97762819Y-138264666D01*
X97762819Y-138264666D02*
X97810438Y-138407523D01*
X97810438Y-138407523D02*
X97858057Y-138455142D01*
X97858057Y-138836095D02*
X97810438Y-138883714D01*
X97810438Y-138883714D02*
X97762819Y-138978952D01*
X97762819Y-138978952D02*
X97762819Y-139217047D01*
X97762819Y-139217047D02*
X97810438Y-139312285D01*
X97810438Y-139312285D02*
X97858057Y-139359904D01*
X97858057Y-139359904D02*
X97953295Y-139407523D01*
X97953295Y-139407523D02*
X98048533Y-139407523D01*
X98048533Y-139407523D02*
X98191390Y-139359904D01*
X98191390Y-139359904D02*
X98762819Y-138788476D01*
X98762819Y-138788476D02*
X98762819Y-139407523D01*
X97762819Y-139740857D02*
X97762819Y-140407523D01*
X97762819Y-140407523D02*
X98762819Y-139978952D01*
X117553366Y-100628499D02*
X117586700Y-100595166D01*
X117586700Y-100595166D02*
X117620033Y-100495166D01*
X117620033Y-100495166D02*
X117620033Y-100428499D01*
X117620033Y-100428499D02*
X117586700Y-100328499D01*
X117586700Y-100328499D02*
X117520033Y-100261833D01*
X117520033Y-100261833D02*
X117453366Y-100228499D01*
X117453366Y-100228499D02*
X117320033Y-100195166D01*
X117320033Y-100195166D02*
X117220033Y-100195166D01*
X117220033Y-100195166D02*
X117086700Y-100228499D01*
X117086700Y-100228499D02*
X117020033Y-100261833D01*
X117020033Y-100261833D02*
X116953366Y-100328499D01*
X116953366Y-100328499D02*
X116920033Y-100428499D01*
X116920033Y-100428499D02*
X116920033Y-100495166D01*
X116920033Y-100495166D02*
X116953366Y-100595166D01*
X116953366Y-100595166D02*
X116986700Y-100628499D01*
X116986700Y-100895166D02*
X116953366Y-100928499D01*
X116953366Y-100928499D02*
X116920033Y-100995166D01*
X116920033Y-100995166D02*
X116920033Y-101161833D01*
X116920033Y-101161833D02*
X116953366Y-101228499D01*
X116953366Y-101228499D02*
X116986700Y-101261833D01*
X116986700Y-101261833D02*
X117053366Y-101295166D01*
X117053366Y-101295166D02*
X117120033Y-101295166D01*
X117120033Y-101295166D02*
X117220033Y-101261833D01*
X117220033Y-101261833D02*
X117620033Y-100861833D01*
X117620033Y-100861833D02*
X117620033Y-101295166D01*
X116986700Y-101561833D02*
X116953366Y-101595166D01*
X116953366Y-101595166D02*
X116920033Y-101661833D01*
X116920033Y-101661833D02*
X116920033Y-101828500D01*
X116920033Y-101828500D02*
X116953366Y-101895166D01*
X116953366Y-101895166D02*
X116986700Y-101928500D01*
X116986700Y-101928500D02*
X117053366Y-101961833D01*
X117053366Y-101961833D02*
X117120033Y-101961833D01*
X117120033Y-101961833D02*
X117220033Y-101928500D01*
X117220033Y-101928500D02*
X117620033Y-101528500D01*
X117620033Y-101528500D02*
X117620033Y-101961833D01*
X125849999Y-94083966D02*
X125616666Y-94417300D01*
X125449999Y-94083966D02*
X125449999Y-94783966D01*
X125449999Y-94783966D02*
X125716666Y-94783966D01*
X125716666Y-94783966D02*
X125783333Y-94750633D01*
X125783333Y-94750633D02*
X125816666Y-94717300D01*
X125816666Y-94717300D02*
X125849999Y-94650633D01*
X125849999Y-94650633D02*
X125849999Y-94550633D01*
X125849999Y-94550633D02*
X125816666Y-94483966D01*
X125816666Y-94483966D02*
X125783333Y-94450633D01*
X125783333Y-94450633D02*
X125716666Y-94417300D01*
X125716666Y-94417300D02*
X125449999Y-94417300D01*
X126449999Y-94550633D02*
X126449999Y-94083966D01*
X126283333Y-94817300D02*
X126116666Y-94317300D01*
X126116666Y-94317300D02*
X126549999Y-94317300D01*
X126783333Y-94717300D02*
X126816666Y-94750633D01*
X126816666Y-94750633D02*
X126883333Y-94783966D01*
X126883333Y-94783966D02*
X127050000Y-94783966D01*
X127050000Y-94783966D02*
X127116666Y-94750633D01*
X127116666Y-94750633D02*
X127150000Y-94717300D01*
X127150000Y-94717300D02*
X127183333Y-94650633D01*
X127183333Y-94650633D02*
X127183333Y-94583966D01*
X127183333Y-94583966D02*
X127150000Y-94483966D01*
X127150000Y-94483966D02*
X126750000Y-94083966D01*
X126750000Y-94083966D02*
X127183333Y-94083966D01*
X98787580Y-100609142D02*
X98835200Y-100561523D01*
X98835200Y-100561523D02*
X98882819Y-100418666D01*
X98882819Y-100418666D02*
X98882819Y-100323428D01*
X98882819Y-100323428D02*
X98835200Y-100180571D01*
X98835200Y-100180571D02*
X98739961Y-100085333D01*
X98739961Y-100085333D02*
X98644723Y-100037714D01*
X98644723Y-100037714D02*
X98454247Y-99990095D01*
X98454247Y-99990095D02*
X98311390Y-99990095D01*
X98311390Y-99990095D02*
X98120914Y-100037714D01*
X98120914Y-100037714D02*
X98025676Y-100085333D01*
X98025676Y-100085333D02*
X97930438Y-100180571D01*
X97930438Y-100180571D02*
X97882819Y-100323428D01*
X97882819Y-100323428D02*
X97882819Y-100418666D01*
X97882819Y-100418666D02*
X97930438Y-100561523D01*
X97930438Y-100561523D02*
X97978057Y-100609142D01*
X97978057Y-100990095D02*
X97930438Y-101037714D01*
X97930438Y-101037714D02*
X97882819Y-101132952D01*
X97882819Y-101132952D02*
X97882819Y-101371047D01*
X97882819Y-101371047D02*
X97930438Y-101466285D01*
X97930438Y-101466285D02*
X97978057Y-101513904D01*
X97978057Y-101513904D02*
X98073295Y-101561523D01*
X98073295Y-101561523D02*
X98168533Y-101561523D01*
X98168533Y-101561523D02*
X98311390Y-101513904D01*
X98311390Y-101513904D02*
X98882819Y-100942476D01*
X98882819Y-100942476D02*
X98882819Y-101561523D01*
X98882819Y-102513904D02*
X98882819Y-101942476D01*
X98882819Y-102228190D02*
X97882819Y-102228190D01*
X97882819Y-102228190D02*
X98025676Y-102132952D01*
X98025676Y-102132952D02*
X98120914Y-102037714D01*
X98120914Y-102037714D02*
X98168533Y-101942476D01*
X119906000Y-112878366D02*
X119939333Y-112911700D01*
X119939333Y-112911700D02*
X120039333Y-112945033D01*
X120039333Y-112945033D02*
X120106000Y-112945033D01*
X120106000Y-112945033D02*
X120206000Y-112911700D01*
X120206000Y-112911700D02*
X120272667Y-112845033D01*
X120272667Y-112845033D02*
X120306000Y-112778366D01*
X120306000Y-112778366D02*
X120339333Y-112645033D01*
X120339333Y-112645033D02*
X120339333Y-112545033D01*
X120339333Y-112545033D02*
X120306000Y-112411700D01*
X120306000Y-112411700D02*
X120272667Y-112345033D01*
X120272667Y-112345033D02*
X120206000Y-112278366D01*
X120206000Y-112278366D02*
X120106000Y-112245033D01*
X120106000Y-112245033D02*
X120039333Y-112245033D01*
X120039333Y-112245033D02*
X119939333Y-112278366D01*
X119939333Y-112278366D02*
X119906000Y-112311700D01*
X119306000Y-112478366D02*
X119306000Y-112945033D01*
X119472667Y-112211700D02*
X119639333Y-112711700D01*
X119639333Y-112711700D02*
X119206000Y-112711700D01*
X118972666Y-112311700D02*
X118939333Y-112278366D01*
X118939333Y-112278366D02*
X118872666Y-112245033D01*
X118872666Y-112245033D02*
X118706000Y-112245033D01*
X118706000Y-112245033D02*
X118639333Y-112278366D01*
X118639333Y-112278366D02*
X118606000Y-112311700D01*
X118606000Y-112311700D02*
X118572666Y-112378366D01*
X118572666Y-112378366D02*
X118572666Y-112445033D01*
X118572666Y-112445033D02*
X118606000Y-112545033D01*
X118606000Y-112545033D02*
X119006000Y-112945033D01*
X119006000Y-112945033D02*
X118572666Y-112945033D01*
X90613094Y-133089819D02*
X90613094Y-133899342D01*
X90613094Y-133899342D02*
X90565475Y-133994580D01*
X90565475Y-133994580D02*
X90517856Y-134042200D01*
X90517856Y-134042200D02*
X90422618Y-134089819D01*
X90422618Y-134089819D02*
X90232142Y-134089819D01*
X90232142Y-134089819D02*
X90136904Y-134042200D01*
X90136904Y-134042200D02*
X90089285Y-133994580D01*
X90089285Y-133994580D02*
X90041666Y-133899342D01*
X90041666Y-133899342D02*
X90041666Y-133089819D01*
X89613094Y-133185057D02*
X89565475Y-133137438D01*
X89565475Y-133137438D02*
X89470237Y-133089819D01*
X89470237Y-133089819D02*
X89232142Y-133089819D01*
X89232142Y-133089819D02*
X89136904Y-133137438D01*
X89136904Y-133137438D02*
X89089285Y-133185057D01*
X89089285Y-133185057D02*
X89041666Y-133280295D01*
X89041666Y-133280295D02*
X89041666Y-133375533D01*
X89041666Y-133375533D02*
X89089285Y-133518390D01*
X89089285Y-133518390D02*
X89660713Y-134089819D01*
X89660713Y-134089819D02*
X89041666Y-134089819D01*
X88565475Y-134089819D02*
X88374999Y-134089819D01*
X88374999Y-134089819D02*
X88279761Y-134042200D01*
X88279761Y-134042200D02*
X88232142Y-133994580D01*
X88232142Y-133994580D02*
X88136904Y-133851723D01*
X88136904Y-133851723D02*
X88089285Y-133661247D01*
X88089285Y-133661247D02*
X88089285Y-133280295D01*
X88089285Y-133280295D02*
X88136904Y-133185057D01*
X88136904Y-133185057D02*
X88184523Y-133137438D01*
X88184523Y-133137438D02*
X88279761Y-133089819D01*
X88279761Y-133089819D02*
X88470237Y-133089819D01*
X88470237Y-133089819D02*
X88565475Y-133137438D01*
X88565475Y-133137438D02*
X88613094Y-133185057D01*
X88613094Y-133185057D02*
X88660713Y-133280295D01*
X88660713Y-133280295D02*
X88660713Y-133518390D01*
X88660713Y-133518390D02*
X88613094Y-133613628D01*
X88613094Y-133613628D02*
X88565475Y-133661247D01*
X88565475Y-133661247D02*
X88470237Y-133708866D01*
X88470237Y-133708866D02*
X88279761Y-133708866D01*
X88279761Y-133708866D02*
X88184523Y-133661247D01*
X88184523Y-133661247D02*
X88136904Y-133613628D01*
X88136904Y-133613628D02*
X88089285Y-133518390D01*
X80988819Y-109606142D02*
X80512628Y-109272809D01*
X80988819Y-109034714D02*
X79988819Y-109034714D01*
X79988819Y-109034714D02*
X79988819Y-109415666D01*
X79988819Y-109415666D02*
X80036438Y-109510904D01*
X80036438Y-109510904D02*
X80084057Y-109558523D01*
X80084057Y-109558523D02*
X80179295Y-109606142D01*
X80179295Y-109606142D02*
X80322152Y-109606142D01*
X80322152Y-109606142D02*
X80417390Y-109558523D01*
X80417390Y-109558523D02*
X80465009Y-109510904D01*
X80465009Y-109510904D02*
X80512628Y-109415666D01*
X80512628Y-109415666D02*
X80512628Y-109034714D01*
X80988819Y-110558523D02*
X80988819Y-109987095D01*
X80988819Y-110272809D02*
X79988819Y-110272809D01*
X79988819Y-110272809D02*
X80131676Y-110177571D01*
X80131676Y-110177571D02*
X80226914Y-110082333D01*
X80226914Y-110082333D02*
X80274533Y-109987095D01*
X79988819Y-111177571D02*
X79988819Y-111272809D01*
X79988819Y-111272809D02*
X80036438Y-111368047D01*
X80036438Y-111368047D02*
X80084057Y-111415666D01*
X80084057Y-111415666D02*
X80179295Y-111463285D01*
X80179295Y-111463285D02*
X80369771Y-111510904D01*
X80369771Y-111510904D02*
X80607866Y-111510904D01*
X80607866Y-111510904D02*
X80798342Y-111463285D01*
X80798342Y-111463285D02*
X80893580Y-111415666D01*
X80893580Y-111415666D02*
X80941200Y-111368047D01*
X80941200Y-111368047D02*
X80988819Y-111272809D01*
X80988819Y-111272809D02*
X80988819Y-111177571D01*
X80988819Y-111177571D02*
X80941200Y-111082333D01*
X80941200Y-111082333D02*
X80893580Y-111034714D01*
X80893580Y-111034714D02*
X80798342Y-110987095D01*
X80798342Y-110987095D02*
X80607866Y-110939476D01*
X80607866Y-110939476D02*
X80369771Y-110939476D01*
X80369771Y-110939476D02*
X80179295Y-110987095D01*
X80179295Y-110987095D02*
X80084057Y-111034714D01*
X80084057Y-111034714D02*
X80036438Y-111082333D01*
X80036438Y-111082333D02*
X79988819Y-111177571D01*
D11*
X104737500Y-73717333D02*
X104970833Y-73384000D01*
X105137500Y-73717333D02*
X105137500Y-73017333D01*
X105137500Y-73017333D02*
X104870833Y-73017333D01*
X104870833Y-73017333D02*
X104804167Y-73050666D01*
X104804167Y-73050666D02*
X104770833Y-73084000D01*
X104770833Y-73084000D02*
X104737500Y-73150666D01*
X104737500Y-73150666D02*
X104737500Y-73250666D01*
X104737500Y-73250666D02*
X104770833Y-73317333D01*
X104770833Y-73317333D02*
X104804167Y-73350666D01*
X104804167Y-73350666D02*
X104870833Y-73384000D01*
X104870833Y-73384000D02*
X105137500Y-73384000D01*
X104470833Y-73084000D02*
X104437500Y-73050666D01*
X104437500Y-73050666D02*
X104370833Y-73017333D01*
X104370833Y-73017333D02*
X104204167Y-73017333D01*
X104204167Y-73017333D02*
X104137500Y-73050666D01*
X104137500Y-73050666D02*
X104104167Y-73084000D01*
X104104167Y-73084000D02*
X104070833Y-73150666D01*
X104070833Y-73150666D02*
X104070833Y-73217333D01*
X104070833Y-73217333D02*
X104104167Y-73317333D01*
X104104167Y-73317333D02*
X104504167Y-73717333D01*
X104504167Y-73717333D02*
X104070833Y-73717333D01*
X103404166Y-73717333D02*
X103804166Y-73717333D01*
X103604166Y-73717333D02*
X103604166Y-73017333D01*
X103604166Y-73017333D02*
X103670833Y-73117333D01*
X103670833Y-73117333D02*
X103737500Y-73184000D01*
X103737500Y-73184000D02*
X103804166Y-73217333D01*
D10*
X80988819Y-129093642D02*
X80512628Y-128760309D01*
X80988819Y-128522214D02*
X79988819Y-128522214D01*
X79988819Y-128522214D02*
X79988819Y-128903166D01*
X79988819Y-128903166D02*
X80036438Y-128998404D01*
X80036438Y-128998404D02*
X80084057Y-129046023D01*
X80084057Y-129046023D02*
X80179295Y-129093642D01*
X80179295Y-129093642D02*
X80322152Y-129093642D01*
X80322152Y-129093642D02*
X80417390Y-129046023D01*
X80417390Y-129046023D02*
X80465009Y-128998404D01*
X80465009Y-128998404D02*
X80512628Y-128903166D01*
X80512628Y-128903166D02*
X80512628Y-128522214D01*
X80988819Y-130046023D02*
X80988819Y-129474595D01*
X80988819Y-129760309D02*
X79988819Y-129760309D01*
X79988819Y-129760309D02*
X80131676Y-129665071D01*
X80131676Y-129665071D02*
X80226914Y-129569833D01*
X80226914Y-129569833D02*
X80274533Y-129474595D01*
X79988819Y-130379357D02*
X79988819Y-130998404D01*
X79988819Y-130998404D02*
X80369771Y-130665071D01*
X80369771Y-130665071D02*
X80369771Y-130807928D01*
X80369771Y-130807928D02*
X80417390Y-130903166D01*
X80417390Y-130903166D02*
X80465009Y-130950785D01*
X80465009Y-130950785D02*
X80560247Y-130998404D01*
X80560247Y-130998404D02*
X80798342Y-130998404D01*
X80798342Y-130998404D02*
X80893580Y-130950785D01*
X80893580Y-130950785D02*
X80941200Y-130903166D01*
X80941200Y-130903166D02*
X80988819Y-130807928D01*
X80988819Y-130807928D02*
X80988819Y-130522214D01*
X80988819Y-130522214D02*
X80941200Y-130426976D01*
X80941200Y-130426976D02*
X80893580Y-130379357D01*
D12*
X129959695Y-114366666D02*
X129959695Y-113985714D01*
X129959695Y-113985714D02*
X129159695Y-113985714D01*
X129959695Y-115052380D02*
X129959695Y-114595237D01*
X129959695Y-114823809D02*
X129159695Y-114823809D01*
X129159695Y-114823809D02*
X129273980Y-114747618D01*
X129273980Y-114747618D02*
X129350171Y-114671428D01*
X129350171Y-114671428D02*
X129388266Y-114595237D01*
D10*
X118131580Y-119512142D02*
X118179200Y-119464523D01*
X118179200Y-119464523D02*
X118226819Y-119321666D01*
X118226819Y-119321666D02*
X118226819Y-119226428D01*
X118226819Y-119226428D02*
X118179200Y-119083571D01*
X118179200Y-119083571D02*
X118083961Y-118988333D01*
X118083961Y-118988333D02*
X117988723Y-118940714D01*
X117988723Y-118940714D02*
X117798247Y-118893095D01*
X117798247Y-118893095D02*
X117655390Y-118893095D01*
X117655390Y-118893095D02*
X117464914Y-118940714D01*
X117464914Y-118940714D02*
X117369676Y-118988333D01*
X117369676Y-118988333D02*
X117274438Y-119083571D01*
X117274438Y-119083571D02*
X117226819Y-119226428D01*
X117226819Y-119226428D02*
X117226819Y-119321666D01*
X117226819Y-119321666D02*
X117274438Y-119464523D01*
X117274438Y-119464523D02*
X117322057Y-119512142D01*
X117322057Y-119893095D02*
X117274438Y-119940714D01*
X117274438Y-119940714D02*
X117226819Y-120035952D01*
X117226819Y-120035952D02*
X117226819Y-120274047D01*
X117226819Y-120274047D02*
X117274438Y-120369285D01*
X117274438Y-120369285D02*
X117322057Y-120416904D01*
X117322057Y-120416904D02*
X117417295Y-120464523D01*
X117417295Y-120464523D02*
X117512533Y-120464523D01*
X117512533Y-120464523D02*
X117655390Y-120416904D01*
X117655390Y-120416904D02*
X118226819Y-119845476D01*
X118226819Y-119845476D02*
X118226819Y-120464523D01*
X117226819Y-121369285D02*
X117226819Y-120893095D01*
X117226819Y-120893095D02*
X117703009Y-120845476D01*
X117703009Y-120845476D02*
X117655390Y-120893095D01*
X117655390Y-120893095D02*
X117607771Y-120988333D01*
X117607771Y-120988333D02*
X117607771Y-121226428D01*
X117607771Y-121226428D02*
X117655390Y-121321666D01*
X117655390Y-121321666D02*
X117703009Y-121369285D01*
X117703009Y-121369285D02*
X117798247Y-121416904D01*
X117798247Y-121416904D02*
X118036342Y-121416904D01*
X118036342Y-121416904D02*
X118131580Y-121369285D01*
X118131580Y-121369285D02*
X118179200Y-121321666D01*
X118179200Y-121321666D02*
X118226819Y-121226428D01*
X118226819Y-121226428D02*
X118226819Y-120988333D01*
X118226819Y-120988333D02*
X118179200Y-120893095D01*
X118179200Y-120893095D02*
X118131580Y-120845476D01*
X133016033Y-120683333D02*
X132682700Y-120450000D01*
X133016033Y-120283333D02*
X132316033Y-120283333D01*
X132316033Y-120283333D02*
X132316033Y-120550000D01*
X132316033Y-120550000D02*
X132349366Y-120616667D01*
X132349366Y-120616667D02*
X132382700Y-120650000D01*
X132382700Y-120650000D02*
X132449366Y-120683333D01*
X132449366Y-120683333D02*
X132549366Y-120683333D01*
X132549366Y-120683333D02*
X132616033Y-120650000D01*
X132616033Y-120650000D02*
X132649366Y-120616667D01*
X132649366Y-120616667D02*
X132682700Y-120550000D01*
X132682700Y-120550000D02*
X132682700Y-120283333D01*
X132316033Y-121316667D02*
X132316033Y-120983333D01*
X132316033Y-120983333D02*
X132649366Y-120950000D01*
X132649366Y-120950000D02*
X132616033Y-120983333D01*
X132616033Y-120983333D02*
X132582700Y-121050000D01*
X132582700Y-121050000D02*
X132582700Y-121216667D01*
X132582700Y-121216667D02*
X132616033Y-121283333D01*
X132616033Y-121283333D02*
X132649366Y-121316667D01*
X132649366Y-121316667D02*
X132716033Y-121350000D01*
X132716033Y-121350000D02*
X132882700Y-121350000D01*
X132882700Y-121350000D02*
X132949366Y-121316667D01*
X132949366Y-121316667D02*
X132982700Y-121283333D01*
X132982700Y-121283333D02*
X133016033Y-121216667D01*
X133016033Y-121216667D02*
X133016033Y-121050000D01*
X133016033Y-121050000D02*
X132982700Y-120983333D01*
X132982700Y-120983333D02*
X132949366Y-120950000D01*
X81050000Y-78546033D02*
X81283333Y-78212700D01*
X81450000Y-78546033D02*
X81450000Y-77846033D01*
X81450000Y-77846033D02*
X81183333Y-77846033D01*
X81183333Y-77846033D02*
X81116667Y-77879366D01*
X81116667Y-77879366D02*
X81083333Y-77912700D01*
X81083333Y-77912700D02*
X81050000Y-77979366D01*
X81050000Y-77979366D02*
X81050000Y-78079366D01*
X81050000Y-78079366D02*
X81083333Y-78146033D01*
X81083333Y-78146033D02*
X81116667Y-78179366D01*
X81116667Y-78179366D02*
X81183333Y-78212700D01*
X81183333Y-78212700D02*
X81450000Y-78212700D01*
X80783333Y-77912700D02*
X80750000Y-77879366D01*
X80750000Y-77879366D02*
X80683333Y-77846033D01*
X80683333Y-77846033D02*
X80516667Y-77846033D01*
X80516667Y-77846033D02*
X80450000Y-77879366D01*
X80450000Y-77879366D02*
X80416667Y-77912700D01*
X80416667Y-77912700D02*
X80383333Y-77979366D01*
X80383333Y-77979366D02*
X80383333Y-78046033D01*
X80383333Y-78046033D02*
X80416667Y-78146033D01*
X80416667Y-78146033D02*
X80816667Y-78546033D01*
X80816667Y-78546033D02*
X80383333Y-78546033D01*
X79783333Y-77846033D02*
X79916666Y-77846033D01*
X79916666Y-77846033D02*
X79983333Y-77879366D01*
X79983333Y-77879366D02*
X80016666Y-77912700D01*
X80016666Y-77912700D02*
X80083333Y-78012700D01*
X80083333Y-78012700D02*
X80116666Y-78146033D01*
X80116666Y-78146033D02*
X80116666Y-78412700D01*
X80116666Y-78412700D02*
X80083333Y-78479366D01*
X80083333Y-78479366D02*
X80050000Y-78512700D01*
X80050000Y-78512700D02*
X79983333Y-78546033D01*
X79983333Y-78546033D02*
X79850000Y-78546033D01*
X79850000Y-78546033D02*
X79783333Y-78512700D01*
X79783333Y-78512700D02*
X79750000Y-78479366D01*
X79750000Y-78479366D02*
X79716666Y-78412700D01*
X79716666Y-78412700D02*
X79716666Y-78246033D01*
X79716666Y-78246033D02*
X79750000Y-78179366D01*
X79750000Y-78179366D02*
X79783333Y-78146033D01*
X79783333Y-78146033D02*
X79850000Y-78112700D01*
X79850000Y-78112700D02*
X79983333Y-78112700D01*
X79983333Y-78112700D02*
X80050000Y-78146033D01*
X80050000Y-78146033D02*
X80083333Y-78179366D01*
X80083333Y-78179366D02*
X80116666Y-78246033D01*
X129816666Y-85949366D02*
X129849999Y-85982700D01*
X129849999Y-85982700D02*
X129949999Y-86016033D01*
X129949999Y-86016033D02*
X130016666Y-86016033D01*
X130016666Y-86016033D02*
X130116666Y-85982700D01*
X130116666Y-85982700D02*
X130183333Y-85916033D01*
X130183333Y-85916033D02*
X130216666Y-85849366D01*
X130216666Y-85849366D02*
X130249999Y-85716033D01*
X130249999Y-85716033D02*
X130249999Y-85616033D01*
X130249999Y-85616033D02*
X130216666Y-85482700D01*
X130216666Y-85482700D02*
X130183333Y-85416033D01*
X130183333Y-85416033D02*
X130116666Y-85349366D01*
X130116666Y-85349366D02*
X130016666Y-85316033D01*
X130016666Y-85316033D02*
X129949999Y-85316033D01*
X129949999Y-85316033D02*
X129849999Y-85349366D01*
X129849999Y-85349366D02*
X129816666Y-85382700D01*
X129483333Y-86016033D02*
X129349999Y-86016033D01*
X129349999Y-86016033D02*
X129283333Y-85982700D01*
X129283333Y-85982700D02*
X129249999Y-85949366D01*
X129249999Y-85949366D02*
X129183333Y-85849366D01*
X129183333Y-85849366D02*
X129149999Y-85716033D01*
X129149999Y-85716033D02*
X129149999Y-85449366D01*
X129149999Y-85449366D02*
X129183333Y-85382700D01*
X129183333Y-85382700D02*
X129216666Y-85349366D01*
X129216666Y-85349366D02*
X129283333Y-85316033D01*
X129283333Y-85316033D02*
X129416666Y-85316033D01*
X129416666Y-85316033D02*
X129483333Y-85349366D01*
X129483333Y-85349366D02*
X129516666Y-85382700D01*
X129516666Y-85382700D02*
X129549999Y-85449366D01*
X129549999Y-85449366D02*
X129549999Y-85616033D01*
X129549999Y-85616033D02*
X129516666Y-85682700D01*
X129516666Y-85682700D02*
X129483333Y-85716033D01*
X129483333Y-85716033D02*
X129416666Y-85749366D01*
X129416666Y-85749366D02*
X129283333Y-85749366D01*
X129283333Y-85749366D02*
X129216666Y-85716033D01*
X129216666Y-85716033D02*
X129183333Y-85682700D01*
X129183333Y-85682700D02*
X129149999Y-85616033D01*
X110613094Y-131922819D02*
X110613094Y-132732342D01*
X110613094Y-132732342D02*
X110565475Y-132827580D01*
X110565475Y-132827580D02*
X110517856Y-132875200D01*
X110517856Y-132875200D02*
X110422618Y-132922819D01*
X110422618Y-132922819D02*
X110232142Y-132922819D01*
X110232142Y-132922819D02*
X110136904Y-132875200D01*
X110136904Y-132875200D02*
X110089285Y-132827580D01*
X110089285Y-132827580D02*
X110041666Y-132732342D01*
X110041666Y-132732342D02*
X110041666Y-131922819D01*
X109660713Y-131922819D02*
X109041666Y-131922819D01*
X109041666Y-131922819D02*
X109374999Y-132303771D01*
X109374999Y-132303771D02*
X109232142Y-132303771D01*
X109232142Y-132303771D02*
X109136904Y-132351390D01*
X109136904Y-132351390D02*
X109089285Y-132399009D01*
X109089285Y-132399009D02*
X109041666Y-132494247D01*
X109041666Y-132494247D02*
X109041666Y-132732342D01*
X109041666Y-132732342D02*
X109089285Y-132827580D01*
X109089285Y-132827580D02*
X109136904Y-132875200D01*
X109136904Y-132875200D02*
X109232142Y-132922819D01*
X109232142Y-132922819D02*
X109517856Y-132922819D01*
X109517856Y-132922819D02*
X109613094Y-132875200D01*
X109613094Y-132875200D02*
X109660713Y-132827580D01*
X108422618Y-131922819D02*
X108327380Y-131922819D01*
X108327380Y-131922819D02*
X108232142Y-131970438D01*
X108232142Y-131970438D02*
X108184523Y-132018057D01*
X108184523Y-132018057D02*
X108136904Y-132113295D01*
X108136904Y-132113295D02*
X108089285Y-132303771D01*
X108089285Y-132303771D02*
X108089285Y-132541866D01*
X108089285Y-132541866D02*
X108136904Y-132732342D01*
X108136904Y-132732342D02*
X108184523Y-132827580D01*
X108184523Y-132827580D02*
X108232142Y-132875200D01*
X108232142Y-132875200D02*
X108327380Y-132922819D01*
X108327380Y-132922819D02*
X108422618Y-132922819D01*
X108422618Y-132922819D02*
X108517856Y-132875200D01*
X108517856Y-132875200D02*
X108565475Y-132827580D01*
X108565475Y-132827580D02*
X108613094Y-132732342D01*
X108613094Y-132732342D02*
X108660713Y-132541866D01*
X108660713Y-132541866D02*
X108660713Y-132303771D01*
X108660713Y-132303771D02*
X108613094Y-132113295D01*
X108613094Y-132113295D02*
X108565475Y-132018057D01*
X108565475Y-132018057D02*
X108517856Y-131970438D01*
X108517856Y-131970438D02*
X108422618Y-131922819D01*
X131877057Y-141387261D02*
X131829438Y-141292023D01*
X131829438Y-141292023D02*
X131734200Y-141196785D01*
X131734200Y-141196785D02*
X131591342Y-141053928D01*
X131591342Y-141053928D02*
X131543723Y-140958690D01*
X131543723Y-140958690D02*
X131543723Y-140863452D01*
X131781819Y-140911071D02*
X131734200Y-140815833D01*
X131734200Y-140815833D02*
X131638961Y-140720595D01*
X131638961Y-140720595D02*
X131448485Y-140672976D01*
X131448485Y-140672976D02*
X131115152Y-140672976D01*
X131115152Y-140672976D02*
X130924676Y-140720595D01*
X130924676Y-140720595D02*
X130829438Y-140815833D01*
X130829438Y-140815833D02*
X130781819Y-140911071D01*
X130781819Y-140911071D02*
X130781819Y-141101547D01*
X130781819Y-141101547D02*
X130829438Y-141196785D01*
X130829438Y-141196785D02*
X130924676Y-141292023D01*
X130924676Y-141292023D02*
X131115152Y-141339642D01*
X131115152Y-141339642D02*
X131448485Y-141339642D01*
X131448485Y-141339642D02*
X131638961Y-141292023D01*
X131638961Y-141292023D02*
X131734200Y-141196785D01*
X131734200Y-141196785D02*
X131781819Y-141101547D01*
X131781819Y-141101547D02*
X131781819Y-140911071D01*
X130877057Y-141720595D02*
X130829438Y-141768214D01*
X130829438Y-141768214D02*
X130781819Y-141863452D01*
X130781819Y-141863452D02*
X130781819Y-142101547D01*
X130781819Y-142101547D02*
X130829438Y-142196785D01*
X130829438Y-142196785D02*
X130877057Y-142244404D01*
X130877057Y-142244404D02*
X130972295Y-142292023D01*
X130972295Y-142292023D02*
X131067533Y-142292023D01*
X131067533Y-142292023D02*
X131210390Y-142244404D01*
X131210390Y-142244404D02*
X131781819Y-141672976D01*
X131781819Y-141672976D02*
X131781819Y-142292023D01*
%TO.C,C45*%
D13*
X120150267Y-132525000D02*
X119857733Y-132525000D01*
X120150267Y-133545000D02*
X119857733Y-133545000D01*
%TO.C,C20*%
X80166000Y-100266733D02*
X80166000Y-100559267D01*
X81186000Y-100266733D02*
X81186000Y-100559267D01*
%TO.C,C23*%
X79864000Y-120262733D02*
X79864000Y-120555267D01*
X80884000Y-120262733D02*
X80884000Y-120555267D01*
%TO.C,C37*%
X80822267Y-94569000D02*
X80529733Y-94569000D01*
X80822267Y-95589000D02*
X80529733Y-95589000D01*
%TO.C,C41*%
X100980267Y-113268000D02*
X100687733Y-113268000D01*
X100980267Y-114288000D02*
X100687733Y-114288000D01*
%TO.C,C29*%
X80218000Y-158014733D02*
X80218000Y-158307267D01*
X81238000Y-158014733D02*
X81238000Y-158307267D01*
%TO.C,R4*%
X131654724Y-122977500D02*
X131145276Y-122977500D01*
X131654724Y-124022500D02*
X131145276Y-124022500D01*
%TO.C,C47*%
X100138267Y-151628000D02*
X99845733Y-151628000D01*
X100138267Y-152648000D02*
X99845733Y-152648000D01*
%TO.C,R27*%
X130977500Y-149945276D02*
X130977500Y-150454724D01*
X132022500Y-149945276D02*
X132022500Y-150454724D01*
%TO.C,U35*%
X108240000Y-83140000D02*
X108240000Y-83235000D01*
X108240000Y-88165000D02*
X108240000Y-88260000D01*
X108240000Y-88260000D02*
X112360000Y-88260000D01*
X112360000Y-83140000D02*
X108240000Y-83140000D01*
X112360000Y-83235000D02*
X112360000Y-83140000D01*
X112360000Y-88260000D02*
X112360000Y-88165000D01*
X107700000Y-88170000D02*
X107460000Y-88500000D01*
X107940000Y-88500000D01*
X107700000Y-88170000D01*
G36*
X107940000Y-88500000D02*
G01*
X107460000Y-88500000D01*
X107700000Y-88170000D01*
X107940000Y-88500000D01*
G37*
%TO.C,R33*%
X104754724Y-74577500D02*
X104245276Y-74577500D01*
X104754724Y-75622500D02*
X104245276Y-75622500D01*
%TO.C,R31*%
X101454724Y-79977500D02*
X100945276Y-79977500D01*
X101454724Y-81022500D02*
X100945276Y-81022500D01*
%TO.C,C11*%
X128053733Y-150190000D02*
X128346267Y-150190000D01*
X128053733Y-151210000D02*
X128346267Y-151210000D01*
%TO.C,R11*%
X98025500Y-110222724D02*
X98025500Y-109713276D01*
X99070500Y-110222724D02*
X99070500Y-109713276D01*
%TO.C,C26*%
X80372000Y-139138733D02*
X80372000Y-139431267D01*
X81392000Y-139138733D02*
X81392000Y-139431267D01*
%TO.C,R20*%
X124954724Y-77677500D02*
X124445276Y-77677500D01*
X124954724Y-78722500D02*
X124445276Y-78722500D01*
%TO.C,R19*%
X124942224Y-80777500D02*
X124432776Y-80777500D01*
X124942224Y-81822500D02*
X124432776Y-81822500D01*
%TO.C,C39*%
X120150267Y-94319000D02*
X119857733Y-94319000D01*
X120150267Y-95339000D02*
X119857733Y-95339000D01*
%TO.C,R9*%
X117957500Y-91781724D02*
X117957500Y-91272276D01*
X119002500Y-91781724D02*
X119002500Y-91272276D01*
%TO.C,R32*%
X99677500Y-75454724D02*
X99677500Y-74945276D01*
X100722500Y-75454724D02*
X100722500Y-74945276D01*
%TO.C,U33*%
D14*
X130600000Y-130150000D02*
G75*
G02*
X130400000Y-130150000I-100000J0D01*
G01*
X130400000Y-130150000D02*
G75*
G02*
X130600000Y-130150000I100000J0D01*
G01*
%TO.C,C2*%
D13*
X125753733Y-124490000D02*
X126046267Y-124490000D01*
X125753733Y-125510000D02*
X126046267Y-125510000D01*
%TO.C,R25*%
X125977500Y-96954724D02*
X125977500Y-96445276D01*
X127022500Y-96954724D02*
X127022500Y-96445276D01*
%TO.C,R18*%
X117703500Y-148355724D02*
X117703500Y-147846276D01*
X118748500Y-148355724D02*
X118748500Y-147846276D01*
%TO.C,R43*%
X126377500Y-87745276D02*
X126377500Y-88254724D01*
X127422500Y-87745276D02*
X127422500Y-88254724D01*
%TO.C,C40*%
X81435767Y-113295000D02*
X81143233Y-113295000D01*
X81435767Y-114315000D02*
X81143233Y-114315000D01*
%TO.C,J1*%
D12*
X127300000Y-153200000D02*
X127300000Y-153900000D01*
X127300000Y-153200000D02*
X130100000Y-153200000D01*
X127300000Y-153900000D02*
X128300000Y-153900000D01*
X127300000Y-158700000D02*
X127300000Y-159400000D01*
X127300000Y-159400000D02*
X130100000Y-159400000D01*
X128300000Y-153900000D02*
X128300000Y-154900000D01*
X128300000Y-157700000D02*
X128300000Y-158700000D01*
X128300000Y-158700000D02*
X127300000Y-158700000D01*
X132700000Y-153200000D02*
X133500000Y-153200000D01*
X133500000Y-153200000D02*
X133500000Y-159400000D01*
X133500000Y-159400000D02*
X132700000Y-159400000D01*
X127550000Y-154700000D02*
G75*
G02*
X127350000Y-154700000I-100000J0D01*
G01*
X127350000Y-154700000D02*
G75*
G02*
X127550000Y-154700000I100000J0D01*
G01*
%TO.C,R3*%
D13*
X125945276Y-118077500D02*
X126454724Y-118077500D01*
X125945276Y-119122500D02*
X126454724Y-119122500D01*
%TO.C,C48*%
X119642267Y-151655000D02*
X119349733Y-151655000D01*
X119642267Y-152675000D02*
X119349733Y-152675000D01*
%TO.C,R12*%
X117409500Y-110249724D02*
X117409500Y-109740276D01*
X118454500Y-110249724D02*
X118454500Y-109740276D01*
%TO.C,R15*%
X118465500Y-129225724D02*
X118465500Y-128716276D01*
X119510500Y-129225724D02*
X119510500Y-128716276D01*
%TO.C,R22*%
X100254724Y-71877500D02*
X99745276Y-71877500D01*
X100254724Y-72922500D02*
X99745276Y-72922500D01*
%TO.C,C38*%
X100258267Y-94392000D02*
X99965733Y-94392000D01*
X100258267Y-95412000D02*
X99965733Y-95412000D01*
%TO.C,C43*%
X80774267Y-132933000D02*
X80481733Y-132933000D01*
X80774267Y-133953000D02*
X80481733Y-133953000D01*
%TO.C,R6*%
X111630750Y-68204724D02*
X111630750Y-67695276D01*
X112675750Y-68204724D02*
X112675750Y-67695276D01*
%TO.C,C19*%
X126990000Y-130046267D02*
X126990000Y-129753733D01*
X128010000Y-130046267D02*
X128010000Y-129753733D01*
%TO.C,C10*%
X123753733Y-90990000D02*
X124046267Y-90990000D01*
X123753733Y-92010000D02*
X124046267Y-92010000D01*
%TO.C,U32*%
X127140000Y-146990000D02*
X127140000Y-148810000D01*
X127140000Y-148810000D02*
X127190000Y-148810000D01*
X127190000Y-146990000D02*
X127140000Y-146990000D01*
X130210000Y-148810000D02*
X130260000Y-148810000D01*
X130260000Y-146990000D02*
X130210000Y-146990000D01*
X130260000Y-148810000D02*
X130260000Y-146990000D01*
X127190000Y-146450000D02*
X126860000Y-146210000D01*
X126860000Y-146690000D01*
X127190000Y-146450000D01*
G36*
X127190000Y-146450000D02*
G01*
X126860000Y-146690000D01*
X126860000Y-146210000D01*
X127190000Y-146450000D01*
G37*
%TO.C,C5*%
X107416233Y-70090000D02*
X107708767Y-70090000D01*
X107416233Y-71110000D02*
X107708767Y-71110000D01*
%TO.C,R30*%
X130077500Y-133454724D02*
X130077500Y-132945276D01*
X131122500Y-133454724D02*
X131122500Y-132945276D01*
%TO.C,R2*%
X125277500Y-122154724D02*
X125277500Y-121645276D01*
X126322500Y-122154724D02*
X126322500Y-121645276D01*
%TO.C,R24*%
X123245276Y-92677500D02*
X123754724Y-92677500D01*
X123245276Y-93722500D02*
X123754724Y-93722500D01*
%TO.C,C46*%
X81636267Y-151555000D02*
X81343733Y-151555000D01*
X81636267Y-152575000D02*
X81343733Y-152575000D01*
%TO.C,C44*%
X100392267Y-132238000D02*
X100099733Y-132238000D01*
X100392267Y-133258000D02*
X100099733Y-133258000D01*
%TO.C,R7*%
X78883500Y-91777724D02*
X78883500Y-91268276D01*
X79928500Y-91777724D02*
X79928500Y-91268276D01*
%TO.C,J3*%
X129640000Y-88890000D02*
X129640000Y-90640000D01*
X129640000Y-96360000D02*
X127750000Y-96360000D01*
X129640000Y-98110000D02*
X129640000Y-96360000D01*
X130290000Y-88890000D02*
X129640000Y-88890000D01*
X130290000Y-98110000D02*
X129640000Y-98110000D01*
X133110000Y-98110000D02*
X133560000Y-98110000D01*
X133560000Y-88890000D02*
X133110000Y-88890000D01*
X133560000Y-98110000D02*
X133560000Y-88890000D01*
%TO.C,U28*%
X107140000Y-101390000D02*
X107140000Y-101565000D01*
X107140000Y-109635000D02*
X107140000Y-109810000D01*
X107140000Y-109810000D02*
X112660000Y-109810000D01*
X112660000Y-101390000D02*
X107140000Y-101390000D01*
X112660000Y-101565000D02*
X112660000Y-101390000D01*
X112660000Y-109810000D02*
X112660000Y-109635000D01*
X113400000Y-101560000D02*
X113740000Y-101090000D01*
X113060000Y-101090000D01*
X113400000Y-101560000D01*
G36*
X113400000Y-101560000D02*
G01*
X113060000Y-101090000D01*
X113740000Y-101090000D01*
X113400000Y-101560000D01*
G37*
%TO.C,C31*%
X119240000Y-158114733D02*
X119240000Y-158407267D01*
X120260000Y-158114733D02*
X120260000Y-158407267D01*
%TO.C,R14*%
X98453500Y-129192724D02*
X98453500Y-128683276D01*
X99498500Y-129192724D02*
X99498500Y-128683276D01*
%TO.C,C30*%
X99228000Y-158087733D02*
X99228000Y-158380267D01*
X100248000Y-158087733D02*
X100248000Y-158380267D01*
%TO.C,R23*%
X124045276Y-88377500D02*
X124554724Y-88377500D01*
X124045276Y-89422500D02*
X124554724Y-89422500D01*
%TO.C,Q1*%
X107240000Y-66270000D02*
X107240000Y-67200000D01*
X107240000Y-69430000D02*
X107240000Y-68500000D01*
X107240000Y-69430000D02*
X108700000Y-69430000D01*
X108040000Y-66270000D02*
X107240000Y-66270000D01*
X108040000Y-66270000D02*
X108840000Y-66270000D01*
X109340000Y-66240000D02*
X109580000Y-65910000D01*
X109100000Y-65910000D01*
X109340000Y-66240000D01*
G36*
X109340000Y-66240000D02*
G01*
X109100000Y-65910000D01*
X109580000Y-65910000D01*
X109340000Y-66240000D01*
G37*
%TO.C,R29*%
X102354724Y-78477500D02*
X101845276Y-78477500D01*
X102354724Y-79522500D02*
X101845276Y-79522500D01*
%TO.C,C24*%
X99816000Y-119981733D02*
X99816000Y-120274267D01*
X100836000Y-119981733D02*
X100836000Y-120274267D01*
%TO.C,R17*%
X97437500Y-148582724D02*
X97437500Y-148073276D01*
X98482500Y-148582724D02*
X98482500Y-148073276D01*
%TO.C,R39*%
X127754724Y-72377500D02*
X127245276Y-72377500D01*
X127754724Y-73422500D02*
X127245276Y-73422500D01*
%TO.C,C17*%
X129990000Y-126346267D02*
X129990000Y-126053733D01*
X131010000Y-126346267D02*
X131010000Y-126053733D01*
%TO.C,R34*%
X102354724Y-81777500D02*
X101845276Y-81777500D01*
X102354724Y-82822500D02*
X101845276Y-82822500D01*
%TO.C,R16*%
X79189500Y-148255724D02*
X79189500Y-147746276D01*
X80234500Y-148255724D02*
X80234500Y-147746276D01*
%TO.C,C18*%
X128390000Y-126028733D02*
X128390000Y-126321267D01*
X129410000Y-126028733D02*
X129410000Y-126321267D01*
%TO.C,C28*%
X119240000Y-139238733D02*
X119240000Y-139531267D01*
X120260000Y-139238733D02*
X120260000Y-139531267D01*
%TO.C,C27*%
X99228000Y-138951733D02*
X99228000Y-139244267D01*
X100248000Y-138951733D02*
X100248000Y-139244267D01*
%TO.C,C22*%
X118224000Y-100932233D02*
X118224000Y-101224767D01*
X119244000Y-100932233D02*
X119244000Y-101224767D01*
%TO.C,R42*%
X125977500Y-92145276D02*
X125977500Y-92654724D01*
X127022500Y-92145276D02*
X127022500Y-92654724D01*
%TO.C,C21*%
X99348000Y-101105733D02*
X99348000Y-101398267D01*
X100368000Y-101105733D02*
X100368000Y-101398267D01*
%TO.C,J2*%
X93720000Y-67045000D02*
X93720000Y-68455000D01*
X94540000Y-71125000D02*
X94540000Y-70975000D01*
X95340000Y-71125000D02*
X94540000Y-71125000D01*
X102880000Y-67045000D02*
X102880000Y-68455000D01*
%TO.C,C42*%
X119602267Y-113549000D02*
X119309733Y-113549000D01*
X119602267Y-114569000D02*
X119309733Y-114569000D01*
%TO.C,U29*%
D15*
X87935000Y-132500000D02*
X91465000Y-132500000D01*
X91465000Y-127500000D02*
X87935000Y-127500000D01*
D12*
X85610000Y-132275000D02*
G75*
G02*
X85410000Y-132275000I-100000J0D01*
G01*
X85410000Y-132275000D02*
G75*
G02*
X85610000Y-132275000I100000J0D01*
G01*
%TO.C,R10*%
D13*
X78581500Y-110503724D02*
X78581500Y-109994276D01*
X79626500Y-110503724D02*
X79626500Y-109994276D01*
%TO.C,R21*%
X104032776Y-71777500D02*
X104542224Y-71777500D01*
X104032776Y-72822500D02*
X104542224Y-72822500D01*
%TO.C,R13*%
X78581500Y-129991224D02*
X78581500Y-129481776D01*
X79626500Y-129991224D02*
X79626500Y-129481776D01*
%TO.C,L1*%
D12*
X129200000Y-112500000D02*
X130000000Y-112500000D01*
X129200000Y-116500000D02*
X130000000Y-116500000D01*
D16*
X132300000Y-114500000D02*
X132300000Y-114500000D01*
X132400000Y-114500000D02*
X132400000Y-114500000D01*
X132300000Y-114500000D02*
G75*
G02*
X132400000Y-114500000I50000J0D01*
G01*
X132400000Y-114500000D02*
G75*
G02*
X132300000Y-114500000I-50000J0D01*
G01*
%TO.C,C25*%
D13*
X118692000Y-120008733D02*
X118692000Y-120301267D01*
X119712000Y-120008733D02*
X119712000Y-120301267D01*
%TO.C,R5*%
X131077500Y-120545276D02*
X131077500Y-121054724D01*
X132122500Y-120545276D02*
X132122500Y-121054724D01*
%TO.C,R26*%
X80345276Y-76277500D02*
X80854724Y-76277500D01*
X80345276Y-77322500D02*
X80854724Y-77322500D01*
%TO.C,R8*%
X98065500Y-91600724D02*
X98065500Y-91091276D01*
X99110500Y-91600724D02*
X99110500Y-91091276D01*
%TO.C,C9*%
X129453733Y-86190000D02*
X129746267Y-86190000D01*
X129453733Y-87210000D02*
X129746267Y-87210000D01*
%TO.C,U30*%
D15*
X107935000Y-131333000D02*
X111465000Y-131333000D01*
X111465000Y-126333000D02*
X107935000Y-126333000D01*
D12*
X105610000Y-131108000D02*
G75*
G02*
X105410000Y-131108000I-100000J0D01*
G01*
X105410000Y-131108000D02*
G75*
G02*
X105610000Y-131108000I100000J0D01*
G01*
%TO.C,Q2*%
D15*
X127485000Y-143097500D02*
X127485000Y-138597500D01*
X130515000Y-143097500D02*
X130515000Y-138597500D01*
D12*
X130475000Y-145287500D02*
G75*
G02*
X130275000Y-145287500I-100000J0D01*
G01*
X130275000Y-145287500D02*
G75*
G02*
X130475000Y-145287500I100000J0D01*
G01*
%TO.C,U14*%
D15*
X94425000Y-73010000D02*
X90525000Y-73010000D01*
X94425000Y-83140000D02*
X90525000Y-83140000D01*
D12*
X96720000Y-73130000D02*
G75*
G02*
X96520000Y-73130000I-100000J0D01*
G01*
X96520000Y-73130000D02*
G75*
G02*
X96720000Y-73130000I100000J0D01*
G01*
%TD*%
M02*
