%TF.GenerationSoftware,KiCad,Pcbnew,10.0.4*%
%TF.CreationDate,2026-06-29T22:51:09+03:00*%
%TF.ProjectId,macropad,6d616372-6f70-4616-942e-6b696361645f,rev?*%
%TF.SameCoordinates,Original*%
%TF.FileFunction,Legend,Top*%
%TF.FilePolarity,Positive*%
%FSLAX46Y46*%
G04 Gerber Fmt 4.6, Leading zero omitted, Abs format (unit mm)*
G04 Created by KiCad (PCBNEW 10.0.4) date 2026-06-29 22:51:09*
%MOMM*%
%LPD*%
G01*
G04 APERTURE LIST*
%ADD10C,0.200000*%
%ADD11C,0.150000*%
%ADD12C,0.254000*%
%ADD13C,0.120000*%
%ADD14C,0.152400*%
%ADD15C,0.250000*%
%ADD16C,0.000000*%
%ADD17C,0.100000*%
%ADD18C,0.127000*%
G04 APERTURE END LIST*
D10*
X73683000Y-108210000D02*
X87733000Y-108210000D01*
X87733000Y-122260000D01*
X73683000Y-122260000D01*
X73683000Y-108210000D01*
X73683000Y-127260000D02*
X87733000Y-127260000D01*
X87733000Y-141310000D01*
X73683000Y-141310000D01*
X73683000Y-127260000D01*
X73731000Y-89056000D02*
X87781000Y-89056000D01*
X87781000Y-103106000D01*
X73731000Y-103106000D01*
X73731000Y-89056000D01*
X73783000Y-146310000D02*
X87833000Y-146310000D01*
X87833000Y-160360000D01*
X73783000Y-160360000D01*
X73783000Y-146310000D01*
X92713000Y-127327000D02*
X106763000Y-127327000D01*
X106763000Y-141377000D01*
X92713000Y-141377000D01*
X92713000Y-127327000D01*
X92713000Y-146383000D02*
X106763000Y-146383000D01*
X106763000Y-160433000D01*
X92713000Y-160433000D01*
X92713000Y-146383000D01*
X92793000Y-108183000D02*
X106843000Y-108183000D01*
X106843000Y-122233000D01*
X92793000Y-122233000D01*
X92793000Y-108183000D01*
X92833000Y-89133000D02*
X106883000Y-89133000D01*
X106883000Y-103183000D01*
X92833000Y-103183000D01*
X92833000Y-89133000D01*
X111843000Y-108210000D02*
X125893000Y-108210000D01*
X125893000Y-122260000D01*
X111843000Y-122260000D01*
X111843000Y-108210000D01*
X111883000Y-127360000D02*
X125933000Y-127360000D01*
X125933000Y-141410000D01*
X111883000Y-141410000D01*
X111883000Y-127360000D01*
X111883000Y-146410000D02*
X125933000Y-146410000D01*
X125933000Y-160460000D01*
X111883000Y-160460000D01*
X111883000Y-146410000D01*
X111920000Y-89133000D02*
X125970000Y-89133000D01*
X125970000Y-103183000D01*
X111920000Y-103183000D01*
X111920000Y-89133000D01*
D11*
G36*
X124061829Y-77606672D02*
G01*
X124090350Y-77663714D01*
X124090350Y-77679762D01*
X123764160Y-77744999D01*
X123764160Y-77663714D01*
X123792680Y-77606672D01*
X123849722Y-77578152D01*
X124004788Y-77578152D01*
X124061829Y-77606672D01*
G37*
G36*
X125728496Y-77606672D02*
G01*
X125757017Y-77663714D01*
X125757017Y-77679762D01*
X125430827Y-77744999D01*
X125430827Y-77663714D01*
X125459347Y-77606672D01*
X125516389Y-77578152D01*
X125671455Y-77578152D01*
X125728496Y-77606672D01*
G37*
G36*
X123168542Y-77279077D02*
G01*
X123198949Y-77309484D01*
X123233207Y-77378000D01*
X123233207Y-77485447D01*
X123198949Y-77553963D01*
X123168542Y-77584370D01*
X123100026Y-77618628D01*
X122811779Y-77618628D01*
X122811779Y-77244819D01*
X123100026Y-77244819D01*
X123168542Y-77279077D01*
G37*
G36*
X126683354Y-78355930D02*
G01*
X122550668Y-78355930D01*
X122550668Y-77169819D01*
X122661779Y-77169819D01*
X122661779Y-78169819D01*
X122663220Y-78184451D01*
X122674419Y-78211487D01*
X122695111Y-78232179D01*
X122722147Y-78243378D01*
X122751411Y-78243378D01*
X122778447Y-78232179D01*
X122799139Y-78211487D01*
X122810338Y-78184451D01*
X122811779Y-78169819D01*
X122811779Y-77768628D01*
X122935825Y-77768628D01*
X123246765Y-78212829D01*
X123256336Y-78223989D01*
X123281015Y-78239716D01*
X123309832Y-78244802D01*
X123338403Y-78238472D01*
X123362377Y-78221690D01*
X123378104Y-78197012D01*
X123383189Y-78168194D01*
X123376860Y-78139623D01*
X123369650Y-78126810D01*
X123118846Y-77768518D01*
X123132363Y-77767187D01*
X123134852Y-77766155D01*
X123137540Y-77765965D01*
X123151272Y-77760710D01*
X123246510Y-77713091D01*
X123252809Y-77709126D01*
X123254637Y-77708369D01*
X123256693Y-77706680D01*
X123258953Y-77705259D01*
X123260252Y-77703760D01*
X123266002Y-77699042D01*
X123313621Y-77651423D01*
X123318063Y-77646009D01*
X123614160Y-77646009D01*
X123614160Y-78026961D01*
X123615601Y-78041593D01*
X123616632Y-78044082D01*
X123616823Y-78046770D01*
X123622078Y-78060502D01*
X123669697Y-78155741D01*
X123671237Y-78158187D01*
X123671622Y-78159342D01*
X123672868Y-78160779D01*
X123677529Y-78168183D01*
X123684631Y-78174342D01*
X123690795Y-78181450D01*
X123698200Y-78186111D01*
X123699637Y-78187357D01*
X123700790Y-78187741D01*
X123703238Y-78189282D01*
X123798476Y-78236901D01*
X123812207Y-78242156D01*
X123814896Y-78242347D01*
X123817385Y-78243378D01*
X123832017Y-78244819D01*
X124022493Y-78244819D01*
X124037125Y-78243378D01*
X124039614Y-78242346D01*
X124042302Y-78242156D01*
X124056034Y-78236901D01*
X124151272Y-78189282D01*
X124163715Y-78181450D01*
X124182888Y-78159342D01*
X124192142Y-78131581D01*
X124190068Y-78102391D01*
X124176980Y-78076216D01*
X124154873Y-78057043D01*
X124127111Y-78047789D01*
X124097921Y-78049863D01*
X124084190Y-78055118D01*
X124004788Y-78094819D01*
X123849722Y-78094819D01*
X123792680Y-78066298D01*
X123764160Y-78009256D01*
X123764160Y-77897970D01*
X124180058Y-77814791D01*
X124194124Y-77810508D01*
X124200229Y-77806419D01*
X124207018Y-77803607D01*
X124212270Y-77798354D01*
X124218438Y-77794224D01*
X124222512Y-77788113D01*
X124227710Y-77782915D01*
X124230553Y-77776051D01*
X124234670Y-77769876D01*
X124236095Y-77762670D01*
X124238909Y-77755879D01*
X124240350Y-77741247D01*
X124240350Y-77646009D01*
X124471303Y-77646009D01*
X124471303Y-77693628D01*
X124472744Y-77708260D01*
X124473775Y-77710749D01*
X124473966Y-77713437D01*
X124479221Y-77727169D01*
X124526840Y-77822407D01*
X124528380Y-77824854D01*
X124528765Y-77826008D01*
X124530010Y-77827444D01*
X124534672Y-77834850D01*
X124541776Y-77841011D01*
X124547938Y-77848116D01*
X124555343Y-77852777D01*
X124556780Y-77854023D01*
X124557933Y-77854407D01*
X124560381Y-77855948D01*
X124655619Y-77903567D01*
X124669350Y-77908822D01*
X124672039Y-77909013D01*
X124674528Y-77910044D01*
X124689160Y-77911485D01*
X124814312Y-77911485D01*
X124871353Y-77940005D01*
X124899874Y-77997047D01*
X124899874Y-78009256D01*
X124871353Y-78066298D01*
X124814312Y-78094819D01*
X124659246Y-78094819D01*
X124579844Y-78055118D01*
X124566112Y-78049863D01*
X124536922Y-78047789D01*
X124509161Y-78057043D01*
X124487053Y-78076216D01*
X124473966Y-78102391D01*
X124471892Y-78131581D01*
X124481146Y-78159342D01*
X124500319Y-78181450D01*
X124512762Y-78189282D01*
X124608000Y-78236901D01*
X124621731Y-78242156D01*
X124624420Y-78242347D01*
X124626909Y-78243378D01*
X124641541Y-78244819D01*
X124832017Y-78244819D01*
X124846649Y-78243378D01*
X124849138Y-78242346D01*
X124851826Y-78242156D01*
X124865558Y-78236901D01*
X124960796Y-78189282D01*
X124963243Y-78187741D01*
X124964397Y-78187357D01*
X124965833Y-78186111D01*
X124973239Y-78181450D01*
X124979400Y-78174345D01*
X124986505Y-78168184D01*
X124991166Y-78160778D01*
X124992412Y-78159342D01*
X124992796Y-78158188D01*
X124994337Y-78155741D01*
X125041956Y-78060502D01*
X125047211Y-78046770D01*
X125047401Y-78044082D01*
X125048433Y-78041593D01*
X125049874Y-78026961D01*
X125049874Y-77979342D01*
X125048433Y-77964710D01*
X125047402Y-77962221D01*
X125047211Y-77959532D01*
X125041956Y-77945801D01*
X124994337Y-77850563D01*
X124992796Y-77848115D01*
X124992412Y-77846962D01*
X124991166Y-77845525D01*
X124986505Y-77838120D01*
X124979400Y-77831958D01*
X124973239Y-77824854D01*
X124965833Y-77820192D01*
X124964397Y-77818947D01*
X124963243Y-77818562D01*
X124960796Y-77817022D01*
X124865558Y-77769403D01*
X124851826Y-77764148D01*
X124849138Y-77763957D01*
X124846649Y-77762926D01*
X124832017Y-77761485D01*
X124706865Y-77761485D01*
X124649823Y-77732964D01*
X124621303Y-77675923D01*
X124621303Y-77663714D01*
X124630155Y-77646009D01*
X125280827Y-77646009D01*
X125280827Y-78026961D01*
X125282268Y-78041593D01*
X125283299Y-78044082D01*
X125283490Y-78046770D01*
X125288745Y-78060502D01*
X125336364Y-78155741D01*
X125337904Y-78158187D01*
X125338289Y-78159342D01*
X125339535Y-78160779D01*
X125344196Y-78168183D01*
X125351298Y-78174342D01*
X125357462Y-78181450D01*
X125364867Y-78186111D01*
X125366304Y-78187357D01*
X125367457Y-78187741D01*
X125369905Y-78189282D01*
X125465143Y-78236901D01*
X125478874Y-78242156D01*
X125481563Y-78242347D01*
X125484052Y-78243378D01*
X125498684Y-78244819D01*
X125689160Y-78244819D01*
X125703792Y-78243378D01*
X125706281Y-78242346D01*
X125708969Y-78242156D01*
X125722701Y-78236901D01*
X125817939Y-78189282D01*
X125830382Y-78181450D01*
X125849555Y-78159342D01*
X125858809Y-78131581D01*
X125856735Y-78102391D01*
X125843647Y-78076216D01*
X125821540Y-78057043D01*
X125793778Y-78047789D01*
X125764588Y-78049863D01*
X125750857Y-78055118D01*
X125671455Y-78094819D01*
X125516389Y-78094819D01*
X125459347Y-78066298D01*
X125430827Y-78009256D01*
X125430827Y-77897970D01*
X125846725Y-77814791D01*
X125860791Y-77810508D01*
X125866896Y-77806419D01*
X125873685Y-77803607D01*
X125878937Y-77798354D01*
X125885105Y-77794224D01*
X125889179Y-77788113D01*
X125894377Y-77782915D01*
X125897220Y-77776051D01*
X125901337Y-77769876D01*
X125902762Y-77762670D01*
X125905576Y-77755879D01*
X125907017Y-77741247D01*
X125907017Y-77646009D01*
X125905576Y-77631377D01*
X125904545Y-77628888D01*
X125904354Y-77626199D01*
X125899099Y-77612468D01*
X125851480Y-77517230D01*
X125849939Y-77514782D01*
X125849555Y-77513629D01*
X125848309Y-77512192D01*
X125843648Y-77504787D01*
X125836543Y-77498625D01*
X125830382Y-77491521D01*
X125825615Y-77488520D01*
X126044173Y-77488520D01*
X126044173Y-77517784D01*
X126055372Y-77544820D01*
X126076064Y-77565512D01*
X126103100Y-77576711D01*
X126117732Y-77578152D01*
X126185589Y-77578152D01*
X126185589Y-78026961D01*
X126187030Y-78041593D01*
X126188061Y-78044082D01*
X126188252Y-78046770D01*
X126193507Y-78060502D01*
X126241126Y-78155741D01*
X126242666Y-78158187D01*
X126243051Y-78159342D01*
X126244297Y-78160779D01*
X126248958Y-78168183D01*
X126256060Y-78174342D01*
X126262224Y-78181450D01*
X126269629Y-78186111D01*
X126271066Y-78187357D01*
X126272219Y-78187741D01*
X126274667Y-78189282D01*
X126369905Y-78236901D01*
X126383636Y-78242156D01*
X126386325Y-78242347D01*
X126388814Y-78243378D01*
X126403446Y-78244819D01*
X126498684Y-78244819D01*
X126513316Y-78243378D01*
X126540352Y-78232179D01*
X126561044Y-78211487D01*
X126572243Y-78184451D01*
X126572243Y-78155187D01*
X126561044Y-78128151D01*
X126540352Y-78107459D01*
X126513316Y-78096260D01*
X126498684Y-78094819D01*
X126421151Y-78094819D01*
X126364109Y-78066298D01*
X126335589Y-78009256D01*
X126335589Y-77578152D01*
X126498684Y-77578152D01*
X126513316Y-77576711D01*
X126540352Y-77565512D01*
X126561044Y-77544820D01*
X126572243Y-77517784D01*
X126572243Y-77488520D01*
X126561044Y-77461484D01*
X126540352Y-77440792D01*
X126513316Y-77429593D01*
X126498684Y-77428152D01*
X126335589Y-77428152D01*
X126335589Y-77169819D01*
X126334148Y-77155187D01*
X126322949Y-77128151D01*
X126302257Y-77107459D01*
X126275221Y-77096260D01*
X126245957Y-77096260D01*
X126218921Y-77107459D01*
X126198229Y-77128151D01*
X126187030Y-77155187D01*
X126185589Y-77169819D01*
X126185589Y-77428152D01*
X126117732Y-77428152D01*
X126103100Y-77429593D01*
X126076064Y-77440792D01*
X126055372Y-77461484D01*
X126044173Y-77488520D01*
X125825615Y-77488520D01*
X125822976Y-77486859D01*
X125821540Y-77485614D01*
X125820386Y-77485229D01*
X125817939Y-77483689D01*
X125722701Y-77436070D01*
X125708969Y-77430815D01*
X125706281Y-77430624D01*
X125703792Y-77429593D01*
X125689160Y-77428152D01*
X125498684Y-77428152D01*
X125484052Y-77429593D01*
X125481563Y-77430623D01*
X125478874Y-77430815D01*
X125465143Y-77436070D01*
X125369905Y-77483689D01*
X125367457Y-77485229D01*
X125366304Y-77485614D01*
X125364867Y-77486859D01*
X125357462Y-77491521D01*
X125351300Y-77498625D01*
X125344196Y-77504787D01*
X125339534Y-77512192D01*
X125338289Y-77513629D01*
X125337904Y-77514782D01*
X125336364Y-77517230D01*
X125288745Y-77612468D01*
X125283490Y-77626200D01*
X125283299Y-77628887D01*
X125282268Y-77631377D01*
X125280827Y-77646009D01*
X124630155Y-77646009D01*
X124649823Y-77606672D01*
X124706865Y-77578152D01*
X124814312Y-77578152D01*
X124893714Y-77617853D01*
X124907445Y-77623108D01*
X124936635Y-77625182D01*
X124964397Y-77615928D01*
X124986504Y-77596755D01*
X124999592Y-77570580D01*
X125001666Y-77541390D01*
X124992412Y-77513629D01*
X124973239Y-77491521D01*
X124960796Y-77483689D01*
X124865558Y-77436070D01*
X124851826Y-77430815D01*
X124849138Y-77430624D01*
X124846649Y-77429593D01*
X124832017Y-77428152D01*
X124689160Y-77428152D01*
X124674528Y-77429593D01*
X124672039Y-77430623D01*
X124669350Y-77430815D01*
X124655619Y-77436070D01*
X124560381Y-77483689D01*
X124557933Y-77485229D01*
X124556780Y-77485614D01*
X124555343Y-77486859D01*
X124547938Y-77491521D01*
X124541776Y-77498625D01*
X124534672Y-77504787D01*
X124530010Y-77512192D01*
X124528765Y-77513629D01*
X124528380Y-77514782D01*
X124526840Y-77517230D01*
X124479221Y-77612468D01*
X124473966Y-77626200D01*
X124473775Y-77628887D01*
X124472744Y-77631377D01*
X124471303Y-77646009D01*
X124240350Y-77646009D01*
X124238909Y-77631377D01*
X124237878Y-77628888D01*
X124237687Y-77626199D01*
X124232432Y-77612468D01*
X124184813Y-77517230D01*
X124183272Y-77514782D01*
X124182888Y-77513629D01*
X124181642Y-77512192D01*
X124176981Y-77504787D01*
X124169876Y-77498625D01*
X124163715Y-77491521D01*
X124156309Y-77486859D01*
X124154873Y-77485614D01*
X124153719Y-77485229D01*
X124151272Y-77483689D01*
X124056034Y-77436070D01*
X124042302Y-77430815D01*
X124039614Y-77430624D01*
X124037125Y-77429593D01*
X124022493Y-77428152D01*
X123832017Y-77428152D01*
X123817385Y-77429593D01*
X123814896Y-77430623D01*
X123812207Y-77430815D01*
X123798476Y-77436070D01*
X123703238Y-77483689D01*
X123700790Y-77485229D01*
X123699637Y-77485614D01*
X123698200Y-77486859D01*
X123690795Y-77491521D01*
X123684633Y-77498625D01*
X123677529Y-77504787D01*
X123672867Y-77512192D01*
X123671622Y-77513629D01*
X123671237Y-77514782D01*
X123669697Y-77517230D01*
X123622078Y-77612468D01*
X123616823Y-77626200D01*
X123616632Y-77628887D01*
X123615601Y-77631377D01*
X123614160Y-77646009D01*
X123318063Y-77646009D01*
X123318339Y-77645673D01*
X123319838Y-77644374D01*
X123321259Y-77642114D01*
X123322948Y-77640058D01*
X123323705Y-77638230D01*
X123327670Y-77631931D01*
X123375289Y-77536693D01*
X123380544Y-77522962D01*
X123380735Y-77520272D01*
X123381766Y-77517784D01*
X123383207Y-77503152D01*
X123383207Y-77360295D01*
X123381766Y-77345663D01*
X123380735Y-77343174D01*
X123380544Y-77340485D01*
X123375289Y-77326754D01*
X123327670Y-77231516D01*
X123323705Y-77225216D01*
X123322948Y-77223389D01*
X123321259Y-77221332D01*
X123319838Y-77219073D01*
X123318339Y-77217773D01*
X123313621Y-77212024D01*
X123266002Y-77164405D01*
X123260252Y-77159686D01*
X123258953Y-77158188D01*
X123256693Y-77156766D01*
X123254637Y-77155078D01*
X123252809Y-77154320D01*
X123246510Y-77150356D01*
X123151272Y-77102737D01*
X123137540Y-77097482D01*
X123134852Y-77097291D01*
X123132363Y-77096260D01*
X123117731Y-77094819D01*
X122736779Y-77094819D01*
X122722147Y-77096260D01*
X122695111Y-77107459D01*
X122674419Y-77128151D01*
X122663220Y-77155187D01*
X122661779Y-77169819D01*
X122550668Y-77169819D01*
X122550668Y-76983708D01*
X126683354Y-76983708D01*
X126683354Y-78355930D01*
G37*
G36*
X123772455Y-81559180D02*
G01*
X123798949Y-81585674D01*
X123833207Y-81654190D01*
X123833207Y-81761637D01*
X123798948Y-81830153D01*
X123768541Y-81860561D01*
X123700026Y-81894819D01*
X123411779Y-81894819D01*
X123411779Y-81521009D01*
X123657942Y-81521009D01*
X123772455Y-81559180D01*
G37*
G36*
X123720923Y-81079077D02*
G01*
X123751330Y-81109484D01*
X123785588Y-81178000D01*
X123785588Y-81237828D01*
X123751330Y-81306344D01*
X123720923Y-81336751D01*
X123652407Y-81371009D01*
X123411779Y-81371009D01*
X123411779Y-81044819D01*
X123652407Y-81044819D01*
X123720923Y-81079077D01*
G37*
G36*
X124673304Y-81412410D02*
G01*
X124703711Y-81442817D01*
X124737969Y-81511333D01*
X124737969Y-81761637D01*
X124703710Y-81830153D01*
X124673303Y-81860561D01*
X124604788Y-81894819D01*
X124497341Y-81894819D01*
X124428825Y-81860561D01*
X124398418Y-81830153D01*
X124364160Y-81761637D01*
X124364160Y-81511333D01*
X124398418Y-81442817D01*
X124428825Y-81412410D01*
X124497341Y-81378152D01*
X124604788Y-81378152D01*
X124673304Y-81412410D01*
G37*
G36*
X125578066Y-81412410D02*
G01*
X125608473Y-81442817D01*
X125642731Y-81511333D01*
X125642731Y-81761637D01*
X125608472Y-81830153D01*
X125578065Y-81860561D01*
X125509550Y-81894819D01*
X125402103Y-81894819D01*
X125333587Y-81860561D01*
X125303180Y-81830153D01*
X125268922Y-81761637D01*
X125268922Y-81511333D01*
X125303180Y-81442817D01*
X125333587Y-81412410D01*
X125402103Y-81378152D01*
X125509550Y-81378152D01*
X125578066Y-81412410D01*
G37*
G36*
X126569068Y-82155930D02*
G01*
X123150668Y-82155930D01*
X123150668Y-80969819D01*
X123261779Y-80969819D01*
X123261779Y-81969819D01*
X123263220Y-81984451D01*
X123274419Y-82011487D01*
X123295111Y-82032179D01*
X123322147Y-82043378D01*
X123336779Y-82044819D01*
X123717731Y-82044819D01*
X123732363Y-82043378D01*
X123734852Y-82042346D01*
X123737540Y-82042156D01*
X123751272Y-82036901D01*
X123846510Y-81989282D01*
X123852809Y-81985317D01*
X123854637Y-81984560D01*
X123856693Y-81982872D01*
X123858953Y-81981450D01*
X123860253Y-81979950D01*
X123866003Y-81975232D01*
X123913621Y-81927613D01*
X123918339Y-81921863D01*
X123919838Y-81920564D01*
X123921259Y-81918305D01*
X123922949Y-81916247D01*
X123923706Y-81914417D01*
X123927670Y-81908121D01*
X123975289Y-81812883D01*
X123980544Y-81799152D01*
X123980735Y-81796462D01*
X123981766Y-81793974D01*
X123983207Y-81779342D01*
X123983207Y-81636485D01*
X123981766Y-81621853D01*
X123980735Y-81619364D01*
X123980544Y-81616675D01*
X123975289Y-81602944D01*
X123927670Y-81507706D01*
X123923705Y-81501406D01*
X123922948Y-81499579D01*
X123921259Y-81497522D01*
X123919838Y-81495263D01*
X123918339Y-81493963D01*
X123918064Y-81493628D01*
X124214160Y-81493628D01*
X124214160Y-81779342D01*
X124215601Y-81793974D01*
X124216632Y-81796463D01*
X124216823Y-81799151D01*
X124222078Y-81812883D01*
X124269697Y-81908121D01*
X124273660Y-81914417D01*
X124274418Y-81916247D01*
X124276107Y-81918305D01*
X124277529Y-81920564D01*
X124279027Y-81921863D01*
X124283745Y-81927612D01*
X124331364Y-81975232D01*
X124337113Y-81979950D01*
X124338414Y-81981450D01*
X124340673Y-81982872D01*
X124342730Y-81984560D01*
X124344557Y-81985317D01*
X124350857Y-81989282D01*
X124446095Y-82036901D01*
X124459826Y-82042156D01*
X124462515Y-82042347D01*
X124465004Y-82043378D01*
X124479636Y-82044819D01*
X124622493Y-82044819D01*
X124637125Y-82043378D01*
X124639614Y-82042346D01*
X124642302Y-82042156D01*
X124656034Y-82036901D01*
X124751272Y-81989282D01*
X124757571Y-81985317D01*
X124759399Y-81984560D01*
X124761455Y-81982872D01*
X124763715Y-81981450D01*
X124765015Y-81979950D01*
X124770765Y-81975232D01*
X124818383Y-81927613D01*
X124823101Y-81921863D01*
X124824600Y-81920564D01*
X124826021Y-81918305D01*
X124827711Y-81916247D01*
X124828468Y-81914417D01*
X124832432Y-81908121D01*
X124880051Y-81812883D01*
X124885306Y-81799152D01*
X124885497Y-81796462D01*
X124886528Y-81793974D01*
X124887969Y-81779342D01*
X124887969Y-81493628D01*
X125118922Y-81493628D01*
X125118922Y-81779342D01*
X125120363Y-81793974D01*
X125121394Y-81796463D01*
X125121585Y-81799151D01*
X125126840Y-81812883D01*
X125174459Y-81908121D01*
X125178422Y-81914417D01*
X125179180Y-81916247D01*
X125180869Y-81918305D01*
X125182291Y-81920564D01*
X125183789Y-81921863D01*
X125188507Y-81927612D01*
X125236126Y-81975232D01*
X125241875Y-81979950D01*
X125243176Y-81981450D01*
X125245435Y-81982872D01*
X125247492Y-81984560D01*
X125249319Y-81985317D01*
X125255619Y-81989282D01*
X125350857Y-82036901D01*
X125364588Y-82042156D01*
X125367277Y-82042347D01*
X125369766Y-82043378D01*
X125384398Y-82044819D01*
X125527255Y-82044819D01*
X125541887Y-82043378D01*
X125544376Y-82042346D01*
X125547064Y-82042156D01*
X125560796Y-82036901D01*
X125656034Y-81989282D01*
X125662333Y-81985317D01*
X125664161Y-81984560D01*
X125666217Y-81982872D01*
X125668477Y-81981450D01*
X125669777Y-81979950D01*
X125675527Y-81975232D01*
X125723145Y-81927613D01*
X125727863Y-81921863D01*
X125729362Y-81920564D01*
X125730783Y-81918305D01*
X125732473Y-81916247D01*
X125733230Y-81914417D01*
X125737194Y-81908121D01*
X125784813Y-81812883D01*
X125790068Y-81799152D01*
X125790259Y-81796462D01*
X125791290Y-81793974D01*
X125792731Y-81779342D01*
X125792731Y-81493628D01*
X125791290Y-81478996D01*
X125790259Y-81476507D01*
X125790068Y-81473818D01*
X125784813Y-81460087D01*
X125737194Y-81364849D01*
X125733229Y-81358549D01*
X125732472Y-81356722D01*
X125730783Y-81354665D01*
X125729362Y-81352406D01*
X125727863Y-81351106D01*
X125723145Y-81345357D01*
X125675526Y-81297738D01*
X125669776Y-81293019D01*
X125668477Y-81291521D01*
X125666217Y-81290099D01*
X125664294Y-81288520D01*
X125929887Y-81288520D01*
X125929887Y-81317784D01*
X125941086Y-81344820D01*
X125961778Y-81365512D01*
X125988814Y-81376711D01*
X126003446Y-81378152D01*
X126071303Y-81378152D01*
X126071303Y-81826961D01*
X126072744Y-81841593D01*
X126073775Y-81844082D01*
X126073966Y-81846770D01*
X126079221Y-81860502D01*
X126126840Y-81955741D01*
X126128380Y-81958187D01*
X126128765Y-81959342D01*
X126130011Y-81960779D01*
X126134672Y-81968183D01*
X126141774Y-81974342D01*
X126147938Y-81981450D01*
X126155343Y-81986111D01*
X126156780Y-81987357D01*
X126157933Y-81987741D01*
X126160381Y-81989282D01*
X126255619Y-82036901D01*
X126269350Y-82042156D01*
X126272039Y-82042347D01*
X126274528Y-82043378D01*
X126289160Y-82044819D01*
X126384398Y-82044819D01*
X126399030Y-82043378D01*
X126426066Y-82032179D01*
X126446758Y-82011487D01*
X126457957Y-81984451D01*
X126457957Y-81955187D01*
X126446758Y-81928151D01*
X126426066Y-81907459D01*
X126399030Y-81896260D01*
X126384398Y-81894819D01*
X126306865Y-81894819D01*
X126249823Y-81866298D01*
X126221303Y-81809256D01*
X126221303Y-81378152D01*
X126384398Y-81378152D01*
X126399030Y-81376711D01*
X126426066Y-81365512D01*
X126446758Y-81344820D01*
X126457957Y-81317784D01*
X126457957Y-81288520D01*
X126446758Y-81261484D01*
X126426066Y-81240792D01*
X126399030Y-81229593D01*
X126384398Y-81228152D01*
X126221303Y-81228152D01*
X126221303Y-80969819D01*
X126219862Y-80955187D01*
X126208663Y-80928151D01*
X126187971Y-80907459D01*
X126160935Y-80896260D01*
X126131671Y-80896260D01*
X126104635Y-80907459D01*
X126083943Y-80928151D01*
X126072744Y-80955187D01*
X126071303Y-80969819D01*
X126071303Y-81228152D01*
X126003446Y-81228152D01*
X125988814Y-81229593D01*
X125961778Y-81240792D01*
X125941086Y-81261484D01*
X125929887Y-81288520D01*
X125664294Y-81288520D01*
X125664161Y-81288411D01*
X125662333Y-81287653D01*
X125656034Y-81283689D01*
X125560796Y-81236070D01*
X125547064Y-81230815D01*
X125544376Y-81230624D01*
X125541887Y-81229593D01*
X125527255Y-81228152D01*
X125384398Y-81228152D01*
X125369766Y-81229593D01*
X125367277Y-81230623D01*
X125364588Y-81230815D01*
X125350857Y-81236070D01*
X125255619Y-81283689D01*
X125249319Y-81287653D01*
X125247492Y-81288411D01*
X125245435Y-81290099D01*
X125243176Y-81291521D01*
X125241876Y-81293019D01*
X125236127Y-81297738D01*
X125188508Y-81345357D01*
X125183789Y-81351106D01*
X125182291Y-81352406D01*
X125180869Y-81354665D01*
X125179181Y-81356722D01*
X125178423Y-81358549D01*
X125174459Y-81364849D01*
X125126840Y-81460087D01*
X125121585Y-81473819D01*
X125121394Y-81476506D01*
X125120363Y-81478996D01*
X125118922Y-81493628D01*
X124887969Y-81493628D01*
X124886528Y-81478996D01*
X124885497Y-81476507D01*
X124885306Y-81473818D01*
X124880051Y-81460087D01*
X124832432Y-81364849D01*
X124828467Y-81358549D01*
X124827710Y-81356722D01*
X124826021Y-81354665D01*
X124824600Y-81352406D01*
X124823101Y-81351106D01*
X124818383Y-81345357D01*
X124770764Y-81297738D01*
X124765014Y-81293019D01*
X124763715Y-81291521D01*
X124761455Y-81290099D01*
X124759399Y-81288411D01*
X124757571Y-81287653D01*
X124751272Y-81283689D01*
X124656034Y-81236070D01*
X124642302Y-81230815D01*
X124639614Y-81230624D01*
X124637125Y-81229593D01*
X124622493Y-81228152D01*
X124479636Y-81228152D01*
X124465004Y-81229593D01*
X124462515Y-81230623D01*
X124459826Y-81230815D01*
X124446095Y-81236070D01*
X124350857Y-81283689D01*
X124344557Y-81287653D01*
X124342730Y-81288411D01*
X124340673Y-81290099D01*
X124338414Y-81291521D01*
X124337114Y-81293019D01*
X124331365Y-81297738D01*
X124283746Y-81345357D01*
X124279027Y-81351106D01*
X124277529Y-81352406D01*
X124276107Y-81354665D01*
X124274419Y-81356722D01*
X124273661Y-81358549D01*
X124269697Y-81364849D01*
X124222078Y-81460087D01*
X124216823Y-81473819D01*
X124216632Y-81476506D01*
X124215601Y-81478996D01*
X124214160Y-81493628D01*
X123918064Y-81493628D01*
X123913621Y-81488214D01*
X123866002Y-81440595D01*
X123854637Y-81431268D01*
X123852146Y-81430236D01*
X123850111Y-81428471D01*
X123844043Y-81425762D01*
X123866002Y-81403804D01*
X123870720Y-81398054D01*
X123872219Y-81396755D01*
X123873640Y-81394495D01*
X123875329Y-81392439D01*
X123876086Y-81390611D01*
X123880051Y-81384312D01*
X123927670Y-81289074D01*
X123932925Y-81275343D01*
X123933116Y-81272653D01*
X123934147Y-81270165D01*
X123935588Y-81255533D01*
X123935588Y-81160295D01*
X123934147Y-81145663D01*
X123933116Y-81143174D01*
X123932925Y-81140485D01*
X123927670Y-81126754D01*
X123880051Y-81031516D01*
X123876086Y-81025216D01*
X123875329Y-81023389D01*
X123873640Y-81021332D01*
X123872219Y-81019073D01*
X123870720Y-81017773D01*
X123866002Y-81012024D01*
X123818383Y-80964405D01*
X123812633Y-80959686D01*
X123811334Y-80958188D01*
X123809074Y-80956766D01*
X123807018Y-80955078D01*
X123805190Y-80954320D01*
X123798891Y-80950356D01*
X123703653Y-80902737D01*
X123689921Y-80897482D01*
X123687233Y-80897291D01*
X123684744Y-80896260D01*
X123670112Y-80894819D01*
X123336779Y-80894819D01*
X123322147Y-80896260D01*
X123295111Y-80907459D01*
X123274419Y-80928151D01*
X123263220Y-80955187D01*
X123261779Y-80969819D01*
X123150668Y-80969819D01*
X123150668Y-80783708D01*
X126569068Y-80783708D01*
X126569068Y-82155930D01*
G37*
X97354571Y-119615295D02*
X96897428Y-119615295D01*
X97126000Y-119615295D02*
X97126000Y-118815295D01*
X97126000Y-118815295D02*
X97049809Y-118929580D01*
X97049809Y-118929580D02*
X96973619Y-119005771D01*
X96973619Y-119005771D02*
X96897428Y-119043866D01*
X116749366Y-79950000D02*
X116782700Y-79983333D01*
X116782700Y-79983333D02*
X116816033Y-80083333D01*
X116816033Y-80083333D02*
X116816033Y-80150000D01*
X116816033Y-80150000D02*
X116782700Y-80250000D01*
X116782700Y-80250000D02*
X116716033Y-80316667D01*
X116716033Y-80316667D02*
X116649366Y-80350000D01*
X116649366Y-80350000D02*
X116516033Y-80383333D01*
X116516033Y-80383333D02*
X116416033Y-80383333D01*
X116416033Y-80383333D02*
X116282700Y-80350000D01*
X116282700Y-80350000D02*
X116216033Y-80316667D01*
X116216033Y-80316667D02*
X116149366Y-80250000D01*
X116149366Y-80250000D02*
X116116033Y-80150000D01*
X116116033Y-80150000D02*
X116116033Y-80083333D01*
X116116033Y-80083333D02*
X116149366Y-79983333D01*
X116149366Y-79983333D02*
X116182700Y-79950000D01*
X116116033Y-79716667D02*
X116116033Y-79283333D01*
X116116033Y-79283333D02*
X116382700Y-79516667D01*
X116382700Y-79516667D02*
X116382700Y-79416667D01*
X116382700Y-79416667D02*
X116416033Y-79350000D01*
X116416033Y-79350000D02*
X116449366Y-79316667D01*
X116449366Y-79316667D02*
X116516033Y-79283333D01*
X116516033Y-79283333D02*
X116682700Y-79283333D01*
X116682700Y-79283333D02*
X116749366Y-79316667D01*
X116749366Y-79316667D02*
X116782700Y-79350000D01*
X116782700Y-79350000D02*
X116816033Y-79416667D01*
X116816033Y-79416667D02*
X116816033Y-79616667D01*
X116816033Y-79616667D02*
X116782700Y-79683333D01*
X116782700Y-79683333D02*
X116749366Y-79716667D01*
X116116033Y-78683333D02*
X116116033Y-78816666D01*
X116116033Y-78816666D02*
X116149366Y-78883333D01*
X116149366Y-78883333D02*
X116182700Y-78916666D01*
X116182700Y-78916666D02*
X116282700Y-78983333D01*
X116282700Y-78983333D02*
X116416033Y-79016666D01*
X116416033Y-79016666D02*
X116682700Y-79016666D01*
X116682700Y-79016666D02*
X116749366Y-78983333D01*
X116749366Y-78983333D02*
X116782700Y-78950000D01*
X116782700Y-78950000D02*
X116816033Y-78883333D01*
X116816033Y-78883333D02*
X116816033Y-78750000D01*
X116816033Y-78750000D02*
X116782700Y-78683333D01*
X116782700Y-78683333D02*
X116749366Y-78650000D01*
X116749366Y-78650000D02*
X116682700Y-78616666D01*
X116682700Y-78616666D02*
X116516033Y-78616666D01*
X116516033Y-78616666D02*
X116449366Y-78650000D01*
X116449366Y-78650000D02*
X116416033Y-78683333D01*
X116416033Y-78683333D02*
X116382700Y-78750000D01*
X116382700Y-78750000D02*
X116382700Y-78883333D01*
X116382700Y-78883333D02*
X116416033Y-78950000D01*
X116416033Y-78950000D02*
X116449366Y-78983333D01*
X116449366Y-78983333D02*
X116516033Y-79016666D01*
X116750571Y-157861295D02*
X116293428Y-157861295D01*
X116522000Y-157861295D02*
X116522000Y-157061295D01*
X116522000Y-157061295D02*
X116445809Y-157175580D01*
X116445809Y-157175580D02*
X116369619Y-157251771D01*
X116369619Y-157251771D02*
X116293428Y-157289866D01*
X79009524Y-85662295D02*
X79009524Y-86309914D01*
X79009524Y-86309914D02*
X79047619Y-86386104D01*
X79047619Y-86386104D02*
X79085714Y-86424200D01*
X79085714Y-86424200D02*
X79161905Y-86462295D01*
X79161905Y-86462295D02*
X79314286Y-86462295D01*
X79314286Y-86462295D02*
X79390476Y-86424200D01*
X79390476Y-86424200D02*
X79428571Y-86386104D01*
X79428571Y-86386104D02*
X79466667Y-86309914D01*
X79466667Y-86309914D02*
X79466667Y-85662295D01*
X79771428Y-85662295D02*
X80266666Y-85662295D01*
X80266666Y-85662295D02*
X80000000Y-85967057D01*
X80000000Y-85967057D02*
X80114285Y-85967057D01*
X80114285Y-85967057D02*
X80190476Y-86005152D01*
X80190476Y-86005152D02*
X80228571Y-86043247D01*
X80228571Y-86043247D02*
X80266666Y-86119438D01*
X80266666Y-86119438D02*
X80266666Y-86309914D01*
X80266666Y-86309914D02*
X80228571Y-86386104D01*
X80228571Y-86386104D02*
X80190476Y-86424200D01*
X80190476Y-86424200D02*
X80114285Y-86462295D01*
X80114285Y-86462295D02*
X79885714Y-86462295D01*
X79885714Y-86462295D02*
X79809523Y-86424200D01*
X79809523Y-86424200D02*
X79771428Y-86386104D01*
X80952381Y-85928961D02*
X80952381Y-86462295D01*
X80761905Y-85624200D02*
X80571428Y-86195628D01*
X80571428Y-86195628D02*
X81066667Y-86195628D01*
X78387499Y-86945180D02*
X78387499Y-86707085D01*
X78625594Y-86802323D02*
X78387499Y-86707085D01*
X78387499Y-86707085D02*
X78149404Y-86802323D01*
X78530356Y-86516609D02*
X78387499Y-86707085D01*
X78387499Y-86707085D02*
X78244642Y-86516609D01*
X77882571Y-138659295D02*
X77425428Y-138659295D01*
X77654000Y-138659295D02*
X77654000Y-137859295D01*
X77654000Y-137859295D02*
X77577809Y-137973580D01*
X77577809Y-137973580D02*
X77501619Y-138049771D01*
X77501619Y-138049771D02*
X77425428Y-138087866D01*
X79386667Y-65133200D02*
X79529524Y-65180819D01*
X79529524Y-65180819D02*
X79767619Y-65180819D01*
X79767619Y-65180819D02*
X79862857Y-65133200D01*
X79862857Y-65133200D02*
X79910476Y-65085580D01*
X79910476Y-65085580D02*
X79958095Y-64990342D01*
X79958095Y-64990342D02*
X79958095Y-64895104D01*
X79958095Y-64895104D02*
X79910476Y-64799866D01*
X79910476Y-64799866D02*
X79862857Y-64752247D01*
X79862857Y-64752247D02*
X79767619Y-64704628D01*
X79767619Y-64704628D02*
X79577143Y-64657009D01*
X79577143Y-64657009D02*
X79481905Y-64609390D01*
X79481905Y-64609390D02*
X79434286Y-64561771D01*
X79434286Y-64561771D02*
X79386667Y-64466533D01*
X79386667Y-64466533D02*
X79386667Y-64371295D01*
X79386667Y-64371295D02*
X79434286Y-64276057D01*
X79434286Y-64276057D02*
X79481905Y-64228438D01*
X79481905Y-64228438D02*
X79577143Y-64180819D01*
X79577143Y-64180819D02*
X79815238Y-64180819D01*
X79815238Y-64180819D02*
X79958095Y-64228438D01*
X80291429Y-64180819D02*
X80529524Y-65180819D01*
X80529524Y-65180819D02*
X80720000Y-64466533D01*
X80720000Y-64466533D02*
X80910476Y-65180819D01*
X80910476Y-65180819D02*
X81148572Y-64180819D01*
X81481905Y-64276057D02*
X81529524Y-64228438D01*
X81529524Y-64228438D02*
X81624762Y-64180819D01*
X81624762Y-64180819D02*
X81862857Y-64180819D01*
X81862857Y-64180819D02*
X81958095Y-64228438D01*
X81958095Y-64228438D02*
X82005714Y-64276057D01*
X82005714Y-64276057D02*
X82053333Y-64371295D01*
X82053333Y-64371295D02*
X82053333Y-64466533D01*
X82053333Y-64466533D02*
X82005714Y-64609390D01*
X82005714Y-64609390D02*
X81434286Y-65180819D01*
X81434286Y-65180819D02*
X82053333Y-65180819D01*
X77254819Y-144571094D02*
X76254819Y-144571094D01*
X76254819Y-144571094D02*
X76254819Y-144332999D01*
X76254819Y-144332999D02*
X76302438Y-144190142D01*
X76302438Y-144190142D02*
X76397676Y-144094904D01*
X76397676Y-144094904D02*
X76492914Y-144047285D01*
X76492914Y-144047285D02*
X76683390Y-143999666D01*
X76683390Y-143999666D02*
X76826247Y-143999666D01*
X76826247Y-143999666D02*
X77016723Y-144047285D01*
X77016723Y-144047285D02*
X77111961Y-144094904D01*
X77111961Y-144094904D02*
X77207200Y-144190142D01*
X77207200Y-144190142D02*
X77254819Y-144332999D01*
X77254819Y-144332999D02*
X77254819Y-144571094D01*
X76350057Y-143618713D02*
X76302438Y-143571094D01*
X76302438Y-143571094D02*
X76254819Y-143475856D01*
X76254819Y-143475856D02*
X76254819Y-143237761D01*
X76254819Y-143237761D02*
X76302438Y-143142523D01*
X76302438Y-143142523D02*
X76350057Y-143094904D01*
X76350057Y-143094904D02*
X76445295Y-143047285D01*
X76445295Y-143047285D02*
X76540533Y-143047285D01*
X76540533Y-143047285D02*
X76683390Y-143094904D01*
X76683390Y-143094904D02*
X77254819Y-143666332D01*
X77254819Y-143666332D02*
X77254819Y-143047285D01*
X94661905Y-105960819D02*
X94661905Y-104960819D01*
X94661905Y-104960819D02*
X94900000Y-104960819D01*
X94900000Y-104960819D02*
X95042857Y-105008438D01*
X95042857Y-105008438D02*
X95138095Y-105103676D01*
X95138095Y-105103676D02*
X95185714Y-105198914D01*
X95185714Y-105198914D02*
X95233333Y-105389390D01*
X95233333Y-105389390D02*
X95233333Y-105532247D01*
X95233333Y-105532247D02*
X95185714Y-105722723D01*
X95185714Y-105722723D02*
X95138095Y-105817961D01*
X95138095Y-105817961D02*
X95042857Y-105913200D01*
X95042857Y-105913200D02*
X94900000Y-105960819D01*
X94900000Y-105960819D02*
X94661905Y-105960819D01*
X95566667Y-104960819D02*
X96185714Y-104960819D01*
X96185714Y-104960819D02*
X95852381Y-105341771D01*
X95852381Y-105341771D02*
X95995238Y-105341771D01*
X95995238Y-105341771D02*
X96090476Y-105389390D01*
X96090476Y-105389390D02*
X96138095Y-105437009D01*
X96138095Y-105437009D02*
X96185714Y-105532247D01*
X96185714Y-105532247D02*
X96185714Y-105770342D01*
X96185714Y-105770342D02*
X96138095Y-105865580D01*
X96138095Y-105865580D02*
X96090476Y-105913200D01*
X96090476Y-105913200D02*
X95995238Y-105960819D01*
X95995238Y-105960819D02*
X95709524Y-105960819D01*
X95709524Y-105960819D02*
X95614286Y-105913200D01*
X95614286Y-105913200D02*
X95566667Y-105865580D01*
X113861905Y-144154819D02*
X113861905Y-143154819D01*
X113861905Y-143154819D02*
X114100000Y-143154819D01*
X114100000Y-143154819D02*
X114242857Y-143202438D01*
X114242857Y-143202438D02*
X114338095Y-143297676D01*
X114338095Y-143297676D02*
X114385714Y-143392914D01*
X114385714Y-143392914D02*
X114433333Y-143583390D01*
X114433333Y-143583390D02*
X114433333Y-143726247D01*
X114433333Y-143726247D02*
X114385714Y-143916723D01*
X114385714Y-143916723D02*
X114338095Y-144011961D01*
X114338095Y-144011961D02*
X114242857Y-144107200D01*
X114242857Y-144107200D02*
X114100000Y-144154819D01*
X114100000Y-144154819D02*
X113861905Y-144154819D01*
X115290476Y-143154819D02*
X115100000Y-143154819D01*
X115100000Y-143154819D02*
X115004762Y-143202438D01*
X115004762Y-143202438D02*
X114957143Y-143250057D01*
X114957143Y-143250057D02*
X114861905Y-143392914D01*
X114861905Y-143392914D02*
X114814286Y-143583390D01*
X114814286Y-143583390D02*
X114814286Y-143964342D01*
X114814286Y-143964342D02*
X114861905Y-144059580D01*
X114861905Y-144059580D02*
X114909524Y-144107200D01*
X114909524Y-144107200D02*
X115004762Y-144154819D01*
X115004762Y-144154819D02*
X115195238Y-144154819D01*
X115195238Y-144154819D02*
X115290476Y-144107200D01*
X115290476Y-144107200D02*
X115338095Y-144059580D01*
X115338095Y-144059580D02*
X115385714Y-143964342D01*
X115385714Y-143964342D02*
X115385714Y-143726247D01*
X115385714Y-143726247D02*
X115338095Y-143631009D01*
X115338095Y-143631009D02*
X115290476Y-143583390D01*
X115290476Y-143583390D02*
X115195238Y-143535771D01*
X115195238Y-143535771D02*
X115004762Y-143535771D01*
X115004762Y-143535771D02*
X114909524Y-143583390D01*
X114909524Y-143583390D02*
X114861905Y-143631009D01*
X114861905Y-143631009D02*
X114814286Y-143726247D01*
X101438095Y-108154819D02*
X101438095Y-108964342D01*
X101438095Y-108964342D02*
X101485714Y-109059580D01*
X101485714Y-109059580D02*
X101533333Y-109107200D01*
X101533333Y-109107200D02*
X101628571Y-109154819D01*
X101628571Y-109154819D02*
X101819047Y-109154819D01*
X101819047Y-109154819D02*
X101914285Y-109107200D01*
X101914285Y-109107200D02*
X101961904Y-109059580D01*
X101961904Y-109059580D02*
X102009523Y-108964342D01*
X102009523Y-108964342D02*
X102009523Y-108154819D01*
X102914285Y-108154819D02*
X102723809Y-108154819D01*
X102723809Y-108154819D02*
X102628571Y-108202438D01*
X102628571Y-108202438D02*
X102580952Y-108250057D01*
X102580952Y-108250057D02*
X102485714Y-108392914D01*
X102485714Y-108392914D02*
X102438095Y-108583390D01*
X102438095Y-108583390D02*
X102438095Y-108964342D01*
X102438095Y-108964342D02*
X102485714Y-109059580D01*
X102485714Y-109059580D02*
X102533333Y-109107200D01*
X102533333Y-109107200D02*
X102628571Y-109154819D01*
X102628571Y-109154819D02*
X102819047Y-109154819D01*
X102819047Y-109154819D02*
X102914285Y-109107200D01*
X102914285Y-109107200D02*
X102961904Y-109059580D01*
X102961904Y-109059580D02*
X103009523Y-108964342D01*
X103009523Y-108964342D02*
X103009523Y-108726247D01*
X103009523Y-108726247D02*
X102961904Y-108631009D01*
X102961904Y-108631009D02*
X102914285Y-108583390D01*
X102914285Y-108583390D02*
X102819047Y-108535771D01*
X102819047Y-108535771D02*
X102628571Y-108535771D01*
X102628571Y-108535771D02*
X102533333Y-108583390D01*
X102533333Y-108583390D02*
X102485714Y-108631009D01*
X102485714Y-108631009D02*
X102438095Y-108726247D01*
X115119366Y-71916666D02*
X115152700Y-71949999D01*
X115152700Y-71949999D02*
X115186033Y-72049999D01*
X115186033Y-72049999D02*
X115186033Y-72116666D01*
X115186033Y-72116666D02*
X115152700Y-72216666D01*
X115152700Y-72216666D02*
X115086033Y-72283333D01*
X115086033Y-72283333D02*
X115019366Y-72316666D01*
X115019366Y-72316666D02*
X114886033Y-72349999D01*
X114886033Y-72349999D02*
X114786033Y-72349999D01*
X114786033Y-72349999D02*
X114652700Y-72316666D01*
X114652700Y-72316666D02*
X114586033Y-72283333D01*
X114586033Y-72283333D02*
X114519366Y-72216666D01*
X114519366Y-72216666D02*
X114486033Y-72116666D01*
X114486033Y-72116666D02*
X114486033Y-72049999D01*
X114486033Y-72049999D02*
X114519366Y-71949999D01*
X114519366Y-71949999D02*
X114552700Y-71916666D01*
X114786033Y-71516666D02*
X114752700Y-71583333D01*
X114752700Y-71583333D02*
X114719366Y-71616666D01*
X114719366Y-71616666D02*
X114652700Y-71649999D01*
X114652700Y-71649999D02*
X114619366Y-71649999D01*
X114619366Y-71649999D02*
X114552700Y-71616666D01*
X114552700Y-71616666D02*
X114519366Y-71583333D01*
X114519366Y-71583333D02*
X114486033Y-71516666D01*
X114486033Y-71516666D02*
X114486033Y-71383333D01*
X114486033Y-71383333D02*
X114519366Y-71316666D01*
X114519366Y-71316666D02*
X114552700Y-71283333D01*
X114552700Y-71283333D02*
X114619366Y-71249999D01*
X114619366Y-71249999D02*
X114652700Y-71249999D01*
X114652700Y-71249999D02*
X114719366Y-71283333D01*
X114719366Y-71283333D02*
X114752700Y-71316666D01*
X114752700Y-71316666D02*
X114786033Y-71383333D01*
X114786033Y-71383333D02*
X114786033Y-71516666D01*
X114786033Y-71516666D02*
X114819366Y-71583333D01*
X114819366Y-71583333D02*
X114852700Y-71616666D01*
X114852700Y-71616666D02*
X114919366Y-71649999D01*
X114919366Y-71649999D02*
X115052700Y-71649999D01*
X115052700Y-71649999D02*
X115119366Y-71616666D01*
X115119366Y-71616666D02*
X115152700Y-71583333D01*
X115152700Y-71583333D02*
X115186033Y-71516666D01*
X115186033Y-71516666D02*
X115186033Y-71383333D01*
X115186033Y-71383333D02*
X115152700Y-71316666D01*
X115152700Y-71316666D02*
X115119366Y-71283333D01*
X115119366Y-71283333D02*
X115052700Y-71249999D01*
X115052700Y-71249999D02*
X114919366Y-71249999D01*
X114919366Y-71249999D02*
X114852700Y-71283333D01*
X114852700Y-71283333D02*
X114819366Y-71316666D01*
X114819366Y-71316666D02*
X114786033Y-71383333D01*
X92161905Y-67254819D02*
X92161905Y-66254819D01*
X92161905Y-66254819D02*
X92400000Y-66254819D01*
X92400000Y-66254819D02*
X92542857Y-66302438D01*
X92542857Y-66302438D02*
X92638095Y-66397676D01*
X92638095Y-66397676D02*
X92685714Y-66492914D01*
X92685714Y-66492914D02*
X92733333Y-66683390D01*
X92733333Y-66683390D02*
X92733333Y-66826247D01*
X92733333Y-66826247D02*
X92685714Y-67016723D01*
X92685714Y-67016723D02*
X92638095Y-67111961D01*
X92638095Y-67111961D02*
X92542857Y-67207200D01*
X92542857Y-67207200D02*
X92400000Y-67254819D01*
X92400000Y-67254819D02*
X92161905Y-67254819D01*
X93304762Y-66683390D02*
X93209524Y-66635771D01*
X93209524Y-66635771D02*
X93161905Y-66588152D01*
X93161905Y-66588152D02*
X93114286Y-66492914D01*
X93114286Y-66492914D02*
X93114286Y-66445295D01*
X93114286Y-66445295D02*
X93161905Y-66350057D01*
X93161905Y-66350057D02*
X93209524Y-66302438D01*
X93209524Y-66302438D02*
X93304762Y-66254819D01*
X93304762Y-66254819D02*
X93495238Y-66254819D01*
X93495238Y-66254819D02*
X93590476Y-66302438D01*
X93590476Y-66302438D02*
X93638095Y-66350057D01*
X93638095Y-66350057D02*
X93685714Y-66445295D01*
X93685714Y-66445295D02*
X93685714Y-66492914D01*
X93685714Y-66492914D02*
X93638095Y-66588152D01*
X93638095Y-66588152D02*
X93590476Y-66635771D01*
X93590476Y-66635771D02*
X93495238Y-66683390D01*
X93495238Y-66683390D02*
X93304762Y-66683390D01*
X93304762Y-66683390D02*
X93209524Y-66731009D01*
X93209524Y-66731009D02*
X93161905Y-66778628D01*
X93161905Y-66778628D02*
X93114286Y-66873866D01*
X93114286Y-66873866D02*
X93114286Y-67064342D01*
X93114286Y-67064342D02*
X93161905Y-67159580D01*
X93161905Y-67159580D02*
X93209524Y-67207200D01*
X93209524Y-67207200D02*
X93304762Y-67254819D01*
X93304762Y-67254819D02*
X93495238Y-67254819D01*
X93495238Y-67254819D02*
X93590476Y-67207200D01*
X93590476Y-67207200D02*
X93638095Y-67159580D01*
X93638095Y-67159580D02*
X93685714Y-67064342D01*
X93685714Y-67064342D02*
X93685714Y-66873866D01*
X93685714Y-66873866D02*
X93638095Y-66778628D01*
X93638095Y-66778628D02*
X93590476Y-66731009D01*
X93590476Y-66731009D02*
X93495238Y-66683390D01*
X115988571Y-100553295D02*
X115531428Y-100553295D01*
X115760000Y-100553295D02*
X115760000Y-99753295D01*
X115760000Y-99753295D02*
X115683809Y-99867580D01*
X115683809Y-99867580D02*
X115607619Y-99943771D01*
X115607619Y-99943771D02*
X115531428Y-99981866D01*
X96738571Y-138698295D02*
X96281428Y-138698295D01*
X96510000Y-138698295D02*
X96510000Y-137898295D01*
X96510000Y-137898295D02*
X96433809Y-138012580D01*
X96433809Y-138012580D02*
X96357619Y-138088771D01*
X96357619Y-138088771D02*
X96281428Y-138126866D01*
X127349366Y-113716666D02*
X127382700Y-113749999D01*
X127382700Y-113749999D02*
X127416033Y-113849999D01*
X127416033Y-113849999D02*
X127416033Y-113916666D01*
X127416033Y-113916666D02*
X127382700Y-114016666D01*
X127382700Y-114016666D02*
X127316033Y-114083333D01*
X127316033Y-114083333D02*
X127249366Y-114116666D01*
X127249366Y-114116666D02*
X127116033Y-114149999D01*
X127116033Y-114149999D02*
X127016033Y-114149999D01*
X127016033Y-114149999D02*
X126882700Y-114116666D01*
X126882700Y-114116666D02*
X126816033Y-114083333D01*
X126816033Y-114083333D02*
X126749366Y-114016666D01*
X126749366Y-114016666D02*
X126716033Y-113916666D01*
X126716033Y-113916666D02*
X126716033Y-113849999D01*
X126716033Y-113849999D02*
X126749366Y-113749999D01*
X126749366Y-113749999D02*
X126782700Y-113716666D01*
X126716033Y-113483333D02*
X126716033Y-113049999D01*
X126716033Y-113049999D02*
X126982700Y-113283333D01*
X126982700Y-113283333D02*
X126982700Y-113183333D01*
X126982700Y-113183333D02*
X127016033Y-113116666D01*
X127016033Y-113116666D02*
X127049366Y-113083333D01*
X127049366Y-113083333D02*
X127116033Y-113049999D01*
X127116033Y-113049999D02*
X127282700Y-113049999D01*
X127282700Y-113049999D02*
X127349366Y-113083333D01*
X127349366Y-113083333D02*
X127382700Y-113116666D01*
X127382700Y-113116666D02*
X127416033Y-113183333D01*
X127416033Y-113183333D02*
X127416033Y-113383333D01*
X127416033Y-113383333D02*
X127382700Y-113449999D01*
X127382700Y-113449999D02*
X127349366Y-113483333D01*
X116230571Y-119642295D02*
X115773428Y-119642295D01*
X116002000Y-119642295D02*
X116002000Y-118842295D01*
X116002000Y-118842295D02*
X115925809Y-118956580D01*
X115925809Y-118956580D02*
X115849619Y-119032771D01*
X115849619Y-119032771D02*
X115773428Y-119070866D01*
X96349999Y-66716033D02*
X96116666Y-66382700D01*
X95949999Y-66716033D02*
X95949999Y-66016033D01*
X95949999Y-66016033D02*
X96216666Y-66016033D01*
X96216666Y-66016033D02*
X96283333Y-66049366D01*
X96283333Y-66049366D02*
X96316666Y-66082700D01*
X96316666Y-66082700D02*
X96349999Y-66149366D01*
X96349999Y-66149366D02*
X96349999Y-66249366D01*
X96349999Y-66249366D02*
X96316666Y-66316033D01*
X96316666Y-66316033D02*
X96283333Y-66349366D01*
X96283333Y-66349366D02*
X96216666Y-66382700D01*
X96216666Y-66382700D02*
X95949999Y-66382700D01*
X96949999Y-66249366D02*
X96949999Y-66716033D01*
X96783333Y-65982700D02*
X96616666Y-66482700D01*
X96616666Y-66482700D02*
X97049999Y-66482700D01*
X97450000Y-66016033D02*
X97516666Y-66016033D01*
X97516666Y-66016033D02*
X97583333Y-66049366D01*
X97583333Y-66049366D02*
X97616666Y-66082700D01*
X97616666Y-66082700D02*
X97650000Y-66149366D01*
X97650000Y-66149366D02*
X97683333Y-66282700D01*
X97683333Y-66282700D02*
X97683333Y-66449366D01*
X97683333Y-66449366D02*
X97650000Y-66582700D01*
X97650000Y-66582700D02*
X97616666Y-66649366D01*
X97616666Y-66649366D02*
X97583333Y-66682700D01*
X97583333Y-66682700D02*
X97516666Y-66716033D01*
X97516666Y-66716033D02*
X97450000Y-66716033D01*
X97450000Y-66716033D02*
X97383333Y-66682700D01*
X97383333Y-66682700D02*
X97350000Y-66649366D01*
X97350000Y-66649366D02*
X97316666Y-66582700D01*
X97316666Y-66582700D02*
X97283333Y-66449366D01*
X97283333Y-66449366D02*
X97283333Y-66282700D01*
X97283333Y-66282700D02*
X97316666Y-66149366D01*
X97316666Y-66149366D02*
X97350000Y-66082700D01*
X97350000Y-66082700D02*
X97383333Y-66049366D01*
X97383333Y-66049366D02*
X97450000Y-66016033D01*
X96157142Y-79824819D02*
X95823809Y-79348628D01*
X95585714Y-79824819D02*
X95585714Y-78824819D01*
X95585714Y-78824819D02*
X95966666Y-78824819D01*
X95966666Y-78824819D02*
X96061904Y-78872438D01*
X96061904Y-78872438D02*
X96109523Y-78920057D01*
X96109523Y-78920057D02*
X96157142Y-79015295D01*
X96157142Y-79015295D02*
X96157142Y-79158152D01*
X96157142Y-79158152D02*
X96109523Y-79253390D01*
X96109523Y-79253390D02*
X96061904Y-79301009D01*
X96061904Y-79301009D02*
X95966666Y-79348628D01*
X95966666Y-79348628D02*
X95585714Y-79348628D01*
X97014285Y-79158152D02*
X97014285Y-79824819D01*
X96776190Y-78777200D02*
X96538095Y-79491485D01*
X96538095Y-79491485D02*
X97157142Y-79491485D01*
X98014285Y-78824819D02*
X97538095Y-78824819D01*
X97538095Y-78824819D02*
X97490476Y-79301009D01*
X97490476Y-79301009D02*
X97538095Y-79253390D01*
X97538095Y-79253390D02*
X97633333Y-79205771D01*
X97633333Y-79205771D02*
X97871428Y-79205771D01*
X97871428Y-79205771D02*
X97966666Y-79253390D01*
X97966666Y-79253390D02*
X98014285Y-79301009D01*
X98014285Y-79301009D02*
X98061904Y-79396247D01*
X98061904Y-79396247D02*
X98061904Y-79634342D01*
X98061904Y-79634342D02*
X98014285Y-79729580D01*
X98014285Y-79729580D02*
X97966666Y-79777200D01*
X97966666Y-79777200D02*
X97871428Y-79824819D01*
X97871428Y-79824819D02*
X97633333Y-79824819D01*
X97633333Y-79824819D02*
X97538095Y-79777200D01*
X97538095Y-79777200D02*
X97490476Y-79729580D01*
X108549366Y-76150000D02*
X108582700Y-76183333D01*
X108582700Y-76183333D02*
X108616033Y-76283333D01*
X108616033Y-76283333D02*
X108616033Y-76350000D01*
X108616033Y-76350000D02*
X108582700Y-76450000D01*
X108582700Y-76450000D02*
X108516033Y-76516667D01*
X108516033Y-76516667D02*
X108449366Y-76550000D01*
X108449366Y-76550000D02*
X108316033Y-76583333D01*
X108316033Y-76583333D02*
X108216033Y-76583333D01*
X108216033Y-76583333D02*
X108082700Y-76550000D01*
X108082700Y-76550000D02*
X108016033Y-76516667D01*
X108016033Y-76516667D02*
X107949366Y-76450000D01*
X107949366Y-76450000D02*
X107916033Y-76350000D01*
X107916033Y-76350000D02*
X107916033Y-76283333D01*
X107916033Y-76283333D02*
X107949366Y-76183333D01*
X107949366Y-76183333D02*
X107982700Y-76150000D01*
X108616033Y-75483333D02*
X108616033Y-75883333D01*
X108616033Y-75683333D02*
X107916033Y-75683333D01*
X107916033Y-75683333D02*
X108016033Y-75750000D01*
X108016033Y-75750000D02*
X108082700Y-75816667D01*
X108082700Y-75816667D02*
X108116033Y-75883333D01*
X107982700Y-75216666D02*
X107949366Y-75183333D01*
X107949366Y-75183333D02*
X107916033Y-75116666D01*
X107916033Y-75116666D02*
X107916033Y-74950000D01*
X107916033Y-74950000D02*
X107949366Y-74883333D01*
X107949366Y-74883333D02*
X107982700Y-74850000D01*
X107982700Y-74850000D02*
X108049366Y-74816666D01*
X108049366Y-74816666D02*
X108116033Y-74816666D01*
X108116033Y-74816666D02*
X108216033Y-74850000D01*
X108216033Y-74850000D02*
X108616033Y-75250000D01*
X108616033Y-75250000D02*
X108616033Y-74816666D01*
X132616033Y-130250000D02*
X132282700Y-130483333D01*
X132616033Y-130650000D02*
X131916033Y-130650000D01*
X131916033Y-130650000D02*
X131916033Y-130383333D01*
X131916033Y-130383333D02*
X131949366Y-130316667D01*
X131949366Y-130316667D02*
X131982700Y-130283333D01*
X131982700Y-130283333D02*
X132049366Y-130250000D01*
X132049366Y-130250000D02*
X132149366Y-130250000D01*
X132149366Y-130250000D02*
X132216033Y-130283333D01*
X132216033Y-130283333D02*
X132249366Y-130316667D01*
X132249366Y-130316667D02*
X132282700Y-130383333D01*
X132282700Y-130383333D02*
X132282700Y-130650000D01*
X131916033Y-130016667D02*
X131916033Y-129583333D01*
X131916033Y-129583333D02*
X132182700Y-129816667D01*
X132182700Y-129816667D02*
X132182700Y-129716667D01*
X132182700Y-129716667D02*
X132216033Y-129650000D01*
X132216033Y-129650000D02*
X132249366Y-129616667D01*
X132249366Y-129616667D02*
X132316033Y-129583333D01*
X132316033Y-129583333D02*
X132482700Y-129583333D01*
X132482700Y-129583333D02*
X132549366Y-129616667D01*
X132549366Y-129616667D02*
X132582700Y-129650000D01*
X132582700Y-129650000D02*
X132616033Y-129716667D01*
X132616033Y-129716667D02*
X132616033Y-129916667D01*
X132616033Y-129916667D02*
X132582700Y-129983333D01*
X132582700Y-129983333D02*
X132549366Y-130016667D01*
X131916033Y-128950000D02*
X131916033Y-129283333D01*
X131916033Y-129283333D02*
X132249366Y-129316666D01*
X132249366Y-129316666D02*
X132216033Y-129283333D01*
X132216033Y-129283333D02*
X132182700Y-129216666D01*
X132182700Y-129216666D02*
X132182700Y-129050000D01*
X132182700Y-129050000D02*
X132216033Y-128983333D01*
X132216033Y-128983333D02*
X132249366Y-128950000D01*
X132249366Y-128950000D02*
X132316033Y-128916666D01*
X132316033Y-128916666D02*
X132482700Y-128916666D01*
X132482700Y-128916666D02*
X132549366Y-128950000D01*
X132549366Y-128950000D02*
X132582700Y-128983333D01*
X132582700Y-128983333D02*
X132616033Y-129050000D01*
X132616033Y-129050000D02*
X132616033Y-129216666D01*
X132616033Y-129216666D02*
X132582700Y-129283333D01*
X132582700Y-129283333D02*
X132549366Y-129316666D01*
X77628571Y-119755295D02*
X77171428Y-119755295D01*
X77400000Y-119755295D02*
X77400000Y-118955295D01*
X77400000Y-118955295D02*
X77323809Y-119069580D01*
X77323809Y-119069580D02*
X77247619Y-119145771D01*
X77247619Y-119145771D02*
X77171428Y-119183866D01*
X102961905Y-144960819D02*
X102961905Y-143960819D01*
X102961905Y-143960819D02*
X103200000Y-143960819D01*
X103200000Y-143960819D02*
X103342857Y-144008438D01*
X103342857Y-144008438D02*
X103438095Y-144103676D01*
X103438095Y-144103676D02*
X103485714Y-144198914D01*
X103485714Y-144198914D02*
X103533333Y-144389390D01*
X103533333Y-144389390D02*
X103533333Y-144532247D01*
X103533333Y-144532247D02*
X103485714Y-144722723D01*
X103485714Y-144722723D02*
X103438095Y-144817961D01*
X103438095Y-144817961D02*
X103342857Y-144913200D01*
X103342857Y-144913200D02*
X103200000Y-144960819D01*
X103200000Y-144960819D02*
X102961905Y-144960819D01*
X104390476Y-144294152D02*
X104390476Y-144960819D01*
X104152381Y-143913200D02*
X103914286Y-144627485D01*
X103914286Y-144627485D02*
X104533333Y-144627485D01*
X131850633Y-116783333D02*
X131817300Y-116750000D01*
X131817300Y-116750000D02*
X131783966Y-116650000D01*
X131783966Y-116650000D02*
X131783966Y-116583333D01*
X131783966Y-116583333D02*
X131817300Y-116483333D01*
X131817300Y-116483333D02*
X131883966Y-116416667D01*
X131883966Y-116416667D02*
X131950633Y-116383333D01*
X131950633Y-116383333D02*
X132083966Y-116350000D01*
X132083966Y-116350000D02*
X132183966Y-116350000D01*
X132183966Y-116350000D02*
X132317300Y-116383333D01*
X132317300Y-116383333D02*
X132383966Y-116416667D01*
X132383966Y-116416667D02*
X132450633Y-116483333D01*
X132450633Y-116483333D02*
X132483966Y-116583333D01*
X132483966Y-116583333D02*
X132483966Y-116650000D01*
X132483966Y-116650000D02*
X132450633Y-116750000D01*
X132450633Y-116750000D02*
X132417300Y-116783333D01*
X131783966Y-117450000D02*
X131783966Y-117050000D01*
X131783966Y-117250000D02*
X132483966Y-117250000D01*
X132483966Y-117250000D02*
X132383966Y-117183333D01*
X132383966Y-117183333D02*
X132317300Y-117116667D01*
X132317300Y-117116667D02*
X132283966Y-117050000D01*
X96858571Y-100626295D02*
X96401428Y-100626295D01*
X96630000Y-100626295D02*
X96630000Y-99826295D01*
X96630000Y-99826295D02*
X96553809Y-99940580D01*
X96553809Y-99940580D02*
X96477619Y-100016771D01*
X96477619Y-100016771D02*
X96401428Y-100054866D01*
X75761905Y-106087819D02*
X75761905Y-105087819D01*
X75761905Y-105087819D02*
X76000000Y-105087819D01*
X76000000Y-105087819D02*
X76142857Y-105135438D01*
X76142857Y-105135438D02*
X76238095Y-105230676D01*
X76238095Y-105230676D02*
X76285714Y-105325914D01*
X76285714Y-105325914D02*
X76333333Y-105516390D01*
X76333333Y-105516390D02*
X76333333Y-105659247D01*
X76333333Y-105659247D02*
X76285714Y-105849723D01*
X76285714Y-105849723D02*
X76238095Y-105944961D01*
X76238095Y-105944961D02*
X76142857Y-106040200D01*
X76142857Y-106040200D02*
X76000000Y-106087819D01*
X76000000Y-106087819D02*
X75761905Y-106087819D01*
X77285714Y-106087819D02*
X76714286Y-106087819D01*
X77000000Y-106087819D02*
X77000000Y-105087819D01*
X77000000Y-105087819D02*
X76904762Y-105230676D01*
X76904762Y-105230676D02*
X76809524Y-105325914D01*
X76809524Y-105325914D02*
X76714286Y-105373533D01*
X99111905Y-111752819D02*
X99111905Y-112562342D01*
X99111905Y-112562342D02*
X99159524Y-112657580D01*
X99159524Y-112657580D02*
X99207143Y-112705200D01*
X99207143Y-112705200D02*
X99302381Y-112752819D01*
X99302381Y-112752819D02*
X99492857Y-112752819D01*
X99492857Y-112752819D02*
X99588095Y-112705200D01*
X99588095Y-112705200D02*
X99635714Y-112657580D01*
X99635714Y-112657580D02*
X99683333Y-112562342D01*
X99683333Y-112562342D02*
X99683333Y-111752819D01*
X100683333Y-112752819D02*
X100111905Y-112752819D01*
X100397619Y-112752819D02*
X100397619Y-111752819D01*
X100397619Y-111752819D02*
X100302381Y-111895676D01*
X100302381Y-111895676D02*
X100207143Y-111990914D01*
X100207143Y-111990914D02*
X100111905Y-112038533D01*
X101159524Y-112752819D02*
X101350000Y-112752819D01*
X101350000Y-112752819D02*
X101445238Y-112705200D01*
X101445238Y-112705200D02*
X101492857Y-112657580D01*
X101492857Y-112657580D02*
X101588095Y-112514723D01*
X101588095Y-112514723D02*
X101635714Y-112324247D01*
X101635714Y-112324247D02*
X101635714Y-111943295D01*
X101635714Y-111943295D02*
X101588095Y-111848057D01*
X101588095Y-111848057D02*
X101540476Y-111800438D01*
X101540476Y-111800438D02*
X101445238Y-111752819D01*
X101445238Y-111752819D02*
X101254762Y-111752819D01*
X101254762Y-111752819D02*
X101159524Y-111800438D01*
X101159524Y-111800438D02*
X101111905Y-111848057D01*
X101111905Y-111848057D02*
X101064286Y-111943295D01*
X101064286Y-111943295D02*
X101064286Y-112181390D01*
X101064286Y-112181390D02*
X101111905Y-112276628D01*
X101111905Y-112276628D02*
X101159524Y-112324247D01*
X101159524Y-112324247D02*
X101254762Y-112371866D01*
X101254762Y-112371866D02*
X101445238Y-112371866D01*
X101445238Y-112371866D02*
X101540476Y-112324247D01*
X101540476Y-112324247D02*
X101588095Y-112276628D01*
X101588095Y-112276628D02*
X101635714Y-112181390D01*
X96949999Y-69286033D02*
X96716666Y-68952700D01*
X96549999Y-69286033D02*
X96549999Y-68586033D01*
X96549999Y-68586033D02*
X96816666Y-68586033D01*
X96816666Y-68586033D02*
X96883333Y-68619366D01*
X96883333Y-68619366D02*
X96916666Y-68652700D01*
X96916666Y-68652700D02*
X96949999Y-68719366D01*
X96949999Y-68719366D02*
X96949999Y-68819366D01*
X96949999Y-68819366D02*
X96916666Y-68886033D01*
X96916666Y-68886033D02*
X96883333Y-68919366D01*
X96883333Y-68919366D02*
X96816666Y-68952700D01*
X96816666Y-68952700D02*
X96549999Y-68952700D01*
X97549999Y-68819366D02*
X97549999Y-69286033D01*
X97383333Y-68552700D02*
X97216666Y-69052700D01*
X97216666Y-69052700D02*
X97649999Y-69052700D01*
X98283333Y-69286033D02*
X97883333Y-69286033D01*
X98083333Y-69286033D02*
X98083333Y-68586033D01*
X98083333Y-68586033D02*
X98016666Y-68686033D01*
X98016666Y-68686033D02*
X97950000Y-68752700D01*
X97950000Y-68752700D02*
X97883333Y-68786033D01*
X77704571Y-99900295D02*
X77247428Y-99900295D01*
X77476000Y-99900295D02*
X77476000Y-99100295D01*
X77476000Y-99100295D02*
X77399809Y-99214580D01*
X77399809Y-99214580D02*
X77323619Y-99290771D01*
X77323619Y-99290771D02*
X77247428Y-99328866D01*
X77756571Y-157648295D02*
X77299428Y-157648295D01*
X77528000Y-157648295D02*
X77528000Y-156848295D01*
X77528000Y-156848295D02*
X77451809Y-156962580D01*
X77451809Y-156962580D02*
X77375619Y-157038771D01*
X77375619Y-157038771D02*
X77299428Y-157076866D01*
X102749999Y-75949366D02*
X102716666Y-75982700D01*
X102716666Y-75982700D02*
X102616666Y-76016033D01*
X102616666Y-76016033D02*
X102549999Y-76016033D01*
X102549999Y-76016033D02*
X102449999Y-75982700D01*
X102449999Y-75982700D02*
X102383333Y-75916033D01*
X102383333Y-75916033D02*
X102349999Y-75849366D01*
X102349999Y-75849366D02*
X102316666Y-75716033D01*
X102316666Y-75716033D02*
X102316666Y-75616033D01*
X102316666Y-75616033D02*
X102349999Y-75482700D01*
X102349999Y-75482700D02*
X102383333Y-75416033D01*
X102383333Y-75416033D02*
X102449999Y-75349366D01*
X102449999Y-75349366D02*
X102549999Y-75316033D01*
X102549999Y-75316033D02*
X102616666Y-75316033D01*
X102616666Y-75316033D02*
X102716666Y-75349366D01*
X102716666Y-75349366D02*
X102749999Y-75382700D01*
X103416666Y-76016033D02*
X103016666Y-76016033D01*
X103216666Y-76016033D02*
X103216666Y-75316033D01*
X103216666Y-75316033D02*
X103149999Y-75416033D01*
X103149999Y-75416033D02*
X103083333Y-75482700D01*
X103083333Y-75482700D02*
X103016666Y-75516033D01*
X104016666Y-75549366D02*
X104016666Y-76016033D01*
X103850000Y-75282700D02*
X103683333Y-75782700D01*
X103683333Y-75782700D02*
X104116666Y-75782700D01*
X126949999Y-136616033D02*
X126716666Y-136282700D01*
X126549999Y-136616033D02*
X126549999Y-135916033D01*
X126549999Y-135916033D02*
X126816666Y-135916033D01*
X126816666Y-135916033D02*
X126883333Y-135949366D01*
X126883333Y-135949366D02*
X126916666Y-135982700D01*
X126916666Y-135982700D02*
X126949999Y-136049366D01*
X126949999Y-136049366D02*
X126949999Y-136149366D01*
X126949999Y-136149366D02*
X126916666Y-136216033D01*
X126916666Y-136216033D02*
X126883333Y-136249366D01*
X126883333Y-136249366D02*
X126816666Y-136282700D01*
X126816666Y-136282700D02*
X126549999Y-136282700D01*
X127183333Y-135916033D02*
X127616666Y-135916033D01*
X127616666Y-135916033D02*
X127383333Y-136182700D01*
X127383333Y-136182700D02*
X127483333Y-136182700D01*
X127483333Y-136182700D02*
X127549999Y-136216033D01*
X127549999Y-136216033D02*
X127583333Y-136249366D01*
X127583333Y-136249366D02*
X127616666Y-136316033D01*
X127616666Y-136316033D02*
X127616666Y-136482700D01*
X127616666Y-136482700D02*
X127583333Y-136549366D01*
X127583333Y-136549366D02*
X127549999Y-136582700D01*
X127549999Y-136582700D02*
X127483333Y-136616033D01*
X127483333Y-136616033D02*
X127283333Y-136616033D01*
X127283333Y-136616033D02*
X127216666Y-136582700D01*
X127216666Y-136582700D02*
X127183333Y-136549366D01*
X128216666Y-135916033D02*
X128083333Y-135916033D01*
X128083333Y-135916033D02*
X128016666Y-135949366D01*
X128016666Y-135949366D02*
X127983333Y-135982700D01*
X127983333Y-135982700D02*
X127916666Y-136082700D01*
X127916666Y-136082700D02*
X127883333Y-136216033D01*
X127883333Y-136216033D02*
X127883333Y-136482700D01*
X127883333Y-136482700D02*
X127916666Y-136549366D01*
X127916666Y-136549366D02*
X127950000Y-136582700D01*
X127950000Y-136582700D02*
X128016666Y-136616033D01*
X128016666Y-136616033D02*
X128150000Y-136616033D01*
X128150000Y-136616033D02*
X128216666Y-136582700D01*
X128216666Y-136582700D02*
X128250000Y-136549366D01*
X128250000Y-136549366D02*
X128283333Y-136482700D01*
X128283333Y-136482700D02*
X128283333Y-136316033D01*
X128283333Y-136316033D02*
X128250000Y-136249366D01*
X128250000Y-136249366D02*
X128216666Y-136216033D01*
X128216666Y-136216033D02*
X128150000Y-136182700D01*
X128150000Y-136182700D02*
X128016666Y-136182700D01*
X128016666Y-136182700D02*
X127950000Y-136216033D01*
X127950000Y-136216033D02*
X127916666Y-136249366D01*
X127916666Y-136249366D02*
X127883333Y-136316033D01*
X96766571Y-157721295D02*
X96309428Y-157721295D01*
X96538000Y-157721295D02*
X96538000Y-156921295D01*
X96538000Y-156921295D02*
X96461809Y-157035580D01*
X96461809Y-157035580D02*
X96385619Y-157111771D01*
X96385619Y-157111771D02*
X96309428Y-157149866D01*
X92161905Y-69524819D02*
X92161905Y-68524819D01*
X92161905Y-68524819D02*
X92400000Y-68524819D01*
X92400000Y-68524819D02*
X92542857Y-68572438D01*
X92542857Y-68572438D02*
X92638095Y-68667676D01*
X92638095Y-68667676D02*
X92685714Y-68762914D01*
X92685714Y-68762914D02*
X92733333Y-68953390D01*
X92733333Y-68953390D02*
X92733333Y-69096247D01*
X92733333Y-69096247D02*
X92685714Y-69286723D01*
X92685714Y-69286723D02*
X92638095Y-69381961D01*
X92638095Y-69381961D02*
X92542857Y-69477200D01*
X92542857Y-69477200D02*
X92400000Y-69524819D01*
X92400000Y-69524819D02*
X92161905Y-69524819D01*
X93209524Y-69524819D02*
X93400000Y-69524819D01*
X93400000Y-69524819D02*
X93495238Y-69477200D01*
X93495238Y-69477200D02*
X93542857Y-69429580D01*
X93542857Y-69429580D02*
X93638095Y-69286723D01*
X93638095Y-69286723D02*
X93685714Y-69096247D01*
X93685714Y-69096247D02*
X93685714Y-68715295D01*
X93685714Y-68715295D02*
X93638095Y-68620057D01*
X93638095Y-68620057D02*
X93590476Y-68572438D01*
X93590476Y-68572438D02*
X93495238Y-68524819D01*
X93495238Y-68524819D02*
X93304762Y-68524819D01*
X93304762Y-68524819D02*
X93209524Y-68572438D01*
X93209524Y-68572438D02*
X93161905Y-68620057D01*
X93161905Y-68620057D02*
X93114286Y-68715295D01*
X93114286Y-68715295D02*
X93114286Y-68953390D01*
X93114286Y-68953390D02*
X93161905Y-69048628D01*
X93161905Y-69048628D02*
X93209524Y-69096247D01*
X93209524Y-69096247D02*
X93304762Y-69143866D01*
X93304762Y-69143866D02*
X93495238Y-69143866D01*
X93495238Y-69143866D02*
X93590476Y-69096247D01*
X93590476Y-69096247D02*
X93638095Y-69048628D01*
X93638095Y-69048628D02*
X93685714Y-68953390D01*
D12*
X99074318Y-85911666D02*
X99074318Y-86516428D01*
X99074318Y-86516428D02*
X97804318Y-86516428D01*
X97925270Y-85548809D02*
X97864794Y-85488333D01*
X97864794Y-85488333D02*
X97804318Y-85367380D01*
X97804318Y-85367380D02*
X97804318Y-85064999D01*
X97804318Y-85064999D02*
X97864794Y-84944047D01*
X97864794Y-84944047D02*
X97925270Y-84883571D01*
X97925270Y-84883571D02*
X98046222Y-84823094D01*
X98046222Y-84823094D02*
X98167175Y-84823094D01*
X98167175Y-84823094D02*
X98348603Y-84883571D01*
X98348603Y-84883571D02*
X99074318Y-85609285D01*
X99074318Y-85609285D02*
X99074318Y-84823094D01*
D11*
X106149999Y-85149366D02*
X106116666Y-85182700D01*
X106116666Y-85182700D02*
X106016666Y-85216033D01*
X106016666Y-85216033D02*
X105949999Y-85216033D01*
X105949999Y-85216033D02*
X105849999Y-85182700D01*
X105849999Y-85182700D02*
X105783333Y-85116033D01*
X105783333Y-85116033D02*
X105749999Y-85049366D01*
X105749999Y-85049366D02*
X105716666Y-84916033D01*
X105716666Y-84916033D02*
X105716666Y-84816033D01*
X105716666Y-84816033D02*
X105749999Y-84682700D01*
X105749999Y-84682700D02*
X105783333Y-84616033D01*
X105783333Y-84616033D02*
X105849999Y-84549366D01*
X105849999Y-84549366D02*
X105949999Y-84516033D01*
X105949999Y-84516033D02*
X106016666Y-84516033D01*
X106016666Y-84516033D02*
X106116666Y-84549366D01*
X106116666Y-84549366D02*
X106149999Y-84582700D01*
X106816666Y-85216033D02*
X106416666Y-85216033D01*
X106616666Y-85216033D02*
X106616666Y-84516033D01*
X106616666Y-84516033D02*
X106549999Y-84616033D01*
X106549999Y-84616033D02*
X106483333Y-84682700D01*
X106483333Y-84682700D02*
X106416666Y-84716033D01*
X107450000Y-84516033D02*
X107116666Y-84516033D01*
X107116666Y-84516033D02*
X107083333Y-84849366D01*
X107083333Y-84849366D02*
X107116666Y-84816033D01*
X107116666Y-84816033D02*
X107183333Y-84782700D01*
X107183333Y-84782700D02*
X107350000Y-84782700D01*
X107350000Y-84782700D02*
X107416666Y-84816033D01*
X107416666Y-84816033D02*
X107450000Y-84849366D01*
X107450000Y-84849366D02*
X107483333Y-84916033D01*
X107483333Y-84916033D02*
X107483333Y-85082700D01*
X107483333Y-85082700D02*
X107450000Y-85149366D01*
X107450000Y-85149366D02*
X107416666Y-85182700D01*
X107416666Y-85182700D02*
X107350000Y-85216033D01*
X107350000Y-85216033D02*
X107183333Y-85216033D01*
X107183333Y-85216033D02*
X107116666Y-85182700D01*
X107116666Y-85182700D02*
X107083333Y-85149366D01*
X96249999Y-74086033D02*
X96016666Y-73752700D01*
X95849999Y-74086033D02*
X95849999Y-73386033D01*
X95849999Y-73386033D02*
X96116666Y-73386033D01*
X96116666Y-73386033D02*
X96183333Y-73419366D01*
X96183333Y-73419366D02*
X96216666Y-73452700D01*
X96216666Y-73452700D02*
X96249999Y-73519366D01*
X96249999Y-73519366D02*
X96249999Y-73619366D01*
X96249999Y-73619366D02*
X96216666Y-73686033D01*
X96216666Y-73686033D02*
X96183333Y-73719366D01*
X96183333Y-73719366D02*
X96116666Y-73752700D01*
X96116666Y-73752700D02*
X95849999Y-73752700D01*
X96849999Y-73619366D02*
X96849999Y-74086033D01*
X96683333Y-73352700D02*
X96516666Y-73852700D01*
X96516666Y-73852700D02*
X96949999Y-73852700D01*
X97516666Y-73619366D02*
X97516666Y-74086033D01*
X97350000Y-73352700D02*
X97183333Y-73852700D01*
X97183333Y-73852700D02*
X97616666Y-73852700D01*
X76062295Y-84414285D02*
X75681342Y-84680952D01*
X76062295Y-84871428D02*
X75262295Y-84871428D01*
X75262295Y-84871428D02*
X75262295Y-84566666D01*
X75262295Y-84566666D02*
X75300390Y-84490476D01*
X75300390Y-84490476D02*
X75338485Y-84452381D01*
X75338485Y-84452381D02*
X75414676Y-84414285D01*
X75414676Y-84414285D02*
X75528961Y-84414285D01*
X75528961Y-84414285D02*
X75605152Y-84452381D01*
X75605152Y-84452381D02*
X75643247Y-84490476D01*
X75643247Y-84490476D02*
X75681342Y-84566666D01*
X75681342Y-84566666D02*
X75681342Y-84871428D01*
X75262295Y-84147619D02*
X75262295Y-83652381D01*
X75262295Y-83652381D02*
X75567057Y-83919047D01*
X75567057Y-83919047D02*
X75567057Y-83804762D01*
X75567057Y-83804762D02*
X75605152Y-83728571D01*
X75605152Y-83728571D02*
X75643247Y-83690476D01*
X75643247Y-83690476D02*
X75719438Y-83652381D01*
X75719438Y-83652381D02*
X75909914Y-83652381D01*
X75909914Y-83652381D02*
X75986104Y-83690476D01*
X75986104Y-83690476D02*
X76024200Y-83728571D01*
X76024200Y-83728571D02*
X76062295Y-83804762D01*
X76062295Y-83804762D02*
X76062295Y-84033333D01*
X76062295Y-84033333D02*
X76024200Y-84109524D01*
X76024200Y-84109524D02*
X75986104Y-84147619D01*
X75262295Y-83385714D02*
X75262295Y-82852380D01*
X75262295Y-82852380D02*
X76062295Y-83195238D01*
X91685714Y-79724819D02*
X91685714Y-78724819D01*
X91685714Y-78724819D02*
X91923809Y-78724819D01*
X91923809Y-78724819D02*
X92066666Y-78772438D01*
X92066666Y-78772438D02*
X92161904Y-78867676D01*
X92161904Y-78867676D02*
X92209523Y-78962914D01*
X92209523Y-78962914D02*
X92257142Y-79153390D01*
X92257142Y-79153390D02*
X92257142Y-79296247D01*
X92257142Y-79296247D02*
X92209523Y-79486723D01*
X92209523Y-79486723D02*
X92161904Y-79581961D01*
X92161904Y-79581961D02*
X92066666Y-79677200D01*
X92066666Y-79677200D02*
X91923809Y-79724819D01*
X91923809Y-79724819D02*
X91685714Y-79724819D01*
X93209523Y-79724819D02*
X92638095Y-79724819D01*
X92923809Y-79724819D02*
X92923809Y-78724819D01*
X92923809Y-78724819D02*
X92828571Y-78867676D01*
X92828571Y-78867676D02*
X92733333Y-78962914D01*
X92733333Y-78962914D02*
X92638095Y-79010533D01*
X94161904Y-79724819D02*
X93590476Y-79724819D01*
X93876190Y-79724819D02*
X93876190Y-78724819D01*
X93876190Y-78724819D02*
X93780952Y-78867676D01*
X93780952Y-78867676D02*
X93685714Y-78962914D01*
X93685714Y-78962914D02*
X93590476Y-79010533D01*
X130183333Y-136016033D02*
X129849999Y-136016033D01*
X129849999Y-136016033D02*
X129849999Y-135316033D01*
X130350000Y-135316033D02*
X130783333Y-135316033D01*
X130783333Y-135316033D02*
X130550000Y-135582700D01*
X130550000Y-135582700D02*
X130650000Y-135582700D01*
X130650000Y-135582700D02*
X130716666Y-135616033D01*
X130716666Y-135616033D02*
X130750000Y-135649366D01*
X130750000Y-135649366D02*
X130783333Y-135716033D01*
X130783333Y-135716033D02*
X130783333Y-135882700D01*
X130783333Y-135882700D02*
X130750000Y-135949366D01*
X130750000Y-135949366D02*
X130716666Y-135982700D01*
X130716666Y-135982700D02*
X130650000Y-136016033D01*
X130650000Y-136016033D02*
X130450000Y-136016033D01*
X130450000Y-136016033D02*
X130383333Y-135982700D01*
X130383333Y-135982700D02*
X130350000Y-135949366D01*
X99261905Y-129960819D02*
X99261905Y-130770342D01*
X99261905Y-130770342D02*
X99309524Y-130865580D01*
X99309524Y-130865580D02*
X99357143Y-130913200D01*
X99357143Y-130913200D02*
X99452381Y-130960819D01*
X99452381Y-130960819D02*
X99642857Y-130960819D01*
X99642857Y-130960819D02*
X99738095Y-130913200D01*
X99738095Y-130913200D02*
X99785714Y-130865580D01*
X99785714Y-130865580D02*
X99833333Y-130770342D01*
X99833333Y-130770342D02*
X99833333Y-129960819D01*
X100261905Y-130056057D02*
X100309524Y-130008438D01*
X100309524Y-130008438D02*
X100404762Y-129960819D01*
X100404762Y-129960819D02*
X100642857Y-129960819D01*
X100642857Y-129960819D02*
X100738095Y-130008438D01*
X100738095Y-130008438D02*
X100785714Y-130056057D01*
X100785714Y-130056057D02*
X100833333Y-130151295D01*
X100833333Y-130151295D02*
X100833333Y-130246533D01*
X100833333Y-130246533D02*
X100785714Y-130389390D01*
X100785714Y-130389390D02*
X100214286Y-130960819D01*
X100214286Y-130960819D02*
X100833333Y-130960819D01*
X101214286Y-130056057D02*
X101261905Y-130008438D01*
X101261905Y-130008438D02*
X101357143Y-129960819D01*
X101357143Y-129960819D02*
X101595238Y-129960819D01*
X101595238Y-129960819D02*
X101690476Y-130008438D01*
X101690476Y-130008438D02*
X101738095Y-130056057D01*
X101738095Y-130056057D02*
X101785714Y-130151295D01*
X101785714Y-130151295D02*
X101785714Y-130246533D01*
X101785714Y-130246533D02*
X101738095Y-130389390D01*
X101738095Y-130389390D02*
X101166667Y-130960819D01*
X101166667Y-130960819D02*
X101785714Y-130960819D01*
X110349366Y-78550000D02*
X110382700Y-78583333D01*
X110382700Y-78583333D02*
X110416033Y-78683333D01*
X110416033Y-78683333D02*
X110416033Y-78750000D01*
X110416033Y-78750000D02*
X110382700Y-78850000D01*
X110382700Y-78850000D02*
X110316033Y-78916667D01*
X110316033Y-78916667D02*
X110249366Y-78950000D01*
X110249366Y-78950000D02*
X110116033Y-78983333D01*
X110116033Y-78983333D02*
X110016033Y-78983333D01*
X110016033Y-78983333D02*
X109882700Y-78950000D01*
X109882700Y-78950000D02*
X109816033Y-78916667D01*
X109816033Y-78916667D02*
X109749366Y-78850000D01*
X109749366Y-78850000D02*
X109716033Y-78750000D01*
X109716033Y-78750000D02*
X109716033Y-78683333D01*
X109716033Y-78683333D02*
X109749366Y-78583333D01*
X109749366Y-78583333D02*
X109782700Y-78550000D01*
X110416033Y-77883333D02*
X110416033Y-78283333D01*
X110416033Y-78083333D02*
X109716033Y-78083333D01*
X109716033Y-78083333D02*
X109816033Y-78150000D01*
X109816033Y-78150000D02*
X109882700Y-78216667D01*
X109882700Y-78216667D02*
X109916033Y-78283333D01*
X109716033Y-77283333D02*
X109716033Y-77416666D01*
X109716033Y-77416666D02*
X109749366Y-77483333D01*
X109749366Y-77483333D02*
X109782700Y-77516666D01*
X109782700Y-77516666D02*
X109882700Y-77583333D01*
X109882700Y-77583333D02*
X110016033Y-77616666D01*
X110016033Y-77616666D02*
X110282700Y-77616666D01*
X110282700Y-77616666D02*
X110349366Y-77583333D01*
X110349366Y-77583333D02*
X110382700Y-77550000D01*
X110382700Y-77550000D02*
X110416033Y-77483333D01*
X110416033Y-77483333D02*
X110416033Y-77350000D01*
X110416033Y-77350000D02*
X110382700Y-77283333D01*
X110382700Y-77283333D02*
X110349366Y-77250000D01*
X110349366Y-77250000D02*
X110282700Y-77216666D01*
X110282700Y-77216666D02*
X110116033Y-77216666D01*
X110116033Y-77216666D02*
X110049366Y-77250000D01*
X110049366Y-77250000D02*
X110016033Y-77283333D01*
X110016033Y-77283333D02*
X109982700Y-77350000D01*
X109982700Y-77350000D02*
X109982700Y-77483333D01*
X109982700Y-77483333D02*
X110016033Y-77550000D01*
X110016033Y-77550000D02*
X110049366Y-77583333D01*
X110049366Y-77583333D02*
X110116033Y-77616666D01*
X110642628Y-81985714D02*
X110671200Y-82014286D01*
X110671200Y-82014286D02*
X110699771Y-82100000D01*
X110699771Y-82100000D02*
X110699771Y-82157143D01*
X110699771Y-82157143D02*
X110671200Y-82242857D01*
X110671200Y-82242857D02*
X110614057Y-82300000D01*
X110614057Y-82300000D02*
X110556914Y-82328571D01*
X110556914Y-82328571D02*
X110442628Y-82357143D01*
X110442628Y-82357143D02*
X110356914Y-82357143D01*
X110356914Y-82357143D02*
X110242628Y-82328571D01*
X110242628Y-82328571D02*
X110185485Y-82300000D01*
X110185485Y-82300000D02*
X110128342Y-82242857D01*
X110128342Y-82242857D02*
X110099771Y-82157143D01*
X110099771Y-82157143D02*
X110099771Y-82100000D01*
X110099771Y-82100000D02*
X110128342Y-82014286D01*
X110128342Y-82014286D02*
X110156914Y-81985714D01*
X110699771Y-81414286D02*
X110699771Y-81757143D01*
X110699771Y-81585714D02*
X110099771Y-81585714D01*
X110099771Y-81585714D02*
X110185485Y-81642857D01*
X110185485Y-81642857D02*
X110242628Y-81700000D01*
X110242628Y-81700000D02*
X110271200Y-81757143D01*
X110099771Y-81214285D02*
X110099771Y-80842857D01*
X110099771Y-80842857D02*
X110328342Y-81042857D01*
X110328342Y-81042857D02*
X110328342Y-80957142D01*
X110328342Y-80957142D02*
X110356914Y-80900000D01*
X110356914Y-80900000D02*
X110385485Y-80871428D01*
X110385485Y-80871428D02*
X110442628Y-80842857D01*
X110442628Y-80842857D02*
X110585485Y-80842857D01*
X110585485Y-80842857D02*
X110642628Y-80871428D01*
X110642628Y-80871428D02*
X110671200Y-80900000D01*
X110671200Y-80900000D02*
X110699771Y-80957142D01*
X110699771Y-80957142D02*
X110699771Y-81128571D01*
X110699771Y-81128571D02*
X110671200Y-81185714D01*
X110671200Y-81185714D02*
X110642628Y-81214285D01*
X116778571Y-138872295D02*
X116321428Y-138872295D01*
X116550000Y-138872295D02*
X116550000Y-138072295D01*
X116550000Y-138072295D02*
X116473809Y-138186580D01*
X116473809Y-138186580D02*
X116397619Y-138262771D01*
X116397619Y-138262771D02*
X116321428Y-138300866D01*
X131446033Y-145437500D02*
X131112700Y-145670833D01*
X131446033Y-145837500D02*
X130746033Y-145837500D01*
X130746033Y-145837500D02*
X130746033Y-145570833D01*
X130746033Y-145570833D02*
X130779366Y-145504167D01*
X130779366Y-145504167D02*
X130812700Y-145470833D01*
X130812700Y-145470833D02*
X130879366Y-145437500D01*
X130879366Y-145437500D02*
X130979366Y-145437500D01*
X130979366Y-145437500D02*
X131046033Y-145470833D01*
X131046033Y-145470833D02*
X131079366Y-145504167D01*
X131079366Y-145504167D02*
X131112700Y-145570833D01*
X131112700Y-145570833D02*
X131112700Y-145837500D01*
X130812700Y-145170833D02*
X130779366Y-145137500D01*
X130779366Y-145137500D02*
X130746033Y-145070833D01*
X130746033Y-145070833D02*
X130746033Y-144904167D01*
X130746033Y-144904167D02*
X130779366Y-144837500D01*
X130779366Y-144837500D02*
X130812700Y-144804167D01*
X130812700Y-144804167D02*
X130879366Y-144770833D01*
X130879366Y-144770833D02*
X130946033Y-144770833D01*
X130946033Y-144770833D02*
X131046033Y-144804167D01*
X131046033Y-144804167D02*
X131446033Y-145204167D01*
X131446033Y-145204167D02*
X131446033Y-144770833D01*
X131046033Y-144370833D02*
X131012700Y-144437500D01*
X131012700Y-144437500D02*
X130979366Y-144470833D01*
X130979366Y-144470833D02*
X130912700Y-144504166D01*
X130912700Y-144504166D02*
X130879366Y-144504166D01*
X130879366Y-144504166D02*
X130812700Y-144470833D01*
X130812700Y-144470833D02*
X130779366Y-144437500D01*
X130779366Y-144437500D02*
X130746033Y-144370833D01*
X130746033Y-144370833D02*
X130746033Y-144237500D01*
X130746033Y-144237500D02*
X130779366Y-144170833D01*
X130779366Y-144170833D02*
X130812700Y-144137500D01*
X130812700Y-144137500D02*
X130879366Y-144104166D01*
X130879366Y-144104166D02*
X130912700Y-144104166D01*
X130912700Y-144104166D02*
X130979366Y-144137500D01*
X130979366Y-144137500D02*
X131012700Y-144170833D01*
X131012700Y-144170833D02*
X131046033Y-144237500D01*
X131046033Y-144237500D02*
X131046033Y-144370833D01*
X131046033Y-144370833D02*
X131079366Y-144437500D01*
X131079366Y-144437500D02*
X131112700Y-144470833D01*
X131112700Y-144470833D02*
X131179366Y-144504166D01*
X131179366Y-144504166D02*
X131312700Y-144504166D01*
X131312700Y-144504166D02*
X131379366Y-144470833D01*
X131379366Y-144470833D02*
X131412700Y-144437500D01*
X131412700Y-144437500D02*
X131446033Y-144370833D01*
X131446033Y-144370833D02*
X131446033Y-144237500D01*
X131446033Y-144237500D02*
X131412700Y-144170833D01*
X131412700Y-144170833D02*
X131379366Y-144137500D01*
X131379366Y-144137500D02*
X131312700Y-144104166D01*
X131312700Y-144104166D02*
X131179366Y-144104166D01*
X131179366Y-144104166D02*
X131112700Y-144137500D01*
X131112700Y-144137500D02*
X131079366Y-144170833D01*
X131079366Y-144170833D02*
X131046033Y-144237500D01*
X129349366Y-118216666D02*
X129382700Y-118249999D01*
X129382700Y-118249999D02*
X129416033Y-118349999D01*
X129416033Y-118349999D02*
X129416033Y-118416666D01*
X129416033Y-118416666D02*
X129382700Y-118516666D01*
X129382700Y-118516666D02*
X129316033Y-118583333D01*
X129316033Y-118583333D02*
X129249366Y-118616666D01*
X129249366Y-118616666D02*
X129116033Y-118649999D01*
X129116033Y-118649999D02*
X129016033Y-118649999D01*
X129016033Y-118649999D02*
X128882700Y-118616666D01*
X128882700Y-118616666D02*
X128816033Y-118583333D01*
X128816033Y-118583333D02*
X128749366Y-118516666D01*
X128749366Y-118516666D02*
X128716033Y-118416666D01*
X128716033Y-118416666D02*
X128716033Y-118349999D01*
X128716033Y-118349999D02*
X128749366Y-118249999D01*
X128749366Y-118249999D02*
X128782700Y-118216666D01*
X128949366Y-117616666D02*
X129416033Y-117616666D01*
X128682700Y-117783333D02*
X129182700Y-117949999D01*
X129182700Y-117949999D02*
X129182700Y-117516666D01*
X91685714Y-74224819D02*
X91685714Y-73224819D01*
X91685714Y-73224819D02*
X91923809Y-73224819D01*
X91923809Y-73224819D02*
X92066666Y-73272438D01*
X92066666Y-73272438D02*
X92161904Y-73367676D01*
X92161904Y-73367676D02*
X92209523Y-73462914D01*
X92209523Y-73462914D02*
X92257142Y-73653390D01*
X92257142Y-73653390D02*
X92257142Y-73796247D01*
X92257142Y-73796247D02*
X92209523Y-73986723D01*
X92209523Y-73986723D02*
X92161904Y-74081961D01*
X92161904Y-74081961D02*
X92066666Y-74177200D01*
X92066666Y-74177200D02*
X91923809Y-74224819D01*
X91923809Y-74224819D02*
X91685714Y-74224819D01*
X93209523Y-74224819D02*
X92638095Y-74224819D01*
X92923809Y-74224819D02*
X92923809Y-73224819D01*
X92923809Y-73224819D02*
X92828571Y-73367676D01*
X92828571Y-73367676D02*
X92733333Y-73462914D01*
X92733333Y-73462914D02*
X92638095Y-73510533D01*
X93828571Y-73224819D02*
X93923809Y-73224819D01*
X93923809Y-73224819D02*
X94019047Y-73272438D01*
X94019047Y-73272438D02*
X94066666Y-73320057D01*
X94066666Y-73320057D02*
X94114285Y-73415295D01*
X94114285Y-73415295D02*
X94161904Y-73605771D01*
X94161904Y-73605771D02*
X94161904Y-73843866D01*
X94161904Y-73843866D02*
X94114285Y-74034342D01*
X94114285Y-74034342D02*
X94066666Y-74129580D01*
X94066666Y-74129580D02*
X94019047Y-74177200D01*
X94019047Y-74177200D02*
X93923809Y-74224819D01*
X93923809Y-74224819D02*
X93828571Y-74224819D01*
X93828571Y-74224819D02*
X93733333Y-74177200D01*
X93733333Y-74177200D02*
X93685714Y-74129580D01*
X93685714Y-74129580D02*
X93638095Y-74034342D01*
X93638095Y-74034342D02*
X93590476Y-73843866D01*
X93590476Y-73843866D02*
X93590476Y-73605771D01*
X93590476Y-73605771D02*
X93638095Y-73415295D01*
X93638095Y-73415295D02*
X93685714Y-73320057D01*
X93685714Y-73320057D02*
X93733333Y-73272438D01*
X93733333Y-73272438D02*
X93828571Y-73224819D01*
X114649999Y-74886033D02*
X114416666Y-74552700D01*
X114249999Y-74886033D02*
X114249999Y-74186033D01*
X114249999Y-74186033D02*
X114516666Y-74186033D01*
X114516666Y-74186033D02*
X114583333Y-74219366D01*
X114583333Y-74219366D02*
X114616666Y-74252700D01*
X114616666Y-74252700D02*
X114649999Y-74319366D01*
X114649999Y-74319366D02*
X114649999Y-74419366D01*
X114649999Y-74419366D02*
X114616666Y-74486033D01*
X114616666Y-74486033D02*
X114583333Y-74519366D01*
X114583333Y-74519366D02*
X114516666Y-74552700D01*
X114516666Y-74552700D02*
X114249999Y-74552700D01*
X114883333Y-74186033D02*
X115316666Y-74186033D01*
X115316666Y-74186033D02*
X115083333Y-74452700D01*
X115083333Y-74452700D02*
X115183333Y-74452700D01*
X115183333Y-74452700D02*
X115249999Y-74486033D01*
X115249999Y-74486033D02*
X115283333Y-74519366D01*
X115283333Y-74519366D02*
X115316666Y-74586033D01*
X115316666Y-74586033D02*
X115316666Y-74752700D01*
X115316666Y-74752700D02*
X115283333Y-74819366D01*
X115283333Y-74819366D02*
X115249999Y-74852700D01*
X115249999Y-74852700D02*
X115183333Y-74886033D01*
X115183333Y-74886033D02*
X114983333Y-74886033D01*
X114983333Y-74886033D02*
X114916666Y-74852700D01*
X114916666Y-74852700D02*
X114883333Y-74819366D01*
X115716666Y-74486033D02*
X115650000Y-74452700D01*
X115650000Y-74452700D02*
X115616666Y-74419366D01*
X115616666Y-74419366D02*
X115583333Y-74352700D01*
X115583333Y-74352700D02*
X115583333Y-74319366D01*
X115583333Y-74319366D02*
X115616666Y-74252700D01*
X115616666Y-74252700D02*
X115650000Y-74219366D01*
X115650000Y-74219366D02*
X115716666Y-74186033D01*
X115716666Y-74186033D02*
X115850000Y-74186033D01*
X115850000Y-74186033D02*
X115916666Y-74219366D01*
X115916666Y-74219366D02*
X115950000Y-74252700D01*
X115950000Y-74252700D02*
X115983333Y-74319366D01*
X115983333Y-74319366D02*
X115983333Y-74352700D01*
X115983333Y-74352700D02*
X115950000Y-74419366D01*
X115950000Y-74419366D02*
X115916666Y-74452700D01*
X115916666Y-74452700D02*
X115850000Y-74486033D01*
X115850000Y-74486033D02*
X115716666Y-74486033D01*
X115716666Y-74486033D02*
X115650000Y-74519366D01*
X115650000Y-74519366D02*
X115616666Y-74552700D01*
X115616666Y-74552700D02*
X115583333Y-74619366D01*
X115583333Y-74619366D02*
X115583333Y-74752700D01*
X115583333Y-74752700D02*
X115616666Y-74819366D01*
X115616666Y-74819366D02*
X115650000Y-74852700D01*
X115650000Y-74852700D02*
X115716666Y-74886033D01*
X115716666Y-74886033D02*
X115850000Y-74886033D01*
X115850000Y-74886033D02*
X115916666Y-74852700D01*
X115916666Y-74852700D02*
X115950000Y-74819366D01*
X115950000Y-74819366D02*
X115983333Y-74752700D01*
X115983333Y-74752700D02*
X115983333Y-74619366D01*
X115983333Y-74619366D02*
X115950000Y-74552700D01*
X115950000Y-74552700D02*
X115916666Y-74519366D01*
X115916666Y-74519366D02*
X115850000Y-74486033D01*
X70283333Y-68116033D02*
X70283333Y-67416033D01*
X70283333Y-67416033D02*
X70450000Y-67416033D01*
X70450000Y-67416033D02*
X70550000Y-67449366D01*
X70550000Y-67449366D02*
X70616667Y-67516033D01*
X70616667Y-67516033D02*
X70650000Y-67582700D01*
X70650000Y-67582700D02*
X70683333Y-67716033D01*
X70683333Y-67716033D02*
X70683333Y-67816033D01*
X70683333Y-67816033D02*
X70650000Y-67949366D01*
X70650000Y-67949366D02*
X70616667Y-68016033D01*
X70616667Y-68016033D02*
X70550000Y-68082700D01*
X70550000Y-68082700D02*
X70450000Y-68116033D01*
X70450000Y-68116033D02*
X70283333Y-68116033D01*
X70916667Y-67416033D02*
X71383333Y-67416033D01*
X71383333Y-67416033D02*
X71083333Y-68116033D01*
%TO.C,U1*%
D13*
X127860000Y-119140000D02*
X127860000Y-120115000D01*
X127860000Y-121385000D02*
X127860000Y-122360000D01*
X128090000Y-119140000D02*
X127860000Y-119140000D01*
X128090000Y-122360000D02*
X127860000Y-122360000D01*
X131080000Y-119430000D02*
X131080000Y-120115000D01*
X131080000Y-121385000D02*
X131080000Y-122360000D01*
X131080000Y-122360000D02*
X130850000Y-122360000D01*
X131080000Y-119110000D02*
X131080000Y-118830000D01*
X131360000Y-119110000D01*
X131080000Y-119110000D01*
G36*
X131360000Y-119110000D02*
G01*
X131080000Y-119110000D01*
X131080000Y-118830000D01*
X131360000Y-119110000D01*
G37*
%TO.C,U23*%
X119964000Y-131963000D02*
X119164000Y-131963000D01*
X119964000Y-131963000D02*
X120764000Y-131963000D01*
X120764000Y-131963000D02*
X120764000Y-132893000D01*
X120764000Y-135123000D02*
X119304000Y-135123000D01*
X120764000Y-135123000D02*
X120764000Y-134193000D01*
X118664000Y-131933000D02*
X118424000Y-131603000D01*
X118904000Y-131603000D01*
X118664000Y-131933000D01*
G36*
X118664000Y-131933000D02*
G01*
X118424000Y-131603000D01*
X118904000Y-131603000D01*
X118664000Y-131933000D01*
G37*
%TO.C,NEO5*%
X97526000Y-118128000D02*
X97526000Y-122128000D01*
X97526000Y-118128000D02*
X103126000Y-118128000D01*
X97526000Y-122128000D02*
X102526000Y-122128000D01*
X103126000Y-121528000D02*
X102526000Y-122128000D01*
X103126000Y-121528000D02*
X103126000Y-118128000D01*
%TO.C,U13*%
X120242000Y-146521000D02*
X119442000Y-146521000D01*
X120242000Y-146521000D02*
X121042000Y-146521000D01*
X121042000Y-146521000D02*
X121042000Y-147451000D01*
X121042000Y-149681000D02*
X119582000Y-149681000D01*
X121042000Y-149681000D02*
X121042000Y-148751000D01*
X118942000Y-146491000D02*
X118702000Y-146161000D01*
X119182000Y-146161000D01*
X118942000Y-146491000D01*
G36*
X118942000Y-146491000D02*
G01*
X118702000Y-146161000D01*
X119182000Y-146161000D01*
X118942000Y-146491000D01*
G37*
%TO.C,C36*%
X117290000Y-79353733D02*
X117290000Y-79646267D01*
X118310000Y-79353733D02*
X118310000Y-79646267D01*
%TO.C,NEO12*%
X116922000Y-156374000D02*
X116922000Y-160374000D01*
X116922000Y-156374000D02*
X122522000Y-156374000D01*
X116922000Y-160374000D02*
X121922000Y-160374000D01*
X122522000Y-159774000D02*
X121922000Y-160374000D01*
X122522000Y-159774000D02*
X122522000Y-156374000D01*
%TO.C,U34*%
D14*
X79701500Y-83660541D02*
X79701500Y-83939459D01*
X80160429Y-84879500D02*
X80639571Y-84879500D01*
X80639571Y-82720500D02*
X80160429Y-82720500D01*
X80275540Y-84601269D02*
G75*
G02*
X80524460Y-84601269I124460J-278226D01*
G01*
%TO.C,U20*%
D13*
X119162000Y-113241000D02*
X118362000Y-113241000D01*
X119162000Y-113241000D02*
X119962000Y-113241000D01*
X119962000Y-113241000D02*
X119962000Y-114171000D01*
X119962000Y-116401000D02*
X118502000Y-116401000D01*
X119962000Y-116401000D02*
X119962000Y-115471000D01*
X117862000Y-113211000D02*
X117622000Y-112881000D01*
X118102000Y-112881000D01*
X117862000Y-113211000D01*
G36*
X117862000Y-113211000D02*
G01*
X117622000Y-112881000D01*
X118102000Y-112881000D01*
X117862000Y-113211000D01*
G37*
%TO.C,NEO7*%
X78054000Y-137172000D02*
X78054000Y-141172000D01*
X78054000Y-137172000D02*
X83654000Y-137172000D01*
X78054000Y-141172000D02*
X83054000Y-141172000D01*
X83654000Y-140572000D02*
X83054000Y-141172000D01*
X83654000Y-140572000D02*
X83654000Y-137172000D01*
%TO.C,SW2*%
X73735000Y-65615000D02*
X87705000Y-65615000D01*
X73735000Y-79585000D02*
X73735000Y-65615000D01*
X87705000Y-65615000D02*
X87705000Y-79585000D01*
X87705000Y-79585000D02*
X73735000Y-79585000D01*
%TO.C,C7*%
X116790000Y-66153733D02*
X116790000Y-66446267D01*
X117810000Y-66153733D02*
X117810000Y-66446267D01*
%TO.C,D2*%
X80240000Y-142203000D02*
X80240000Y-143133000D01*
X80240000Y-142203000D02*
X81700000Y-142203000D01*
X80240000Y-145363000D02*
X80240000Y-144433000D01*
X81040000Y-145363000D02*
X80240000Y-145363000D01*
X81040000Y-145363000D02*
X81840000Y-145363000D01*
X82340000Y-145393000D02*
X82580000Y-145723000D01*
X82100000Y-145723000D01*
X82340000Y-145393000D01*
G36*
X82580000Y-145723000D02*
G01*
X82100000Y-145723000D01*
X82340000Y-145393000D01*
X82580000Y-145723000D01*
G37*
%TO.C,U11*%
X81350000Y-146371000D02*
X80550000Y-146371000D01*
X81350000Y-146371000D02*
X82150000Y-146371000D01*
X82150000Y-146371000D02*
X82150000Y-147301000D01*
X82150000Y-149531000D02*
X80690000Y-149531000D01*
X82150000Y-149531000D02*
X82150000Y-148601000D01*
X80050000Y-146341000D02*
X79810000Y-146011000D01*
X80290000Y-146011000D01*
X80050000Y-146341000D01*
G36*
X80050000Y-146341000D02*
G01*
X79810000Y-146011000D01*
X80290000Y-146011000D01*
X80050000Y-146341000D01*
G37*
%TO.C,D3*%
X98740000Y-103826000D02*
X98740000Y-104756000D01*
X98740000Y-103826000D02*
X100200000Y-103826000D01*
X98740000Y-106986000D02*
X98740000Y-106056000D01*
X99540000Y-106986000D02*
X98740000Y-106986000D01*
X99540000Y-106986000D02*
X100340000Y-106986000D01*
X100840000Y-107016000D02*
X101080000Y-107346000D01*
X100600000Y-107346000D01*
X100840000Y-107016000D01*
G36*
X101080000Y-107346000D02*
G01*
X100600000Y-107346000D01*
X100840000Y-107016000D01*
X101080000Y-107346000D01*
G37*
%TO.C,D6*%
X118140000Y-142220000D02*
X118140000Y-143150000D01*
X118140000Y-142220000D02*
X119600000Y-142220000D01*
X118140000Y-145380000D02*
X118140000Y-144450000D01*
X118940000Y-145380000D02*
X118140000Y-145380000D01*
X118940000Y-145380000D02*
X119740000Y-145380000D01*
X120240000Y-145410000D02*
X120480000Y-145740000D01*
X120000000Y-145740000D01*
X120240000Y-145410000D01*
G36*
X120480000Y-145740000D02*
G01*
X120000000Y-145740000D01*
X120240000Y-145410000D01*
X120480000Y-145740000D01*
G37*
%TO.C,U26*%
X119710000Y-151093000D02*
X118910000Y-151093000D01*
X119710000Y-151093000D02*
X120510000Y-151093000D01*
X120510000Y-151093000D02*
X120510000Y-152023000D01*
X120510000Y-154253000D02*
X119050000Y-154253000D01*
X120510000Y-154253000D02*
X120510000Y-153323000D01*
X118410000Y-151063000D02*
X118170000Y-150733000D01*
X118650000Y-150733000D01*
X118410000Y-151063000D01*
G36*
X118410000Y-151063000D02*
G01*
X118170000Y-150733000D01*
X118650000Y-150733000D01*
X118410000Y-151063000D01*
G37*
%TO.C,U6*%
X100186000Y-108338000D02*
X99386000Y-108338000D01*
X100186000Y-108338000D02*
X100986000Y-108338000D01*
X100986000Y-108338000D02*
X100986000Y-109268000D01*
X100986000Y-111498000D02*
X99526000Y-111498000D01*
X100986000Y-111498000D02*
X100986000Y-110568000D01*
X98886000Y-108308000D02*
X98646000Y-107978000D01*
X99126000Y-107978000D01*
X98886000Y-108308000D01*
G36*
X98886000Y-108308000D02*
G01*
X98646000Y-107978000D01*
X99126000Y-107978000D01*
X98886000Y-108308000D01*
G37*
%TO.C,C8*%
X115790000Y-71946267D02*
X115790000Y-71653733D01*
X116810000Y-71946267D02*
X116810000Y-71653733D01*
%TO.C,C6*%
X115290000Y-66191233D02*
X115290000Y-66483767D01*
X116310000Y-66191233D02*
X116310000Y-66483767D01*
%TO.C,Z1*%
D15*
X107475000Y-78400000D02*
G75*
G02*
X107225000Y-78400000I-125000J0D01*
G01*
X107225000Y-78400000D02*
G75*
G02*
X107475000Y-78400000I125000J0D01*
G01*
%TO.C,SW1*%
D13*
X127400000Y-77850000D02*
X127400000Y-77950000D01*
X127400000Y-79450000D02*
X131800000Y-79450000D01*
X131800000Y-76350000D02*
X127400000Y-76350000D01*
X131800000Y-77850000D02*
X131800000Y-77950000D01*
%TO.C,U18*%
X81072000Y-113429000D02*
X80272000Y-113429000D01*
X81072000Y-113429000D02*
X81872000Y-113429000D01*
X81872000Y-113429000D02*
X81872000Y-114359000D01*
X81872000Y-116589000D02*
X80412000Y-116589000D01*
X81872000Y-116589000D02*
X81872000Y-115659000D01*
X79772000Y-113399000D02*
X79532000Y-113069000D01*
X80012000Y-113069000D01*
X79772000Y-113399000D01*
G36*
X79772000Y-113399000D02*
G01*
X79532000Y-113069000D01*
X80012000Y-113069000D01*
X79772000Y-113399000D01*
G37*
%TO.C,U2*%
X80890000Y-89943000D02*
X80090000Y-89943000D01*
X80890000Y-89943000D02*
X81690000Y-89943000D01*
X81690000Y-89943000D02*
X81690000Y-90873000D01*
X81690000Y-93103000D02*
X80230000Y-93103000D01*
X81690000Y-93103000D02*
X81690000Y-92173000D01*
X79590000Y-89913000D02*
X79350000Y-89583000D01*
X79830000Y-89583000D01*
X79590000Y-89913000D01*
G36*
X79590000Y-89913000D02*
G01*
X79350000Y-89583000D01*
X79830000Y-89583000D01*
X79590000Y-89913000D01*
G37*
%TO.C,D8*%
X91415000Y-64365000D02*
X91415000Y-65835000D01*
X91415000Y-65835000D02*
X93700000Y-65835000D01*
X93700000Y-64365000D02*
X91415000Y-64365000D01*
%TO.C,NEO3*%
X116160000Y-99066000D02*
X116160000Y-103066000D01*
X116160000Y-99066000D02*
X121760000Y-99066000D01*
X116160000Y-103066000D02*
X121160000Y-103066000D01*
X121760000Y-102466000D02*
X121160000Y-103066000D01*
X121760000Y-102466000D02*
X121760000Y-99066000D01*
%TO.C,NEO8*%
X96910000Y-137211000D02*
X96910000Y-141211000D01*
X96910000Y-137211000D02*
X102510000Y-137211000D01*
X96910000Y-141211000D02*
X101910000Y-141211000D01*
X102510000Y-140611000D02*
X101910000Y-141211000D01*
X102510000Y-140611000D02*
X102510000Y-137211000D01*
%TO.C,U27*%
X118750000Y-58150000D02*
X132250000Y-58150000D01*
X118750000Y-75050000D02*
X118750000Y-58150000D01*
X132250000Y-58150000D02*
X132250000Y-75050000D01*
X132250000Y-75050000D02*
X118750000Y-75050000D01*
X118400000Y-65300000D02*
X118064000Y-65540000D01*
X118064000Y-65060000D01*
X118400000Y-65300000D01*
G36*
X118400000Y-65300000D02*
G01*
X118064000Y-65540000D01*
X118064000Y-65060000D01*
X118400000Y-65300000D01*
G37*
%TO.C,U3*%
X100326000Y-89766000D02*
X99526000Y-89766000D01*
X100326000Y-89766000D02*
X101126000Y-89766000D01*
X101126000Y-89766000D02*
X101126000Y-90696000D01*
X101126000Y-92926000D02*
X99666000Y-92926000D01*
X101126000Y-92926000D02*
X101126000Y-91996000D01*
X99026000Y-89736000D02*
X98786000Y-89406000D01*
X99266000Y-89406000D01*
X99026000Y-89736000D01*
G36*
X99026000Y-89736000D02*
G01*
X98786000Y-89406000D01*
X99266000Y-89406000D01*
X99026000Y-89736000D01*
G37*
%TO.C,C3*%
X126712000Y-116199767D02*
X126712000Y-115907233D01*
X127732000Y-116199767D02*
X127732000Y-115907233D01*
%TO.C,NEO6*%
X116402000Y-118155000D02*
X116402000Y-122155000D01*
X116402000Y-118155000D02*
X122002000Y-118155000D01*
X116402000Y-122155000D02*
X121402000Y-122155000D01*
X122002000Y-121555000D02*
X121402000Y-122155000D01*
X122002000Y-121555000D02*
X122002000Y-118155000D01*
%TO.C,R40*%
X96545276Y-64577500D02*
X97054724Y-64577500D01*
X96545276Y-65622500D02*
X97054724Y-65622500D01*
D16*
%TO.C,*%
G36*
X94302500Y-141798000D02*
G01*
X94302500Y-142030500D01*
X94537500Y-142030500D01*
X94772500Y-142030500D01*
X94772500Y-144065500D01*
X94772500Y-146100500D01*
X90735000Y-146100500D01*
X86697500Y-146100500D01*
X86697500Y-145868000D01*
X86697500Y-145635500D01*
X86462500Y-145635500D01*
X86227500Y-145635500D01*
X86227500Y-143600500D01*
X86227500Y-142745500D01*
X86787500Y-142745500D01*
X86787500Y-143703000D01*
X86787500Y-144660500D01*
X87010000Y-144660500D01*
X87232500Y-144660500D01*
X87232542Y-143989250D01*
X87232586Y-143894177D01*
X87232704Y-143803922D01*
X87232893Y-143718940D01*
X87233149Y-143639683D01*
X87233469Y-143566605D01*
X87233851Y-143500161D01*
X87234290Y-143440803D01*
X87234785Y-143388987D01*
X87235331Y-143345164D01*
X87235927Y-143309790D01*
X87236568Y-143283319D01*
X87237251Y-143266203D01*
X87237550Y-143261917D01*
X87244584Y-143208140D01*
X87255435Y-143163461D01*
X87270231Y-143127687D01*
X87289099Y-143100622D01*
X87312167Y-143082070D01*
X87339563Y-143071835D01*
X87363458Y-143069500D01*
X87388844Y-143071872D01*
X87407784Y-143079927D01*
X87422868Y-143095070D01*
X87429536Y-143105330D01*
X87432849Y-143110911D01*
X87435856Y-143116120D01*
X87438572Y-143121444D01*
X87441012Y-143127372D01*
X87443193Y-143134393D01*
X87445132Y-143142995D01*
X87446843Y-143153666D01*
X87448343Y-143166896D01*
X87449648Y-143183172D01*
X87450774Y-143202983D01*
X87451736Y-143226817D01*
X87452552Y-143255164D01*
X87453236Y-143288510D01*
X87453806Y-143327346D01*
X87454276Y-143372159D01*
X87454663Y-143423438D01*
X87454983Y-143481671D01*
X87455252Y-143547347D01*
X87455486Y-143620954D01*
X87455701Y-143702981D01*
X87455912Y-143793916D01*
X87456137Y-143894248D01*
X87456193Y-143919250D01*
X87457872Y-144660500D01*
X87685088Y-144660500D01*
X87912305Y-144660500D01*
X87913652Y-143929250D01*
X87915000Y-143198000D01*
X87928606Y-143158000D01*
X87943769Y-143121973D01*
X87961873Y-143095154D01*
X87983479Y-143077035D01*
X88009147Y-143067112D01*
X88031940Y-143064738D01*
X88057778Y-143067610D01*
X88078893Y-143077249D01*
X88096265Y-143094519D01*
X88110872Y-143120289D01*
X88119417Y-143142208D01*
X88120850Y-143146464D01*
X88122148Y-143150814D01*
X88123320Y-143155752D01*
X88124371Y-143161771D01*
X88125312Y-143169363D01*
X88126148Y-143179021D01*
X88126887Y-143191240D01*
X88127537Y-143206511D01*
X88128106Y-143225327D01*
X88128601Y-143248182D01*
X88129031Y-143275569D01*
X88129401Y-143307981D01*
X88129721Y-143345911D01*
X88129997Y-143389851D01*
X88130238Y-143440295D01*
X88130450Y-143497736D01*
X88130642Y-143562667D01*
X88130821Y-143635580D01*
X88130995Y-143716970D01*
X88131172Y-143807328D01*
X88131358Y-143907149D01*
X88131376Y-143916750D01*
X88132752Y-144660500D01*
X88359528Y-144660500D01*
X88586304Y-144660500D01*
X88777500Y-144660500D01*
X89007500Y-144660500D01*
X89237500Y-144660500D01*
X89412500Y-144660500D01*
X89640000Y-144660500D01*
X89867500Y-144660500D01*
X89867500Y-143723000D01*
X90030000Y-143723000D01*
X90030008Y-143802199D01*
X90030053Y-143872117D01*
X90030165Y-143933474D01*
X90030373Y-143986988D01*
X90030707Y-144033378D01*
X90031197Y-144073365D01*
X90031872Y-144107666D01*
X90032762Y-144137001D01*
X90033897Y-144162089D01*
X90035307Y-144183650D01*
X90037020Y-144202402D01*
X90039068Y-144219065D01*
X90041479Y-144234358D01*
X90044284Y-144248999D01*
X90047511Y-144263708D01*
X90051191Y-144279205D01*
X90053339Y-144288000D01*
X90072261Y-144352325D01*
X90095961Y-144411331D01*
X90123787Y-144463619D01*
X90155086Y-144507793D01*
X90157351Y-144510500D01*
X90175935Y-144531994D01*
X90191222Y-144548142D01*
X90206054Y-144561497D01*
X90223270Y-144574608D01*
X90245712Y-144590026D01*
X90246457Y-144590525D01*
X90293308Y-144616889D01*
X90347831Y-144638864D01*
X90408600Y-144656212D01*
X90474188Y-144668696D01*
X90543171Y-144676078D01*
X90614122Y-144678122D01*
X90685615Y-144674590D01*
X90725000Y-144670137D01*
X90775237Y-144660500D01*
X91327500Y-144660500D01*
X91552500Y-144660500D01*
X91777500Y-144660500D01*
X91777894Y-144206750D01*
X91777986Y-144140536D01*
X91778141Y-144077389D01*
X91778352Y-144017995D01*
X91778615Y-143963042D01*
X91778924Y-143913217D01*
X91779274Y-143869207D01*
X91779659Y-143831699D01*
X91780073Y-143801381D01*
X91780511Y-143778941D01*
X91780968Y-143765064D01*
X91781437Y-143760440D01*
X91781479Y-143760500D01*
X91783417Y-143766260D01*
X91788147Y-143780882D01*
X91795454Y-143803690D01*
X91805124Y-143834007D01*
X91816943Y-143871159D01*
X91830696Y-143914468D01*
X91846168Y-143963260D01*
X91863145Y-144016858D01*
X91881413Y-144074588D01*
X91900756Y-144135772D01*
X91920959Y-144199735D01*
X91925147Y-144213000D01*
X92065625Y-144658000D01*
X92306562Y-144659298D01*
X92359730Y-144659492D01*
X92407743Y-144659483D01*
X92449876Y-144659282D01*
X92485406Y-144658896D01*
X92513610Y-144658338D01*
X92533763Y-144657615D01*
X92545142Y-144656739D01*
X92547500Y-144656046D01*
X92545931Y-144650804D01*
X92541361Y-144636689D01*
X92533991Y-144614305D01*
X92524021Y-144584253D01*
X92511654Y-144547134D01*
X92497090Y-144503550D01*
X92480530Y-144454103D01*
X92462177Y-144399395D01*
X92442232Y-144340026D01*
X92420896Y-144276599D01*
X92398369Y-144209716D01*
X92374855Y-144139977D01*
X92365866Y-144113337D01*
X92184232Y-143575177D01*
X92323579Y-143171588D01*
X92344685Y-143110422D01*
X92364886Y-143051813D01*
X92383937Y-142996474D01*
X92401594Y-142945113D01*
X92417615Y-142898441D01*
X92431756Y-142857169D01*
X92443773Y-142822006D01*
X92453423Y-142793662D01*
X92460464Y-142772849D01*
X92464650Y-142760276D01*
X92465755Y-142756750D01*
X92468584Y-142745500D01*
X92612500Y-142745500D01*
X92612500Y-143703000D01*
X92612500Y-144660500D01*
X92839764Y-144660500D01*
X93067029Y-144660500D01*
X93068825Y-143941750D01*
X93069072Y-143841576D01*
X93069300Y-143750887D01*
X93069524Y-143669166D01*
X93069759Y-143595900D01*
X93070021Y-143530571D01*
X93070325Y-143472666D01*
X93070686Y-143421667D01*
X93071120Y-143377060D01*
X93071642Y-143338329D01*
X93072268Y-143304959D01*
X93073013Y-143276435D01*
X93073893Y-143252240D01*
X93074922Y-143231860D01*
X93076117Y-143214779D01*
X93077492Y-143200481D01*
X93079064Y-143188452D01*
X93080847Y-143178175D01*
X93082857Y-143169135D01*
X93085110Y-143160817D01*
X93087620Y-143152705D01*
X93090403Y-143144283D01*
X93092887Y-143136824D01*
X93104243Y-143114566D01*
X93121452Y-143094674D01*
X93138402Y-143082533D01*
X93159852Y-143075905D01*
X93185583Y-143074451D01*
X93211407Y-143078025D01*
X93232020Y-143085831D01*
X93251000Y-143101757D01*
X93267093Y-143125756D01*
X93279429Y-143156107D01*
X93287142Y-143191087D01*
X93287828Y-143196469D01*
X93288328Y-143205736D01*
X93288815Y-143224404D01*
X93289284Y-143251873D01*
X93289732Y-143287545D01*
X93290156Y-143330821D01*
X93290552Y-143381101D01*
X93290916Y-143437786D01*
X93291245Y-143500277D01*
X93291536Y-143567975D01*
X93291784Y-143640280D01*
X93291987Y-143716594D01*
X93292140Y-143796318D01*
X93292240Y-143878852D01*
X93292280Y-143946750D01*
X93292500Y-144660500D01*
X93515146Y-144660500D01*
X93737793Y-144660500D01*
X93736191Y-143864250D01*
X93735980Y-143759862D01*
X93735781Y-143664992D01*
X93735587Y-143579154D01*
X93735392Y-143501865D01*
X93735187Y-143432642D01*
X93734967Y-143371000D01*
X93734725Y-143316458D01*
X93734452Y-143268530D01*
X93734142Y-143226733D01*
X93733789Y-143190584D01*
X93733384Y-143159599D01*
X93732922Y-143133294D01*
X93732394Y-143111186D01*
X93731795Y-143092791D01*
X93731116Y-143077626D01*
X93730351Y-143065207D01*
X93729493Y-143055051D01*
X93728535Y-143046673D01*
X93727470Y-143039590D01*
X93726290Y-143033320D01*
X93724989Y-143027377D01*
X93723956Y-143022957D01*
X93708566Y-142967022D01*
X93690437Y-142919189D01*
X93668743Y-142877743D01*
X93642657Y-142840971D01*
X93628216Y-142824350D01*
X93593125Y-142791508D01*
X93554473Y-142765729D01*
X93510865Y-142746369D01*
X93460905Y-142732781D01*
X93414769Y-142725556D01*
X93356368Y-142722639D01*
X93302952Y-142727871D01*
X93254834Y-142741151D01*
X93212328Y-142762378D01*
X93175749Y-142791452D01*
X93161440Y-142806908D01*
X93137425Y-142838955D01*
X93115509Y-142874902D01*
X93097206Y-142911831D01*
X93084031Y-142946820D01*
X93079283Y-142965330D01*
X93076002Y-142978088D01*
X93073255Y-142980873D01*
X93071043Y-142973683D01*
X93069365Y-142956515D01*
X93068221Y-142929367D01*
X93067610Y-142892238D01*
X93067500Y-142863000D01*
X93067500Y-142745500D01*
X92840000Y-142745500D01*
X92612500Y-142745500D01*
X92468584Y-142745500D01*
X92234263Y-142745500D01*
X91999942Y-142745500D01*
X91889971Y-143074250D01*
X91780000Y-143403000D01*
X91778725Y-142901750D01*
X91777451Y-142400500D01*
X91552475Y-142400500D01*
X91327500Y-142400500D01*
X91327500Y-143530500D01*
X91327500Y-144660500D01*
X90775237Y-144660500D01*
X90783844Y-144658849D01*
X90842159Y-144641588D01*
X90897153Y-144619365D01*
X90946034Y-144593193D01*
X90957500Y-144585798D01*
X90979432Y-144569261D01*
X91004264Y-144547652D01*
X91029973Y-144523022D01*
X91054539Y-144497426D01*
X91075939Y-144472915D01*
X91092154Y-144451544D01*
X91096664Y-144444455D01*
X91117542Y-144403931D01*
X91136074Y-144358280D01*
X91150159Y-144312853D01*
X91152377Y-144303208D01*
X91154234Y-144292340D01*
X91155773Y-144279239D01*
X91157037Y-144262892D01*
X91158072Y-144242290D01*
X91158919Y-144216421D01*
X91159624Y-144184275D01*
X91160231Y-144144840D01*
X91160782Y-144097106D01*
X91161148Y-144059250D01*
X91163159Y-143840500D01*
X90933047Y-143840500D01*
X90702935Y-143840500D01*
X90701467Y-144036750D01*
X90701083Y-144086254D01*
X90700701Y-144126801D01*
X90700260Y-144159432D01*
X90699701Y-144185189D01*
X90698961Y-144205113D01*
X90697979Y-144220247D01*
X90696695Y-144231632D01*
X90695047Y-144240310D01*
X90692975Y-144247323D01*
X90690417Y-144253713D01*
X90688505Y-144257937D01*
X90672696Y-144286026D01*
X90654501Y-144305243D01*
X90632284Y-144316685D01*
X90604410Y-144321453D01*
X90593581Y-144321750D01*
X90573967Y-144320999D01*
X90559923Y-144317943D01*
X90547075Y-144311372D01*
X90540820Y-144307157D01*
X90520530Y-144287251D01*
X90504005Y-144259380D01*
X90492059Y-144225133D01*
X90487535Y-144202897D01*
X90486509Y-144191490D01*
X90485625Y-144171333D01*
X90484882Y-144142288D01*
X90484278Y-144104216D01*
X90483814Y-144056981D01*
X90483487Y-144000446D01*
X90483297Y-143934472D01*
X90483243Y-143858922D01*
X90483324Y-143773659D01*
X90483539Y-143678546D01*
X90483562Y-143670500D01*
X90483967Y-143530500D01*
X90485000Y-143173000D01*
X90496496Y-143144551D01*
X90510903Y-143118378D01*
X90530306Y-143096569D01*
X90552322Y-143081687D01*
X90556805Y-143079776D01*
X90569726Y-143076710D01*
X90587232Y-143074771D01*
X90595453Y-143074460D01*
X90627452Y-143077285D01*
X90652585Y-143086980D01*
X90671879Y-143104271D01*
X90686360Y-143129883D01*
X90690826Y-143141987D01*
X90693253Y-143150665D01*
X90695234Y-143161254D01*
X90696832Y-143174891D01*
X90698109Y-143192714D01*
X90699126Y-143215860D01*
X90699946Y-143245468D01*
X90700631Y-143282676D01*
X90701243Y-143328621D01*
X90701308Y-143334250D01*
X90703218Y-143500500D01*
X90933218Y-143500500D01*
X91163219Y-143500500D01*
X91161306Y-143304250D01*
X91160708Y-143249496D01*
X91159958Y-143203547D01*
X91158885Y-143165206D01*
X91157317Y-143133277D01*
X91155080Y-143106563D01*
X91152002Y-143083870D01*
X91147910Y-143064000D01*
X91142633Y-143045758D01*
X91135996Y-143027948D01*
X91127829Y-143009373D01*
X91117959Y-142988839D01*
X91114921Y-142982685D01*
X91083830Y-142930938D01*
X91044350Y-142883563D01*
X90997357Y-142841172D01*
X90943728Y-142804383D01*
X90884343Y-142773809D01*
X90820077Y-142750066D01*
X90762500Y-142735759D01*
X90721950Y-142729769D01*
X90674370Y-142725930D01*
X90622493Y-142724226D01*
X90569052Y-142724645D01*
X90516779Y-142727173D01*
X90468408Y-142731795D01*
X90432062Y-142737426D01*
X90363046Y-142754764D01*
X90300990Y-142779037D01*
X90245746Y-142810399D01*
X90197167Y-142849006D01*
X90155105Y-142895011D01*
X90119414Y-142948570D01*
X90089946Y-143009837D01*
X90066553Y-143078967D01*
X90053022Y-143135500D01*
X90049150Y-143154837D01*
X90045739Y-143172791D01*
X90042758Y-143190104D01*
X90040179Y-143207517D01*
X90037973Y-143225772D01*
X90036111Y-143245611D01*
X90034564Y-143267776D01*
X90033302Y-143293008D01*
X90032296Y-143322049D01*
X90031518Y-143355641D01*
X90030939Y-143394525D01*
X90030529Y-143439444D01*
X90030259Y-143491140D01*
X90030100Y-143550353D01*
X90030024Y-143617826D01*
X90030001Y-143694301D01*
X90030000Y-143723000D01*
X89867500Y-143723000D01*
X89867500Y-143703000D01*
X89867500Y-142745500D01*
X89640000Y-142745500D01*
X89412500Y-142745500D01*
X89412500Y-143703000D01*
X89412500Y-144660500D01*
X89237500Y-144660500D01*
X89237500Y-143703000D01*
X89237500Y-143530500D01*
X89237500Y-142620500D01*
X89417500Y-142620500D01*
X89645000Y-142620500D01*
X89872500Y-142620500D01*
X89872500Y-142433000D01*
X89872500Y-142245500D01*
X89645000Y-142245500D01*
X89417500Y-142245500D01*
X89417500Y-142433000D01*
X89417500Y-142620500D01*
X89237500Y-142620500D01*
X89237500Y-142433000D01*
X89237500Y-142400500D01*
X89007500Y-142400500D01*
X88777500Y-142400500D01*
X88777500Y-143530500D01*
X88777500Y-144660500D01*
X88586304Y-144660500D01*
X88589808Y-144379250D01*
X88590313Y-144331398D01*
X88590754Y-144274845D01*
X88591127Y-144210891D01*
X88591431Y-144140833D01*
X88591663Y-144065970D01*
X88591819Y-143987603D01*
X88591897Y-143907028D01*
X88591894Y-143825546D01*
X88591808Y-143744454D01*
X88591635Y-143665053D01*
X88591441Y-143605500D01*
X88591144Y-143530500D01*
X88591116Y-143523429D01*
X88590796Y-143450729D01*
X88590466Y-143386768D01*
X88590116Y-143330916D01*
X88589732Y-143282544D01*
X88589302Y-143241020D01*
X88588813Y-143205714D01*
X88588253Y-143175996D01*
X88587610Y-143151237D01*
X88586871Y-143130805D01*
X88586024Y-143114070D01*
X88585056Y-143100402D01*
X88583955Y-143089172D01*
X88582709Y-143079748D01*
X88581304Y-143071500D01*
X88580856Y-143069191D01*
X88566284Y-143005618D01*
X88549447Y-142950846D01*
X88529887Y-142903840D01*
X88507150Y-142863565D01*
X88480781Y-142828989D01*
X88470000Y-142817419D01*
X88436237Y-142787668D01*
X88399076Y-142764259D01*
X88357105Y-142746608D01*
X88308911Y-142734136D01*
X88253083Y-142726261D01*
X88247247Y-142725724D01*
X88186864Y-142723410D01*
X88129599Y-142727160D01*
X88077039Y-142736746D01*
X88030773Y-142751940D01*
X88015213Y-142759115D01*
X87997851Y-142770278D01*
X87976633Y-142787523D01*
X87953589Y-142808851D01*
X87930748Y-142832258D01*
X87910139Y-142855745D01*
X87893792Y-142877309D01*
X87890872Y-142881750D01*
X87881473Y-142896139D01*
X87874231Y-142906451D01*
X87870682Y-142910497D01*
X87870658Y-142910500D01*
X87867584Y-142906404D01*
X87861492Y-142895711D01*
X87854346Y-142881999D01*
X87831299Y-142846007D01*
X87800317Y-142812228D01*
X87763448Y-142782326D01*
X87722741Y-142757961D01*
X87680259Y-142740800D01*
X87632202Y-142729823D01*
X87579501Y-142724184D01*
X87526177Y-142724233D01*
X87507500Y-142725722D01*
X87459341Y-142732586D01*
X87418910Y-142742891D01*
X87384289Y-142757443D01*
X87353559Y-142777048D01*
X87324916Y-142802396D01*
X87294769Y-142837523D01*
X87271003Y-142876456D01*
X87252386Y-142920500D01*
X87246002Y-142937558D01*
X87240355Y-142950954D01*
X87236690Y-142957750D01*
X87235471Y-142954416D01*
X87234391Y-142942438D01*
X87233505Y-142923168D01*
X87232868Y-142897961D01*
X87232536Y-142868172D01*
X87232500Y-142854000D01*
X87232500Y-142745500D01*
X87010000Y-142745500D01*
X86787500Y-142745500D01*
X86227500Y-142745500D01*
X86227500Y-141565500D01*
X90265000Y-141565500D01*
X94302500Y-141565500D01*
X94302500Y-141798000D01*
G37*
%TO.C,R45*%
D13*
X96545276Y-80277500D02*
X97054724Y-80277500D01*
X96545276Y-81322500D02*
X97054724Y-81322500D01*
%TO.C,C12*%
X106490000Y-76146267D02*
X106490000Y-75853733D01*
X107510000Y-76146267D02*
X107510000Y-75853733D01*
%TO.C,U7*%
X119494000Y-108465000D02*
X118694000Y-108465000D01*
X119494000Y-108465000D02*
X120294000Y-108465000D01*
X120294000Y-108465000D02*
X120294000Y-109395000D01*
X120294000Y-111625000D02*
X118834000Y-111625000D01*
X120294000Y-111625000D02*
X120294000Y-110695000D01*
X118194000Y-108435000D02*
X117954000Y-108105000D01*
X118434000Y-108105000D01*
X118194000Y-108435000D01*
G36*
X118194000Y-108435000D02*
G01*
X117954000Y-108105000D01*
X118434000Y-108105000D01*
X118194000Y-108435000D01*
G37*
%TO.C,U10*%
X120472000Y-127391000D02*
X119672000Y-127391000D01*
X120472000Y-127391000D02*
X121272000Y-127391000D01*
X121272000Y-127391000D02*
X121272000Y-128321000D01*
X121272000Y-130551000D02*
X119812000Y-130551000D01*
X121272000Y-130551000D02*
X121272000Y-129621000D01*
X119172000Y-127361000D02*
X118932000Y-127031000D01*
X119412000Y-127031000D01*
X119172000Y-127361000D01*
G36*
X119172000Y-127361000D02*
G01*
X118932000Y-127031000D01*
X119412000Y-127031000D01*
X119172000Y-127361000D01*
G37*
%TO.C,U15*%
X80660000Y-93753000D02*
X79860000Y-93753000D01*
X80660000Y-93753000D02*
X81460000Y-93753000D01*
X81460000Y-93753000D02*
X81460000Y-94683000D01*
X81460000Y-96913000D02*
X80000000Y-96913000D01*
X81460000Y-96913000D02*
X81460000Y-95983000D01*
X79360000Y-93723000D02*
X79120000Y-93393000D01*
X79600000Y-93393000D01*
X79360000Y-93723000D01*
G36*
X79360000Y-93723000D02*
G01*
X79120000Y-93393000D01*
X79600000Y-93393000D01*
X79360000Y-93723000D01*
G37*
%TO.C,R35*%
X130177500Y-130267224D02*
X130177500Y-129757776D01*
X131222500Y-130267224D02*
X131222500Y-129757776D01*
%TO.C,U31*%
X109852500Y-67290000D02*
X111672500Y-67290000D01*
X109852500Y-67340000D02*
X109852500Y-67290000D01*
X109852500Y-70410000D02*
X109852500Y-70360000D01*
X111672500Y-67290000D02*
X111672500Y-67340000D01*
X111672500Y-70360000D02*
X111672500Y-70410000D01*
X111672500Y-70410000D02*
X109852500Y-70410000D01*
X109312500Y-67340000D02*
X109072500Y-67010000D01*
X109552500Y-67010000D01*
X109312500Y-67340000D01*
G36*
X109312500Y-67340000D02*
G01*
X109072500Y-67010000D01*
X109552500Y-67010000D01*
X109312500Y-67340000D01*
G37*
%TO.C,U17*%
X119964000Y-93757000D02*
X119164000Y-93757000D01*
X119964000Y-93757000D02*
X120764000Y-93757000D01*
X120764000Y-93757000D02*
X120764000Y-94687000D01*
X120764000Y-96917000D02*
X119304000Y-96917000D01*
X120764000Y-96917000D02*
X120764000Y-95987000D01*
X118664000Y-93727000D02*
X118424000Y-93397000D01*
X118904000Y-93397000D01*
X118664000Y-93727000D01*
G36*
X118664000Y-93727000D02*
G01*
X118424000Y-93397000D01*
X118904000Y-93397000D01*
X118664000Y-93727000D01*
G37*
%TO.C,NEO4*%
X77800000Y-118268000D02*
X77800000Y-122268000D01*
X77800000Y-118268000D02*
X83400000Y-118268000D01*
X77800000Y-122268000D02*
X82800000Y-122268000D01*
X83400000Y-121668000D02*
X82800000Y-122268000D01*
X83400000Y-121668000D02*
X83400000Y-118268000D01*
%TO.C,U8*%
X80896000Y-128103000D02*
X80096000Y-128103000D01*
X80896000Y-128103000D02*
X81696000Y-128103000D01*
X81696000Y-128103000D02*
X81696000Y-129033000D01*
X81696000Y-131263000D02*
X80236000Y-131263000D01*
X81696000Y-131263000D02*
X81696000Y-130333000D01*
X79596000Y-128073000D02*
X79356000Y-127743000D01*
X79836000Y-127743000D01*
X79596000Y-128073000D01*
G36*
X79596000Y-128073000D02*
G01*
X79356000Y-127743000D01*
X79836000Y-127743000D01*
X79596000Y-128073000D01*
G37*
%TO.C,D4*%
X98740000Y-142426000D02*
X98740000Y-143356000D01*
X98740000Y-142426000D02*
X100200000Y-142426000D01*
X98740000Y-145586000D02*
X98740000Y-144656000D01*
X99540000Y-145586000D02*
X98740000Y-145586000D01*
X99540000Y-145586000D02*
X100340000Y-145586000D01*
X100840000Y-145616000D02*
X101080000Y-145946000D01*
X100600000Y-145946000D01*
X100840000Y-145616000D01*
G36*
X101080000Y-145946000D02*
G01*
X100600000Y-145946000D01*
X100840000Y-145616000D01*
X101080000Y-145946000D01*
G37*
%TO.C,C1*%
X130490000Y-117046267D02*
X130490000Y-116753733D01*
X131510000Y-117046267D02*
X131510000Y-116753733D01*
%TO.C,NEO2*%
X97030000Y-99139000D02*
X97030000Y-103139000D01*
X97030000Y-99139000D02*
X102630000Y-99139000D01*
X97030000Y-103139000D02*
X102030000Y-103139000D01*
X102630000Y-102539000D02*
X102030000Y-103139000D01*
X102630000Y-102539000D02*
X102630000Y-99139000D01*
%TO.C,D1*%
X79540000Y-104103000D02*
X79540000Y-105033000D01*
X79540000Y-104103000D02*
X81000000Y-104103000D01*
X79540000Y-107263000D02*
X79540000Y-106333000D01*
X80340000Y-107263000D02*
X79540000Y-107263000D01*
X80340000Y-107263000D02*
X81140000Y-107263000D01*
X81640000Y-107293000D02*
X81880000Y-107623000D01*
X81400000Y-107623000D01*
X81640000Y-107293000D01*
G36*
X81880000Y-107623000D02*
G01*
X81400000Y-107623000D01*
X81640000Y-107293000D01*
X81880000Y-107623000D01*
G37*
%TO.C,D5*%
X118040000Y-104353000D02*
X118040000Y-105283000D01*
X118040000Y-104353000D02*
X119500000Y-104353000D01*
X118040000Y-107513000D02*
X118040000Y-106583000D01*
X118840000Y-107513000D02*
X118040000Y-107513000D01*
X118840000Y-107513000D02*
X119640000Y-107513000D01*
X120140000Y-107543000D02*
X120380000Y-107873000D01*
X119900000Y-107873000D01*
X120140000Y-107543000D01*
G36*
X120380000Y-107873000D02*
G01*
X119900000Y-107873000D01*
X120140000Y-107543000D01*
X120380000Y-107873000D01*
G37*
%TO.C,U19*%
X100310000Y-113468000D02*
X99510000Y-113468000D01*
X100310000Y-113468000D02*
X101110000Y-113468000D01*
X101110000Y-113468000D02*
X101110000Y-114398000D01*
X101110000Y-116628000D02*
X99650000Y-116628000D01*
X101110000Y-116628000D02*
X101110000Y-115698000D01*
X99010000Y-113438000D02*
X98770000Y-113108000D01*
X99250000Y-113108000D01*
X99010000Y-113438000D01*
G36*
X99010000Y-113438000D02*
G01*
X98770000Y-113108000D01*
X99250000Y-113108000D01*
X99010000Y-113438000D01*
G37*
%TO.C,R41*%
X97145276Y-69877500D02*
X97654724Y-69877500D01*
X97145276Y-70922500D02*
X97654724Y-70922500D01*
%TO.C,NEO1*%
X77876000Y-98413000D02*
X77876000Y-102413000D01*
X77876000Y-98413000D02*
X83476000Y-98413000D01*
X77876000Y-102413000D02*
X82876000Y-102413000D01*
X83476000Y-101813000D02*
X82876000Y-102413000D01*
X83476000Y-101813000D02*
X83476000Y-98413000D01*
%TO.C,NEO10*%
X77928000Y-156161000D02*
X77928000Y-160161000D01*
X77928000Y-156161000D02*
X83528000Y-156161000D01*
X77928000Y-160161000D02*
X82928000Y-160161000D01*
X83528000Y-159561000D02*
X82928000Y-160161000D01*
X83528000Y-159561000D02*
X83528000Y-156161000D01*
%TO.C,U9*%
X100792000Y-127408000D02*
X99992000Y-127408000D01*
X100792000Y-127408000D02*
X101592000Y-127408000D01*
X101592000Y-127408000D02*
X101592000Y-128338000D01*
X101592000Y-130568000D02*
X100132000Y-130568000D01*
X101592000Y-130568000D02*
X101592000Y-129638000D01*
X99492000Y-127378000D02*
X99252000Y-127048000D01*
X99732000Y-127048000D01*
X99492000Y-127378000D01*
G36*
X99492000Y-127378000D02*
G01*
X99252000Y-127048000D01*
X99732000Y-127048000D01*
X99492000Y-127378000D01*
G37*
%TO.C,C14*%
X103346267Y-76290000D02*
X103053733Y-76290000D01*
X103346267Y-77310000D02*
X103053733Y-77310000D01*
%TO.C,R36*%
X126977500Y-134254724D02*
X126977500Y-133745276D01*
X128022500Y-134254724D02*
X128022500Y-133745276D01*
%TO.C,U4*%
X120118000Y-89897000D02*
X119318000Y-89897000D01*
X120118000Y-89897000D02*
X120918000Y-89897000D01*
X120918000Y-89897000D02*
X120918000Y-90827000D01*
X120918000Y-93057000D02*
X119458000Y-93057000D01*
X120918000Y-93057000D02*
X120918000Y-92127000D01*
X118818000Y-89867000D02*
X118578000Y-89537000D01*
X119058000Y-89537000D01*
X118818000Y-89867000D01*
G36*
X118818000Y-89867000D02*
G01*
X118578000Y-89537000D01*
X119058000Y-89537000D01*
X118818000Y-89867000D01*
G37*
%TO.C,NEO11*%
X96938000Y-156234000D02*
X96938000Y-160234000D01*
X96938000Y-156234000D02*
X102538000Y-156234000D01*
X96938000Y-160234000D02*
X101938000Y-160234000D01*
X102538000Y-159634000D02*
X101938000Y-160234000D01*
X102538000Y-159634000D02*
X102538000Y-156234000D01*
%TO.C,D9*%
X91415000Y-69765000D02*
X91415000Y-71235000D01*
X91415000Y-71235000D02*
X93700000Y-71235000D01*
X93700000Y-69765000D02*
X91415000Y-69765000D01*
%TO.C,SW3*%
X127400000Y-81750000D02*
X127400000Y-81850000D01*
X127400000Y-83350000D02*
X131800000Y-83350000D01*
X131800000Y-80250000D02*
X127400000Y-80250000D01*
X131800000Y-81750000D02*
X131800000Y-81850000D01*
%TO.C,L2*%
D10*
X101300000Y-83700000D02*
X102100000Y-83700000D01*
X101300000Y-87700000D02*
X102100000Y-87700000D01*
D17*
X104400000Y-85700000D02*
X104400000Y-85700000D01*
X104500000Y-85700000D02*
X104500000Y-85700000D01*
X104400000Y-85700000D02*
G75*
G02*
X104500000Y-85700000I50000J0D01*
G01*
X104500000Y-85700000D02*
G75*
G02*
X104400000Y-85700000I-50000J0D01*
G01*
%TO.C,C15*%
D13*
X106453733Y-83190000D02*
X106746267Y-83190000D01*
X106453733Y-84210000D02*
X106746267Y-84210000D01*
%TO.C,R44*%
X96445276Y-74677500D02*
X96954724Y-74677500D01*
X96445276Y-75722500D02*
X96954724Y-75722500D01*
%TO.C,R37*%
X76377500Y-83645276D02*
X76377500Y-84154724D01*
X77422500Y-83645276D02*
X77422500Y-84154724D01*
%TO.C,D11*%
X91415000Y-79965000D02*
X91415000Y-81435000D01*
X91415000Y-81435000D02*
X93700000Y-81435000D01*
X93700000Y-79965000D02*
X91415000Y-79965000D01*
%TO.C,L3*%
D18*
X130350000Y-132700000D02*
X130050000Y-132700000D01*
X130350000Y-134900000D02*
X130050000Y-134900000D01*
%TO.C,U25*%
D13*
X99976000Y-151066000D02*
X99176000Y-151066000D01*
X99976000Y-151066000D02*
X100776000Y-151066000D01*
X100776000Y-151066000D02*
X100776000Y-151996000D01*
X100776000Y-154226000D02*
X99316000Y-154226000D01*
X100776000Y-154226000D02*
X100776000Y-153296000D01*
X98676000Y-151036000D02*
X98436000Y-150706000D01*
X98916000Y-150706000D01*
X98676000Y-151036000D01*
G36*
X98676000Y-151036000D02*
G01*
X98436000Y-150706000D01*
X98916000Y-150706000D01*
X98676000Y-151036000D01*
G37*
%TO.C,U22*%
X100460000Y-131676000D02*
X99660000Y-131676000D01*
X100460000Y-131676000D02*
X101260000Y-131676000D01*
X101260000Y-131676000D02*
X101260000Y-132606000D01*
X101260000Y-134836000D02*
X99800000Y-134836000D01*
X101260000Y-134836000D02*
X101260000Y-133906000D01*
X99160000Y-131646000D02*
X98920000Y-131316000D01*
X99400000Y-131316000D01*
X99160000Y-131646000D01*
G36*
X99160000Y-131646000D02*
G01*
X98920000Y-131316000D01*
X99400000Y-131316000D01*
X99160000Y-131646000D01*
G37*
%TO.C,C16*%
X108390000Y-78346267D02*
X108390000Y-78053733D01*
X109410000Y-78346267D02*
X109410000Y-78053733D01*
%TO.C,C13*%
X108490000Y-81453733D02*
X108490000Y-81746267D01*
X109510000Y-81453733D02*
X109510000Y-81746267D01*
%TO.C,NEO9*%
X116950000Y-137385000D02*
X116950000Y-141385000D01*
X116950000Y-137385000D02*
X122550000Y-137385000D01*
X116950000Y-141385000D02*
X121950000Y-141385000D01*
X122550000Y-140785000D02*
X121950000Y-141385000D01*
X122550000Y-140785000D02*
X122550000Y-137385000D01*
%TO.C,R28*%
X129177500Y-144732776D02*
X129177500Y-145242224D01*
X130222500Y-144732776D02*
X130222500Y-145242224D01*
%TO.C,U24*%
X81196000Y-150993000D02*
X80396000Y-150993000D01*
X81196000Y-150993000D02*
X81996000Y-150993000D01*
X81996000Y-150993000D02*
X81996000Y-151923000D01*
X81996000Y-154153000D02*
X80536000Y-154153000D01*
X81996000Y-154153000D02*
X81996000Y-153223000D01*
X79896000Y-150963000D02*
X79656000Y-150633000D01*
X80136000Y-150633000D01*
X79896000Y-150963000D01*
G36*
X79896000Y-150963000D02*
G01*
X79656000Y-150633000D01*
X80136000Y-150633000D01*
X79896000Y-150963000D01*
G37*
%TO.C,U16*%
X100350000Y-93830000D02*
X99550000Y-93830000D01*
X100350000Y-93830000D02*
X101150000Y-93830000D01*
X101150000Y-93830000D02*
X101150000Y-94760000D01*
X101150000Y-96990000D02*
X99690000Y-96990000D01*
X101150000Y-96990000D02*
X101150000Y-96060000D01*
X99050000Y-93800000D02*
X98810000Y-93470000D01*
X99290000Y-93470000D01*
X99050000Y-93800000D01*
G36*
X99050000Y-93800000D02*
G01*
X98810000Y-93470000D01*
X99290000Y-93470000D01*
X99050000Y-93800000D01*
G37*
%TO.C,U12*%
X99952000Y-146748000D02*
X99152000Y-146748000D01*
X99952000Y-146748000D02*
X100752000Y-146748000D01*
X100752000Y-146748000D02*
X100752000Y-147678000D01*
X100752000Y-149908000D02*
X99292000Y-149908000D01*
X100752000Y-149908000D02*
X100752000Y-148978000D01*
X98652000Y-146718000D02*
X98412000Y-146388000D01*
X98892000Y-146388000D01*
X98652000Y-146718000D01*
G36*
X98652000Y-146718000D02*
G01*
X98412000Y-146388000D01*
X98892000Y-146388000D01*
X98652000Y-146718000D01*
G37*
%TO.C,C4*%
X128490000Y-116046267D02*
X128490000Y-115753733D01*
X129510000Y-116046267D02*
X129510000Y-115753733D01*
%TO.C,U5*%
X80742000Y-108619000D02*
X79942000Y-108619000D01*
X80742000Y-108619000D02*
X81542000Y-108619000D01*
X81542000Y-108619000D02*
X81542000Y-109549000D01*
X81542000Y-111779000D02*
X80082000Y-111779000D01*
X81542000Y-111779000D02*
X81542000Y-110849000D01*
X79442000Y-108589000D02*
X79202000Y-108259000D01*
X79682000Y-108259000D01*
X79442000Y-108589000D01*
G36*
X79442000Y-108589000D02*
G01*
X79202000Y-108259000D01*
X79682000Y-108259000D01*
X79442000Y-108589000D01*
G37*
%TO.C,D10*%
X91415000Y-74465000D02*
X91415000Y-75935000D01*
X91415000Y-75935000D02*
X93700000Y-75935000D01*
X93700000Y-74465000D02*
X91415000Y-74465000D01*
%TO.C,R38*%
X114845276Y-75477500D02*
X115354724Y-75477500D01*
X114845276Y-76522500D02*
X115354724Y-76522500D01*
%TO.C,U21*%
X80588000Y-132371000D02*
X79788000Y-132371000D01*
X80588000Y-132371000D02*
X81388000Y-132371000D01*
X81388000Y-132371000D02*
X81388000Y-133301000D01*
X81388000Y-135531000D02*
X79928000Y-135531000D01*
X81388000Y-135531000D02*
X81388000Y-134601000D01*
X79288000Y-132341000D02*
X79048000Y-132011000D01*
X79528000Y-132011000D01*
X79288000Y-132341000D01*
G36*
X79288000Y-132341000D02*
G01*
X79048000Y-132011000D01*
X79528000Y-132011000D01*
X79288000Y-132341000D01*
G37*
%TO.C,D7*%
X71335000Y-66885000D02*
X71335000Y-64600000D01*
X69865000Y-64600000D02*
X69865000Y-66885000D01*
X69865000Y-66885000D02*
X71335000Y-66885000D01*
%TD*%
M02*
