M48
; DRILL file KiCad 10.0.4 date 2026-06-29T22:51:02
; FORMAT={-:-/ absolute / metric / decimal}
; #@! TF.CreationDate,2026-06-29T22:51:02+03:00
; #@! TF.GenerationSoftware,Kicad,Pcbnew,10.0.4
; #@! TF.FileFunction,Plated,1,4,PTH
FMAT,2
METRIC
; #@! TA.AperFunction,Plated,PTH,ViaDrill
T1C0.300
; #@! TA.AperFunction,Plated,PTH,ComponentDrill
T2C1.500
%
G90
G05
T1
X71.6Y-65.4
X71.8Y-64.0
X72.1Y-112.8
X72.8Y-104.4
X73.5Y-84.1
X75.8Y-77.6
X77.0Y-140.1
X77.4Y-132.2
X77.6Y-109.2
X77.8Y-93.3
X77.965Y-112.465
X78.3Y-153.5
X78.35Y-115.0
X78.5Y-89.7
X78.5Y-144.7
X78.6Y-147.9
X78.6Y-161.2
X78.7Y-95.2
X79.7Y-102.7
X80.1Y-104.6
X80.3Y-122.7
X80.6Y-112.3
X80.9Y-93.5
X80.9Y-127.8
X81.1Y-130.649
X81.21Y-147.608
X81.4Y-82.2
X81.8Y-85.5
X81.9Y-97.3
X82.5Y-78.9
X82.6Y-161.0
X82.8Y-155.7
X82.9Y-128.3
X83.1Y-133.1
X83.2Y-106.9
X83.3Y-137.2
X83.45Y-98.0
X83.6Y-83.7
X83.6Y-102.5
X83.6Y-111.1
X83.6Y-118.528
X83.8Y-81.25
X83.8Y-153.6
X83.9Y-121.4
X84.1Y-90.9
X84.1Y-115.1
X84.2Y-148.0
X84.2Y-151.623
X84.5Y-143.9
X84.9Y-105.083
X84.9Y-139.8
X85.7Y-124.3
X87.0Y-126.8
X87.8Y-78.7
X87.8Y-80.1
X88.2Y-131.0
X88.276Y-65.324
X88.3Y-76.8
X88.5Y-116.2
X89.1Y-72.3
X89.2Y-132.2
X89.9Y-129.1
X90.4Y-72.2
X90.6Y-128.0
X91.0Y-126.9
X91.1Y-120.7
X91.6Y-66.6
X91.7Y-67.4
X91.8Y-72.0
X91.9Y-76.4
X92.1Y-120.1
X92.3Y-79.5
X93.3Y-104.7
X94.0Y-131.6
X94.4Y-69.2
X94.5Y-130.0
X94.7Y-125.7
X95.3Y-127.023
X95.3Y-129.7
X95.4Y-72.4
X95.5Y-131.6
X95.6Y-113.2
X96.0Y-83.8
X96.1Y-152.223
X96.2Y-130.038
X96.3Y-121.0
X96.3Y-140.2
X96.3Y-159.8
X96.4Y-133.8
X96.8Y-90.7
X96.8Y-147.3
X96.9Y-126.8
X96.9Y-151.623
X97.0Y-129.6
X97.1Y-120.6
X97.2Y-112.2
X97.3Y-103.7
X97.3Y-109.0
X97.3Y-114.8
X97.4Y-71.9
X97.4Y-76.7
X97.6Y-106.9
X97.669Y-130.038
X97.831Y-93.331
X97.9Y-73.0
X97.963Y-128.837
X98.4Y-76.3
X98.9Y-99.0
X99.1Y-68.2
X99.1Y-113.3
X99.2Y-104.4
X99.5Y-65.9
X99.7Y-82.2
X99.732Y-97.4
X99.769Y-115.169
X99.9Y-79.3
X100.2Y-117.6
X100.227Y-133.442
X100.3Y-78.4
X100.5Y-68.55
X100.6Y-126.6
X100.624Y-123.324
X100.676Y-93.476
X101.3Y-76.2
X101.3Y-99.3
X101.351Y-118.528
X101.474Y-112.674
X101.8Y-71.9
X101.9Y-75.2
X101.9Y-115.7
X102.012Y-96.788
X102.3Y-90.2
X102.3Y-130.8
X102.4Y-94.2
X102.4Y-103.4
X102.4Y-145.4
X102.472Y-81.379
X102.7Y-71.7
X102.8Y-74.0
X102.9Y-128.1
X102.9Y-137.785
X103.1Y-106.3
X103.1Y-152.223
X103.2Y-80.2
X103.3Y-97.9
X103.3Y-132.7
X103.3Y-148.8
X103.3Y-158.224
X103.4Y-116.4
X103.576Y-129.776
X103.7Y-120.605
X103.8Y-78.0
X103.9Y-102.4
X104.1Y-82.0
X104.2Y-78.8
X104.4Y-132.2
X104.465Y-104.494
X104.6Y-105.7
X104.7Y-102.4
X104.7Y-107.5
X104.7Y-110.0
X104.8Y-142.0
X104.918Y-131.064
X105.0Y-129.2
X105.5Y-128.3
X105.537Y-101.162
X105.8Y-111.4
X105.9Y-125.5
X106.126Y-88.026
X106.9Y-113.4
X107.15Y-74.0
X107.15Y-81.915
X108.0Y-110.9
X108.2Y-88.5
X108.213Y-101.195
X108.6Y-108.6
X108.6Y-120.8
X108.7Y-114.1
X109.2Y-71.6
X109.3Y-85.7
X109.4Y-109.5
X109.9Y-76.6
X110.176Y-102.276
X110.4Y-100.2
X110.4Y-114.7
X110.412Y-98.188
X110.8Y-84.7
X110.9Y-101.0
X110.9Y-107.9
X111.0Y-71.8
X111.1Y-130.8
X111.5Y-103.7
X111.5Y-107.1
X111.6Y-111.1
X112.8Y-100.5
X112.8Y-132.3
X113.026Y-110.074
X113.1Y-68.2
X113.1Y-76.8
X113.3Y-125.6
X113.9Y-130.8
X114.037Y-111.52
X114.2Y-88.2
X114.2Y-127.3
X114.4Y-91.5
X114.459Y-109.839
X115.0Y-68.8
X115.0Y-140.0
X115.06Y-114.24
X115.1Y-85.8
X115.1Y-119.4
X115.4Y-106.4
X115.659Y-109.247
X116.1Y-79.3
X116.1Y-110.306
X116.2Y-111.1
X116.5Y-138.6
X116.53Y-66.345
X116.8Y-81.0
X116.9Y-75.9
X117.0Y-93.7
X117.1Y-90.8
X117.2Y-103.7
X117.2Y-129.883
X117.2Y-150.8
X117.3Y-148.5
X117.4Y-71.9
X117.5Y-128.2
X117.6Y-111.9
X117.7Y-98.2
X117.8Y-73.7
X117.9Y-74.8
X117.9Y-109.9
X118.2Y-103.1
X118.2Y-155.0
X118.5Y-66.2
X118.8Y-84.0
X118.8Y-142.7
X118.9Y-76.1
X118.9Y-146.2
X119.2Y-113.0
X119.4Y-123.0
X119.415Y-93.184
X119.6Y-160.6
X119.874Y-132.274
X120.232Y-158.123
X120.3Y-97.6
X120.6Y-71.0
X120.7Y-76.8
X120.7Y-141.9
X120.8Y-65.9
X121.082Y-78.582
X121.2Y-134.4
X121.3Y-113.7
X121.376Y-70.624
X121.4Y-151.8
X121.5Y-65.9
X121.6Y-130.1
X121.8Y-90.4
X122.0Y-132.2
X122.1Y-76.0
X122.3Y-65.9
X122.3Y-94.7
X122.3Y-120.3
X122.7Y-148.9
X122.8Y-80.6
X122.9Y-110.0
X123.1Y-72.9
X123.1Y-117.9
X123.3Y-101.2
X123.5Y-94.4
X123.7Y-138.0
X123.9Y-75.4
X124.088Y-65.718
X124.3Y-72.7
X124.4Y-119.6
X124.5Y-68.3
X124.5Y-70.3
X124.5Y-90.4
X124.6Y-79.2
X124.768Y-98.368
X124.8Y-65.6
X125.2Y-73.1
X125.5Y-65.5
X125.5Y-75.1
X125.6Y-126.7
X126.3Y-65.5
X126.5Y-68.3
X126.5Y-70.3
X126.9Y-79.8
X126.9Y-113.9
X126.9Y-119.6
X126.9Y-120.4
X126.9Y-123.2
X127.1Y-65.4
X127.1Y-121.3
X127.476Y-122.524
X127.5Y-90.4
X127.5Y-92.0
X127.575Y-72.886
X127.6Y-125.9
X127.6Y-132.3
X127.9Y-65.3
X128.5Y-128.6
X128.8Y-145.3
X128.9Y-82.3
X129.0Y-77.1
X129.0Y-81.0
X129.0Y-118.362
X129.1Y-135.6
X129.3Y-65.4
X129.3Y-131.9
X129.4Y-71.1
X129.4Y-85.5
X129.4Y-113.4
X129.453Y-72.001
X129.5Y-141.3
X129.55Y-72.85
X129.6Y-79.049
X129.7Y-123.2
X129.7Y-136.7
X129.8Y-124.5
X130.0Y-75.8
X130.1Y-118.5
X130.1Y-139.7
X130.2Y-65.3
X130.3Y-71.0
X130.4Y-68.5
X130.4Y-69.5
X130.6Y-75.1
X130.6Y-128.1
X131.2Y-143.2
X131.5Y-84.0
X131.6Y-131.1
X131.7Y-87.1
X132.2Y-131.7
X132.3Y-115.7
X132.352Y-120.672
X132.4Y-118.7
X132.4Y-150.9
X132.7Y-121.6
X132.7Y-133.7
T2
X76.91Y-70.06
X83.26Y-67.52
M30
