M48
; DRILL file KiCad 10.0.4 date 2026-06-29T22:51:02
; FORMAT={-:-/ absolute / metric / decimal}
; #@! TF.CreationDate,2026-06-29T22:51:02+03:00
; #@! TF.GenerationSoftware,Kicad,Pcbnew,10.0.4
; #@! TF.FileFunction,NonPlated,1,4,NPTH
FMAT,2
METRIC
; #@! TA.AperFunction,NonPlated,NPTH,ComponentDrill
T1C0.650
; #@! TA.AperFunction,NonPlated,NPTH,ComponentDrill
T2C1.700
; #@! TA.AperFunction,NonPlated,NPTH,ComponentDrill
T3C1.750
; #@! TA.AperFunction,NonPlated,NPTH,ComponentDrill
T4C4.000
%
G90
G05
T1
X95.41Y-69.215
X101.19Y-69.215
T2
X75.64Y-72.6
X85.8Y-72.6
T3
X75.64Y-115.233
X75.64Y-134.333
X75.64Y-153.433
X75.688Y-96.129
X85.8Y-115.233
X85.8Y-134.333
X85.8Y-153.433
X85.848Y-96.129
X94.7Y-115.206
X94.72Y-134.3
X94.72Y-153.406
X94.74Y-96.206
X104.86Y-115.206
X104.88Y-134.3
X104.88Y-153.406
X104.9Y-96.206
X113.8Y-115.233
X113.84Y-96.133
X113.84Y-134.333
X113.84Y-153.433
X123.96Y-115.233
X124.0Y-96.133
X124.0Y-134.333
X124.0Y-153.433
T4
X80.72Y-72.6
M30
