%TF.GenerationSoftware,KiCad,Pcbnew,10.0.4*%
%TF.CreationDate,2026-06-29T22:51:09+03:00*%
%TF.ProjectId,macropad,6d616372-6f70-4616-942e-6b696361645f,rev?*%
%TF.SameCoordinates,Original*%
%TF.FileFunction,Soldermask,Bot*%
%TF.FilePolarity,Negative*%
%FSLAX46Y46*%
G04 Gerber Fmt 4.6, Leading zero omitted, Abs format (unit mm)*
G04 Created by KiCad (PCBNEW 10.0.4) date 2026-06-29 22:51:09*
%MOMM*%
%LPD*%
G01*
G04 APERTURE LIST*
G04 Aperture macros list*
%AMRoundRect*
0 Rectangle with rounded corners*
0 $1 Rounding radius*
0 $2 $3 $4 $5 $6 $7 $8 $9 X,Y pos of 4 corners*
0 Add a 4 corners polygon primitive as box body*
4,1,4,$2,$3,$4,$5,$6,$7,$8,$9,$2,$3,0*
0 Add four circle primitives for the rounded corners*
1,1,$1+$1,$2,$3*
1,1,$1+$1,$4,$5*
1,1,$1+$1,$6,$7*
1,1,$1+$1,$8,$9*
0 Add four rect primitives between the rounded corners*
20,1,$1+$1,$2,$3,$4,$5,0*
20,1,$1+$1,$4,$5,$6,$7,0*
20,1,$1+$1,$6,$7,$8,$9,0*
20,1,$1+$1,$8,$9,$2,$3,0*%
G04 Aperture macros list end*
%ADD10C,1.750000*%
%ADD11C,1.700000*%
%ADD12C,4.000000*%
%ADD13C,2.200000*%
%ADD14RoundRect,0.237500X0.300000X0.237500X-0.300000X0.237500X-0.300000X-0.237500X0.300000X-0.237500X0*%
%ADD15RoundRect,0.237500X-0.237500X0.300000X-0.237500X-0.300000X0.237500X-0.300000X0.237500X0.300000X0*%
%ADD16RoundRect,0.237500X0.250000X0.237500X-0.250000X0.237500X-0.250000X-0.237500X0.250000X-0.237500X0*%
%ADD17RoundRect,0.237500X-0.237500X0.250000X-0.237500X-0.250000X0.237500X-0.250000X0.237500X0.250000X0*%
%ADD18RoundRect,0.150000X-0.825000X-0.150000X0.825000X-0.150000X0.825000X0.150000X-0.825000X0.150000X0*%
%ADD19RoundRect,0.237500X-0.300000X-0.237500X0.300000X-0.237500X0.300000X0.237500X-0.300000X0.237500X0*%
%ADD20RoundRect,0.237500X0.237500X-0.250000X0.237500X0.250000X-0.237500X0.250000X-0.237500X-0.250000X0*%
%ADD21RoundRect,0.050000X0.150000X0.350000X-0.150000X0.350000X-0.150000X-0.350000X0.150000X-0.350000X0*%
%ADD22RoundRect,0.102000X-1.300000X0.350000X-1.300000X-0.350000X1.300000X-0.350000X1.300000X0.350000X0*%
%ADD23RoundRect,0.102000X-0.950000X0.550000X-0.950000X-0.550000X0.950000X-0.550000X0.950000X0.550000X0*%
%ADD24RoundRect,0.237500X-0.250000X-0.237500X0.250000X-0.237500X0.250000X0.237500X-0.250000X0.237500X0*%
%ADD25RoundRect,0.237500X0.237500X-0.300000X0.237500X0.300000X-0.237500X0.300000X-0.237500X-0.300000X0*%
%ADD26RoundRect,0.150000X-0.150000X0.512500X-0.150000X-0.512500X0.150000X-0.512500X0.150000X0.512500X0*%
%ADD27RoundRect,0.175000X1.675000X-0.175000X1.675000X0.175000X-1.675000X0.175000X-1.675000X-0.175000X0*%
%ADD28RoundRect,0.250001X0.899999X-0.499999X0.899999X0.499999X-0.899999X0.499999X-0.899999X-0.499999X0*%
%ADD29RoundRect,0.100000X0.850000X0.100000X-0.850000X0.100000X-0.850000X-0.100000X0.850000X-0.100000X0*%
%ADD30RoundRect,0.200000X0.750000X0.200000X-0.750000X0.200000X-0.750000X-0.200000X0.750000X-0.200000X0*%
%ADD31C,0.650000*%
%ADD32RoundRect,0.150000X-0.150000X-0.425000X0.150000X-0.425000X0.150000X0.425000X-0.150000X0.425000X0*%
%ADD33RoundRect,0.075000X-0.075000X-0.500000X0.075000X-0.500000X0.075000X0.500000X-0.075000X0.500000X0*%
%ADD34RoundRect,0.250000X-0.840000X-0.750000X0.840000X-0.750000X0.840000X0.750000X-0.840000X0.750000X0*%
%ADD35RoundRect,0.153250X-0.733750X-0.153750X0.733750X-0.153750X0.733750X0.153750X-0.733750X0.153750X0*%
%ADD36R,1.500000X4.400000*%
%ADD37RoundRect,0.152000X0.150000X-0.730000X0.150000X0.730000X-0.150000X0.730000X-0.150000X-0.730000X0*%
%ADD38RoundRect,0.177000X0.910000X0.225000X-0.910000X0.225000X-0.910000X-0.225000X0.910000X-0.225000X0*%
G04 APERTURE END LIST*
D10*
%TO.C,MX12*%
X75640000Y-153433000D03*
X85800000Y-153433000D03*
%TD*%
%TO.C,MX1*%
X113840000Y-96133000D03*
X124000000Y-96133000D03*
%TD*%
D11*
%TO.C,SW2*%
X75640000Y-72600000D03*
D12*
X80720000Y-72600000D03*
D11*
X85800000Y-72600000D03*
D13*
X83260000Y-67520000D03*
X76910000Y-70060000D03*
%TD*%
D10*
%TO.C,MX5*%
X94700000Y-115206000D03*
X104860000Y-115206000D03*
%TD*%
%TO.C,MX7*%
X113840000Y-134333000D03*
X124000000Y-134333000D03*
%TD*%
%TO.C,MX6*%
X75640000Y-115233000D03*
X85800000Y-115233000D03*
%TD*%
%TO.C,MX2*%
X94740000Y-96206000D03*
X104900000Y-96206000D03*
%TD*%
%TO.C,MX10*%
X113840000Y-153433000D03*
X124000000Y-153433000D03*
%TD*%
%TO.C,MX4*%
X113800000Y-115233000D03*
X123960000Y-115233000D03*
%TD*%
%TO.C,MX9*%
X75640000Y-134333000D03*
X85800000Y-134333000D03*
%TD*%
%TO.C,MX8*%
X94720000Y-134300000D03*
X104880000Y-134300000D03*
%TD*%
%TO.C,MX11*%
X94720000Y-153406000D03*
X104880000Y-153406000D03*
%TD*%
%TO.C,MX3*%
X75688000Y-96129000D03*
X85848000Y-96129000D03*
%TD*%
D14*
%TO.C,C45*%
X120866500Y-133035000D03*
X119141500Y-133035000D03*
%TD*%
D15*
%TO.C,C20*%
X80676000Y-99550500D03*
X80676000Y-101275500D03*
%TD*%
%TO.C,C23*%
X80374000Y-119546500D03*
X80374000Y-121271500D03*
%TD*%
D14*
%TO.C,C37*%
X81538500Y-95079000D03*
X79813500Y-95079000D03*
%TD*%
%TO.C,C41*%
X101696500Y-113778000D03*
X99971500Y-113778000D03*
%TD*%
D15*
%TO.C,C29*%
X80728000Y-157298500D03*
X80728000Y-159023500D03*
%TD*%
D16*
%TO.C,R4*%
X132312500Y-123500000D03*
X130487500Y-123500000D03*
%TD*%
D14*
%TO.C,C47*%
X100854500Y-152138000D03*
X99129500Y-152138000D03*
%TD*%
D17*
%TO.C,R27*%
X131500000Y-149287500D03*
X131500000Y-151112500D03*
%TD*%
D18*
%TO.C,U35*%
X107825000Y-87605000D03*
X107825000Y-86335000D03*
X107825000Y-85065000D03*
X107825000Y-83795000D03*
X112775000Y-83795000D03*
X112775000Y-85065000D03*
X112775000Y-86335000D03*
X112775000Y-87605000D03*
%TD*%
D16*
%TO.C,R33*%
X105412500Y-75100000D03*
X103587500Y-75100000D03*
%TD*%
%TO.C,R31*%
X102112500Y-80500000D03*
X100287500Y-80500000D03*
%TD*%
D19*
%TO.C,C11*%
X127337500Y-150700000D03*
X129062500Y-150700000D03*
%TD*%
D20*
%TO.C,R11*%
X98548000Y-110880500D03*
X98548000Y-109055500D03*
%TD*%
D15*
%TO.C,C26*%
X80882000Y-138422500D03*
X80882000Y-140147500D03*
%TD*%
D16*
%TO.C,R20*%
X125612500Y-78200000D03*
X123787500Y-78200000D03*
%TD*%
%TO.C,R19*%
X125600000Y-81300000D03*
X123775000Y-81300000D03*
%TD*%
D14*
%TO.C,C39*%
X120866500Y-94829000D03*
X119141500Y-94829000D03*
%TD*%
D20*
%TO.C,R9*%
X118480000Y-92439500D03*
X118480000Y-90614500D03*
%TD*%
%TO.C,R32*%
X100200000Y-76112500D03*
X100200000Y-74287500D03*
%TD*%
D21*
%TO.C,U33*%
X130400000Y-130700000D03*
X129900000Y-130700000D03*
X129400000Y-130700000D03*
X129400000Y-129200000D03*
X129900000Y-129200000D03*
X130400000Y-129200000D03*
%TD*%
D19*
%TO.C,C2*%
X125037500Y-125000000D03*
X126762500Y-125000000D03*
%TD*%
D20*
%TO.C,R25*%
X126500000Y-97612500D03*
X126500000Y-95787500D03*
%TD*%
%TO.C,R18*%
X118226000Y-149013500D03*
X118226000Y-147188500D03*
%TD*%
D17*
%TO.C,R43*%
X126900000Y-87087500D03*
X126900000Y-88912500D03*
%TD*%
D14*
%TO.C,C40*%
X82152000Y-113805000D03*
X80427000Y-113805000D03*
%TD*%
D22*
%TO.C,J1*%
X127750000Y-155550000D03*
X127750000Y-157050000D03*
D23*
X131400000Y-159000000D03*
X131400000Y-153600000D03*
%TD*%
D24*
%TO.C,R3*%
X125287500Y-118600000D03*
X127112500Y-118600000D03*
%TD*%
D14*
%TO.C,C48*%
X120358500Y-152165000D03*
X118633500Y-152165000D03*
%TD*%
D20*
%TO.C,R12*%
X117932000Y-110907500D03*
X117932000Y-109082500D03*
%TD*%
%TO.C,R15*%
X118988000Y-129883500D03*
X118988000Y-128058500D03*
%TD*%
D16*
%TO.C,R22*%
X100912500Y-72400000D03*
X99087500Y-72400000D03*
%TD*%
D14*
%TO.C,C38*%
X100974500Y-94902000D03*
X99249500Y-94902000D03*
%TD*%
%TO.C,C43*%
X81490500Y-133443000D03*
X79765500Y-133443000D03*
%TD*%
D20*
%TO.C,R6*%
X112153250Y-68862500D03*
X112153250Y-67037500D03*
%TD*%
D25*
%TO.C,C19*%
X127500000Y-130762500D03*
X127500000Y-129037500D03*
%TD*%
D19*
%TO.C,C10*%
X123037500Y-91500000D03*
X124762500Y-91500000D03*
%TD*%
D26*
%TO.C,U32*%
X127750000Y-146762500D03*
X128700000Y-146762500D03*
X129650000Y-146762500D03*
X129650000Y-149037500D03*
X128700000Y-149037500D03*
X127750000Y-149037500D03*
%TD*%
D19*
%TO.C,C5*%
X106700000Y-70600000D03*
X108425000Y-70600000D03*
%TD*%
D20*
%TO.C,R30*%
X130600000Y-134112500D03*
X130600000Y-132287500D03*
%TD*%
%TO.C,R2*%
X125800000Y-122812500D03*
X125800000Y-120987500D03*
%TD*%
D24*
%TO.C,R24*%
X122587500Y-93200000D03*
X124412500Y-93200000D03*
%TD*%
D14*
%TO.C,C46*%
X82352500Y-152065000D03*
X80627500Y-152065000D03*
%TD*%
%TO.C,C44*%
X101108500Y-132748000D03*
X99383500Y-132748000D03*
%TD*%
D20*
%TO.C,R7*%
X79406000Y-92435500D03*
X79406000Y-90610500D03*
%TD*%
D27*
%TO.C,J3*%
X129600000Y-95750000D03*
X129600000Y-94250000D03*
X129600000Y-92750000D03*
X129600000Y-91250000D03*
D28*
X131700000Y-97800000D03*
X131700000Y-89200000D03*
%TD*%
D29*
%TO.C,U28*%
X113400000Y-102025000D03*
X113400000Y-102675000D03*
X113400000Y-103325000D03*
X113400000Y-103975000D03*
X113400000Y-104625000D03*
X113400000Y-105275000D03*
X113400000Y-105925000D03*
X113400000Y-106575000D03*
X113400000Y-107225000D03*
X113400000Y-107875000D03*
X113400000Y-108525000D03*
X113400000Y-109175000D03*
X106400000Y-109175000D03*
X106400000Y-108525000D03*
X106400000Y-107875000D03*
X106400000Y-107225000D03*
X106400000Y-106575000D03*
X106400000Y-105925000D03*
X106400000Y-105275000D03*
X106400000Y-104625000D03*
X106400000Y-103975000D03*
X106400000Y-103325000D03*
X106400000Y-102675000D03*
X106400000Y-102025000D03*
%TD*%
D15*
%TO.C,C31*%
X119750000Y-157398500D03*
X119750000Y-159123500D03*
%TD*%
D20*
%TO.C,R14*%
X98976000Y-129850500D03*
X98976000Y-128025500D03*
%TD*%
D15*
%TO.C,C30*%
X99738000Y-157371500D03*
X99738000Y-159096500D03*
%TD*%
D24*
%TO.C,R23*%
X123387500Y-88900000D03*
X125212500Y-88900000D03*
%TD*%
D30*
%TO.C,Q1*%
X109500000Y-66900000D03*
X109500000Y-68800000D03*
X106500000Y-67850000D03*
%TD*%
D16*
%TO.C,R29*%
X103012500Y-79000000D03*
X101187500Y-79000000D03*
%TD*%
D15*
%TO.C,C24*%
X100326000Y-119265500D03*
X100326000Y-120990500D03*
%TD*%
D20*
%TO.C,R17*%
X97960000Y-149240500D03*
X97960000Y-147415500D03*
%TD*%
D16*
%TO.C,R39*%
X128412500Y-72900000D03*
X126587500Y-72900000D03*
%TD*%
D25*
%TO.C,C17*%
X130500000Y-127062500D03*
X130500000Y-125337500D03*
%TD*%
D16*
%TO.C,R34*%
X103012500Y-82300000D03*
X101187500Y-82300000D03*
%TD*%
D20*
%TO.C,R16*%
X79712000Y-148913500D03*
X79712000Y-147088500D03*
%TD*%
D15*
%TO.C,C18*%
X128900000Y-125312500D03*
X128900000Y-127037500D03*
%TD*%
%TO.C,C28*%
X119750000Y-138522500D03*
X119750000Y-140247500D03*
%TD*%
%TO.C,C27*%
X99738000Y-138235500D03*
X99738000Y-139960500D03*
%TD*%
%TO.C,C22*%
X118734000Y-100216000D03*
X118734000Y-101941000D03*
%TD*%
D17*
%TO.C,R42*%
X126500000Y-91487500D03*
X126500000Y-93312500D03*
%TD*%
D15*
%TO.C,C21*%
X99858000Y-100389500D03*
X99858000Y-102114500D03*
%TD*%
D31*
%TO.C,J2*%
X95410000Y-69215000D03*
X101190000Y-69215000D03*
D32*
X95100000Y-70290000D03*
X95900000Y-70290000D03*
D33*
X97050000Y-70290000D03*
X98050000Y-70290000D03*
X98550000Y-70290000D03*
X99550000Y-70290000D03*
D32*
X101500000Y-70290000D03*
X100700000Y-70290000D03*
D33*
X100050000Y-70290000D03*
X99050000Y-70290000D03*
X97550000Y-70290000D03*
X96550000Y-70290000D03*
D34*
X93190000Y-65785000D03*
X93190000Y-69715000D03*
X103410000Y-65785000D03*
X103410000Y-69715000D03*
%TD*%
D14*
%TO.C,C42*%
X120318500Y-114059000D03*
X118593500Y-114059000D03*
%TD*%
D35*
%TO.C,U29*%
X86830000Y-132275000D03*
X86830000Y-131625000D03*
X86830000Y-130975000D03*
X86830000Y-130325000D03*
X86830000Y-129675000D03*
X86830000Y-129025000D03*
X86830000Y-128375000D03*
X86830000Y-127725000D03*
X92570000Y-127725000D03*
X92570000Y-128375000D03*
X92570000Y-129025000D03*
X92570000Y-129675000D03*
X92570000Y-130325000D03*
X92570000Y-130975000D03*
X92570000Y-131625000D03*
X92570000Y-132275000D03*
%TD*%
D20*
%TO.C,R10*%
X79104000Y-111161500D03*
X79104000Y-109336500D03*
%TD*%
D24*
%TO.C,R21*%
X103375000Y-72300000D03*
X105200000Y-72300000D03*
%TD*%
D20*
%TO.C,R13*%
X79104000Y-130649000D03*
X79104000Y-128824000D03*
%TD*%
D36*
%TO.C,L1*%
X131050000Y-114500000D03*
X128150000Y-114500000D03*
%TD*%
D15*
%TO.C,C25*%
X119202000Y-119292500D03*
X119202000Y-121017500D03*
%TD*%
D17*
%TO.C,R5*%
X131600000Y-119887500D03*
X131600000Y-121712500D03*
%TD*%
D24*
%TO.C,R26*%
X79687500Y-76800000D03*
X81512500Y-76800000D03*
%TD*%
D20*
%TO.C,R8*%
X98588000Y-92258500D03*
X98588000Y-90433500D03*
%TD*%
D19*
%TO.C,C9*%
X128737500Y-86700000D03*
X130462500Y-86700000D03*
%TD*%
D35*
%TO.C,U30*%
X106830000Y-131108000D03*
X106830000Y-130458000D03*
X106830000Y-129808000D03*
X106830000Y-129158000D03*
X106830000Y-128508000D03*
X106830000Y-127858000D03*
X106830000Y-127208000D03*
X106830000Y-126558000D03*
X112570000Y-126558000D03*
X112570000Y-127208000D03*
X112570000Y-127858000D03*
X112570000Y-128508000D03*
X112570000Y-129158000D03*
X112570000Y-129808000D03*
X112570000Y-130458000D03*
X112570000Y-131108000D03*
%TD*%
D37*
%TO.C,Q2*%
X129975000Y-143727500D03*
X129325000Y-143727500D03*
X128675000Y-143727500D03*
X128025000Y-143727500D03*
X128025000Y-137967500D03*
X128675000Y-137967500D03*
X129325000Y-137967500D03*
X129975000Y-137967500D03*
%TD*%
D38*
%TO.C,U14*%
X94950000Y-73630000D03*
X94950000Y-74900000D03*
X94950000Y-76170000D03*
X94950000Y-77440000D03*
X94950000Y-78710000D03*
X94950000Y-79980000D03*
X94950000Y-81250000D03*
X94950000Y-82520000D03*
X90000000Y-82520000D03*
X90000000Y-81250000D03*
X90000000Y-79980000D03*
X90000000Y-78710000D03*
X90000000Y-77440000D03*
X90000000Y-76170000D03*
X90000000Y-74900000D03*
X90000000Y-73630000D03*
%TD*%
M02*
